<mxfile host="Electron" agent="Mozilla/5.0 (Windows NT 10.0; Win64; x64) AppleWebKit/537.36 (KHTML, like Gecko) draw.io/28.1.2 Chrome/138.0.7204.243 Electron/37.4.0 Safari/537.36" version="28.1.2" pages="3">
  <diagram name="icons" id="07unl5gb2Je9fldgIA3J">
    <mxGraphModel dx="642" dy="456" grid="1" gridSize="10" guides="1" tooltips="1" connect="1" arrows="1" fold="1" page="1" pageScale="1" pageWidth="827" pageHeight="1169" math="0" shadow="0">
      <root>
        <mxCell id="0" />
        <mxCell id="1" parent="0" />
        <mxCell id="RSZpopW0nC8yCMwTYU6M-23" value="Cloud&#xa;Functions" style="sketch=0;html=1;verticalAlign=top;labelPosition=center;verticalLabelPosition=bottom;align=center;spacingTop=-6;fontSize=11;fontStyle=1;fontColor=#999999;shape=image;aspect=fixed;imageAspect=0;image=data:image/svg+xml,PHN2ZyB4bWxucz0iaHR0cDovL3d3dy53My5vcmcvMjAwMC9zdmciIHhtbG5zOnY9Imh0dHBzOi8vdmVjdGEuaW8vbmFubyIgd2lkdGg9IjIwIiBoZWlnaHQ9IjE5Ljk4OTk5OTc3MTExODE2NCIgdmlld0JveD0iMCAwIDIwIDE5Ljk4OTk5OTc3MTExODE2NCI+JiN4YTsJPHN0eWxlIHR5cGU9InRleHQvY3NzIj4mI3hhOwkuc3Qwe2ZpbGw6IzQyODVmNDt9JiN4YTsJLnN0MXtmaWxsOiM2NjlkZjY7fSYjeGE7CS5zdDJ7ZmlsbDojYWVjYmZhO30mI3hhOwk8L3N0eWxlPiYjeGE7CTxwYXRoIGNsYXNzPSJzdDEiIGQ9Ik0zIDMuOTlMMCA2LjQydjcuMTNsMyAyLjQ0eiIvPiYjeGE7CTxwYXRoIGNsYXNzPSJzdDAiIGQ9Ik0zIDMuOTlsLTMgNCAzLTJ6bS0zIDhsMyA0di0yeiIvPiYjeGE7CTxwYXRoIGNsYXNzPSJzdDIiIGQ9Ik0wIDE1Ljk5bDQgNCAyLTItNi02em0uMDEtOEw1Ljk5IDJsLTItMkwwIDMuOTl6Ii8+JiN4YTsJPHBhdGggY2xhc3M9InN0MSIgZD0iTTE3IDE2bDMtMi40MlY2LjQ0TDE3IDR6Ii8+JiN4YTsJPHBhdGggY2xhc3M9InN0MCIgZD0iTTE3IDE2bDMtNC0zIDJ6bTMtOGwtMy00djJ6Ii8+JiN4YTsJPGcgY2xhc3M9InN0MiI+JiN4YTsJCTxwYXRoIGQ9Ik0yMCA0bC00LTQtMiAyIDYgNnptLS4wMSA4bC01Ljk4IDUuOTkgMiAyTDIwIDE2eiIvPiYjeGE7CQk8Y2lyY2xlIGN4PSI2IiBjeT0iOS45OSIgcj0iMSIvPiYjeGE7CQk8Y2lyY2xlIGN4PSIxMCIgY3k9IjkuOTkiIHI9IjEiLz4mI3hhOwkJPGNpcmNsZSBjeD0iMTMuOTkiIGN5PSI5Ljk5IiByPSIxIi8+JiN4YTsJPC9nPiYjeGE7PC9zdmc+;" vertex="1" parent="1">
          <mxGeometry x="40" y="480" width="42" height="34" as="geometry" />
        </mxCell>
        <mxCell id="RSZpopW0nC8yCMwTYU6M-24" value="Cloud Run" style="sketch=0;html=1;verticalAlign=top;labelPosition=center;verticalLabelPosition=bottom;align=center;spacingTop=-6;fontSize=11;fontStyle=1;fontColor=#999999;shape=image;aspect=fixed;imageAspect=0;image=data:image/svg+xml,PHN2ZyB4bWxucz0iaHR0cDovL3d3dy53My5vcmcvMjAwMC9zdmciIHhtbG5zOnY9Imh0dHBzOi8vdmVjdGEuaW8vbmFubyIgd2lkdGg9IjM2NS40NjQ5OTY3NzA0MjQ5MyIgaGVpZ2h0PSIzNzkuMjIyOTk0NDYzNTc3OTUiIHZpZXdCb3g9IjAgMCA5Ni42OTU5OTkxNDU1MDc4MSAxMDAuMzM1OTk4NTM1MTU2MjUiPiYjeGE7PHN0eWxlIHR5cGU9InRleHQvY3NzIj4mI3hhOwkuc3Qwe2ZpbGw6IzQyODVmNDt9JiN4YTsJLnN0MXtmaWxsOiNhZWNiZmE7fSYjeGE7PC9zdHlsZT4mI3hhOwk8cGF0aCBjbGFzcz0ic3QwIiBkPSJNMjkuNzk0IDEwMC4zMzZMNDYuOTIgNTAuMTY4aDQ5Ljc3NnpNMCA5OS42NzFsMTIuOTc2LTQ5LjUwMkgyOS4yMkwxNi44OTcgOTIuMDU0eiIvPiYjeGE7CTxwYXRoIGNsYXNzPSJzdDEiIGQ9Ik0yOS43OTQgMEw0Ni45MiA1MC4xNjhoNDkuNzc2ek0wIC42NjZsMTIuOTc2IDQ5LjUwMkgyOS4yMkwxNi44OTcgOC4yODN6Ii8+JiN4YTs8L3N2Zz4=;" vertex="1" parent="1">
          <mxGeometry x="110" y="480" width="34" height="42" as="geometry" />
        </mxCell>
        <mxCell id="RSZpopW0nC8yCMwTYU6M-25" value="BigQuery" style="sketch=0;html=1;verticalAlign=top;labelPosition=center;verticalLabelPosition=bottom;align=center;spacingTop=-6;fontSize=11;fontStyle=1;fontColor=#999999;shape=image;aspect=fixed;imageAspect=0;image=data:image/svg+xml,PHN2ZyB4bWxucz0iaHR0cDovL3d3dy53My5vcmcvMjAwMC9zdmciIHhtbG5zOnY9Imh0dHBzOi8vdmVjdGEuaW8vbmFubyIgd2lkdGg9IjIwLjAwMTA0NTIyNzA1MDc4IiBoZWlnaHQ9IjIwLjAwMTA0NTIyNzA1MDc4IiBmaWxsLXJ1bGU9ImV2ZW5vZGQiIHZpZXdCb3g9IjAgMCAyMC4wMDEwNDUyMjcwNTA3OCAyMC4wMDEwNDUyMjcwNTA3OCI+JiN4YTsJPHN0eWxlIHR5cGU9InRleHQvY3NzIj4mI3hhOwkuc3Qwe2ZpbGw6I2FlY2JmYTt9JiN4YTsJLnN0MXtmaWxsOiM2NjlkZjY7fSYjeGE7CS5zdDJ7ZmlsbDojNDI4NWY0O30mI3hhOwk8L3N0eWxlPiYjeGE7CTxwYXRoIGNsYXNzPSJzdDAiIGQ9Ik00LjczIDguODN2Mi42M2E0LjkxIDQuOTEgMCAwIDAgMS43MSAxLjc0VjguODN6Ii8+JiN4YTsJPHBhdGggY2xhc3M9InN0MSIgZD0iTTcuODkgNi40MXY3LjUzQTcuNjIgNy42MiAwIDAgMCA5IDE0YTggOCAwIDAgMCAxIDBWNi40MXoiLz4mI3hhOwk8cGF0aCBjbGFzcz0ic3QwIiBkPSJNMTEuNjQgOS44NnYzLjI5YTUgNSAwIDAgMCAxLjctMS44MlY5Ljg2eiIvPiYjeGE7CTxwYXRoIGNsYXNzPSJzdDIiIGQ9Ik0xNS43NCAxNC4zMmwtMS40MiAxLjQyYS40Mi40MiAwIDAgMCAwIC42bDMuNTQgMy41NGEuNDIuNDIgMCAwIDAgLjU5IDBsMS40My0xLjQzYS40Mi40MiAwIDAgMCAwLS41OWwtMy41NC0zLjU0YS40Mi40MiAwIDAgMC0uNiAwIi8+JiN4YTsJPHBhdGggY2xhc3M9InN0MSIgZD0iTTkgMGE5IDkgMCAxIDAgMCAxOEE5IDkgMCAxIDAgOSAwbTAgMTUuNjlhNi42OCA2LjY4IDAgMCAxIC4wMDctMTMuMzYgNi42OCA2LjY4IDAgMCAxIDQuNzI3IDExLjQwM0E2LjY4IDYuNjggMCAwIDEgOSAxNS42OSIvPiYjeGE7PC9zdmc+;" vertex="1" parent="1">
          <mxGeometry x="160" y="480" width="42" height="42" as="geometry" />
        </mxCell>
        <mxCell id="RSZpopW0nC8yCMwTYU6M-26" value="Cloud&#xa;Composer" style="sketch=0;html=1;verticalAlign=top;labelPosition=center;verticalLabelPosition=bottom;align=center;spacingTop=-6;fontSize=11;fontStyle=1;fontColor=#999999;shape=image;aspect=fixed;imageAspect=0;image=data:image/svg+xml,PHN2ZyB4bWxucz0iaHR0cDovL3d3dy53My5vcmcvMjAwMC9zdmciIHhtbG5zOnY9Imh0dHBzOi8vdmVjdGEuaW8vbmFubyIgd2lkdGg9IjE0LjY0MDAwMDM0MzMyMjc1NCIgaGVpZ2h0PSIyMCIgdmlld0JveD0iMCAwIDE0LjY0MDAwMDM0MzMyMjc1NCAyMCI+JiN4YTsJPHN0eWxlIHR5cGU9InRleHQvY3NzIj4mI3hhOwkuc3Qwe2ZpbGw6I2FlY2JmYTt9JiN4YTsJLnN0MXtmaWxsOiM0Mjg1ZjQ7fSYjeGE7CTwvc3R5bGU+JiN4YTsJPHBhdGggY2xhc3M9InN0MCIgZD0iTTAgMGgxNC42M3YzLjk0aC01LjN2NS4zM0g1LjM1VjMuOTZIMHoiLz4mI3hhOwk8cGF0aCBjbGFzcz0ic3QxIiBkPSJNMy45NSAxMC42N2g1LjM0VjIwSDUuMzV2LTUuMzVIMFY1LjM3aDMuOTV6TTE0LjY0IDIwSDEwLjdWNS4zNmgzLjk0eiIvPiYjeGE7CTxwYXRoIGNsYXNzPSJzdDAiIGQ9Ik0wIDE2LjA2aDMuOTJWMjBIMHoiLz4mI3hhOzwvc3ZnPg==;" vertex="1" parent="1">
          <mxGeometry x="240" y="480" width="32" height="42" as="geometry" />
        </mxCell>
        <mxCell id="RSZpopW0nC8yCMwTYU6M-27" value="Cloud Data&#xa;Fusion" style="sketch=0;html=1;verticalAlign=top;labelPosition=center;verticalLabelPosition=bottom;align=center;spacingTop=-6;fontSize=11;fontStyle=1;fontColor=#999999;shape=image;aspect=fixed;imageAspect=0;image=data:image/svg+xml,PHN2ZyB4bWxucz0iaHR0cDovL3d3dy53My5vcmcvMjAwMC9zdmciIHhtbG5zOnY9Imh0dHBzOi8vdmVjdGEuaW8vbmFubyIgd2lkdGg9IjM3Ny4wNDk2OTgzMjc3ODkyNiIgaGVpZ2h0PSIzNzcuMjkxNTcwNzE1Nzg5NzYiIHZpZXdCb3g9IjAuMTMxMDAwNTE4Nzk4ODI4MTIgLTAuMTIxMDAwMDA2Nzk0OTI5NSA5OS43NjEwMDE1ODY5MTQwNiA5OS44MjQ5OTY5NDgyNDIxOSI+JiN4YTs8c3R5bGUgdHlwZT0idGV4dC9jc3MiPiYjeGE7CS5zdDB7ZmlsbDojNjY5ZGY2O30mI3hhOwkuc3Qxe2ZpbGw6IzQyODVmNDt9JiN4YTsJLnN0MntmaWxsOiNhZWNiZmE7fSYjeGE7PC9zdHlsZT4mI3hhOwk8cGF0aCBjbGFzcz0ic3QwIiBkPSJNODAuNTkzIDE5LjE4djIwLjE5OWgxOS4yOTlWOS41M2MwLTIuNTM3LS45NzktNC44NDYtMi41OC02LjU2OHptLTkuOTA4IDYxLjIyNUgxOS40MzFMMy40NSA5Ny4zMzdjMS42OTUgMS40NzQgMy45MDggMi4zNjcgNi4zMzEgMi4zNjdoNzAuNTU1YzIuODczIDAgNS40NTMtMS4yNTYgNy4yMjEtMy4yNDh6Ii8+JiN4YTsJPHBhdGggY2xhc3M9InN0MSIgZD0iTTg3LjU3MyA5Ni40MzdjMS41MDEtMS43MDEgMi40MTMtMy45MzUgMi40MTMtNi4zODJWNjAuMjA0SDcwLjY4NXYyMC4yMDF6Ii8+JiN4YTsJPHBhdGggY2xhc3M9InN0MiIgZD0iTTE5LjQzMSA4MC40MDVWMjkuMzRoMjAuNTc4VjEwLjA0SDkuNzgxYy01LjMzIDAtOS42NSA0LjMyMS05LjY1IDkuNjV2NzAuMzY1Yy4wMDEgMi45MDYgMS4yODYgNS41MTMgMy4zMiA3LjI4MXptNzcuODgtNzcuNDQzQzk1LjU1IDEuMDY2IDkzLjAzNi0uMTIgOTAuMjQ0LS4xMjFINTkuOTUxVjE5LjE4aDIwLjY0M3oiLz4mI3hhOzwvc3ZnPg==;" vertex="1" parent="1">
          <mxGeometry x="318" y="480" width="42" height="42" as="geometry" />
        </mxCell>
        <mxCell id="RSZpopW0nC8yCMwTYU6M-28" value="Data&#xa;Catalog" style="sketch=0;html=1;verticalAlign=top;labelPosition=center;verticalLabelPosition=bottom;align=center;spacingTop=-6;fontSize=11;fontStyle=1;fontColor=#999999;shape=image;aspect=fixed;imageAspect=0;image=data:image/svg+xml,PHN2ZyB4bWxucz0iaHR0cDovL3d3dy53My5vcmcvMjAwMC9zdmciIHhtbG5zOnY9Imh0dHBzOi8vdmVjdGEuaW8vbmFubyIgd2lkdGg9IjM3Ni4yNzQ4ODc3NTcyNjMyIiBoZWlnaHQ9IjMzOS42NzM1NDQyMTc3NjM4MyIgdmlld0JveD0iMC4xMTQwMDAwMDAwNTk2MDQ2NCAtMC4wOTAwMDAwMDM1NzYyNzg2OSA5OS41NTU5OTk3NTU4NTkzOCA4OS44NzE5OTQwMTg1NTQ2OSI+JiN4YTs8c3R5bGUgdHlwZT0idGV4dC9jc3MiPiYjeGE7CS5zdDB7ZmlsbDojNDI4NWY0O30mI3hhOwkuc3Qxe2ZpbGw6I2FlY2JmYTt9JiN4YTs8L3N0eWxlPiYjeGE7CTxwYXRoIGNsYXNzPSJzdDAiIGQ9Ik03Ny41MjMgNDMuMzk3bDEyLjg0NCA3LjU3MnYxNC43NjdsLTEyLjg0NCA2LjY4ek01MC4zMTItLjA5bDEyLjg0NCA3LjU3MnYxNC43NjdsLTEyLjg0NCA2LjY4ek0yMy4xIDQzLjM5N2wxMi44NDQgNy41NzJ2MTQuNzY3TDIzLjEgNzIuNDE3em02OS40Ny0uNTExbDcuMS0xMS4xNjktMTIuNjY2LTIxLjU5NEg3MC42NDR2OS41aDEwLjkxOWw2Ljk3NyAxMS44OTUtNC4yNTYgNi42OTR6bS03Ni45NzktNC42TDExLjMgMzEuNDg1bDcuMjY0LTExLjg2MWg5Ljk3OWwuMDk5LTkuNUgxMy4yNDFMLjExNCAzMS41NjFsMS41NzYgMi40OTggNS41MTUgOC43Mzl6bTEzLjY2MiAzOS40NDlsNy42MDMgMTIuMDQ3aDI1LjkwMmw3LjczMy0xMi4xNjQtOC4xNDMtNC44OTktNC44MDggNy41NjRINDIuMDk1bC00Ljc0LTcuNTExeiIvPiYjeGE7CTxwYXRoIGNsYXNzPSJzdDEiIGQ9Ik03Ny41MjMgNDMuMzk3bC0xMi44NDQgNy41NzJ2MTQuNzY3bDEyLjg0NCA2LjY4ek01MC4zMTItLjA5TDM3LjQ2OCA3LjQ4MnYxNC43NjdsMTIuODQ0IDYuNjh6TTIzLjEgNDMuMzk3bC0xMi44NDQgNy41NzJ2MTQuNzY3bDEyLjg0NCA2LjY4eiIvPiYjeGE7PC9zdmc+;" vertex="1" parent="1">
          <mxGeometry x="399" y="480" width="42" height="42" as="geometry" />
        </mxCell>
        <mxCell id="RSZpopW0nC8yCMwTYU6M-29" value="Dataflow" style="sketch=0;html=1;verticalAlign=top;labelPosition=center;verticalLabelPosition=bottom;align=center;spacingTop=-6;fontSize=11;fontStyle=1;fontColor=#999999;shape=image;aspect=fixed;imageAspect=0;image=data:image/svg+xml,PHN2ZyB4bWxucz0iaHR0cDovL3d3dy53My5vcmcvMjAwMC9zdmciIHhtbG5zOnY9Imh0dHBzOi8vdmVjdGEuaW8vbmFubyIgd2lkdGg9IjE0LjUxOTk5OTUwNDA4OTM1NSIgaGVpZ2h0PSIyMCIgdmlld0JveD0iMCAwIDE0LjUxOTk5OTUwNDA4OTM1NSAyMCI+JiN4YTsJPHN0eWxlIHR5cGU9InRleHQvY3NzIj4mI3hhOwkuc3Qwe2ZpbGwtcnVsZTpldmVub2RkfSYjeGE7CS5zdDF7ZmlsbDojNjY5ZGY2O30mI3hhOwkuc3Qye2ZpbGw6I2FlY2JmYTt9JiN4YTsJLnN0M3tmaWxsOiM0Mjg1ZjQ7fSYjeGE7CTwvc3R5bGU+JiN4YTsJPGcgY2xhc3M9InN0MCI+JiN4YTsJCTxwYXRoIGNsYXNzPSJzdDEiIGQ9Ik03LjM3IDIuMDNsLTEuNzIuOTYgMS41MiAxLjUtLjAyIDEuNzMgMS4wMi4wMS4wMi0xLjczIDQuMjQgMi41Ni0uMDEgMS4wNyAxLjc3LjAzVjYuMTFMOS4wNSAzLjA0bC0uMjctLjk0eiIvPiYjeGE7CQk8cGF0aCBjbGFzcz0ic3QyIiBkPSJNNy4zNiAyLjAzbC0xLjQyLjM1LS4yOS42MUwuMzkgNS45Mi4zNiA3Ljk3IDIuMTQgOGwuMDItMS4wNyA0LjMxLTIuNDUtLjAyIDEuNzMuODYuMDEuMDYtNC4xOXoiLz4mI3hhOwkJPGcgY2xhc3M9InN0MSI+JiN4YTsJCQk8cGF0aCBkPSJNNy4zNiAyLjAzTDMuOTUgMCAyLjIxLjk1bDMuNDQgMi4wNCAxLjcyLS45NnptLjcxIDExLjc2bC0xLjcyLS4wMi0uMDIgMS43Mi44MiAyLjQ4IDEuNDItLjEyLjI5LS44NSA1LjI3LTIuOTMuMDMtMi4wOS0xLjc5LS4wMi0uMDIgMS4xLTQuMyAyLjQ1eiIvPiYjeGE7CQkJPHBhdGggZD0iTTcuMTUgMTcuOTdsLTMuNDYgMS45NGgtLjA1bC0xLjY2LS45OSAzLjQ5LTEuOTYgMS42OCAxLjAxeiIvPiYjeGE7CQk8L2c+JiN4YTsJCTxwYXRoIGNsYXNzPSJzdDMiIGQ9Ik0xMC44OC4wOWgtLjA1TDcuMzcgMi4wM2wxLjY4IDEuMDEgMy40OS0xLjk2ek0xMC42MiAyMGgtLjA1bC0zLjQyLTIuMDNoMCAwIDBsMS43Mi0uOTYgMy40NCAyLjA0eiIvPiYjeGE7CQk8cGF0aCBjbGFzcz0ic3QyIiBkPSJNLjMzIDEzLjg5di0yaDEuNzZsLS4wMSAxLjA0IDQuMjUgMi41Ni4wMi0xLjcyLjg2LjAxLS4wNiA0LjE4LTEuNjgtMXoiLz4mI3hhOwk8L2c+JiN4YTsJPGNpcmNsZSBjbGFzcz0ic3QyIiBjeD0iMTMuMzgiIGN5PSIxMC4wNCIgcj0iMS4xNCIvPiYjeGE7CTxjaXJjbGUgY2xhc3M9InN0MiIgY3g9IjEuMTQiIGN5PSI5Ljg4IiByPSIxLjE0Ii8+JiN4YTsJPGNpcmNsZSBjbGFzcz0ic3QyIiBjeD0iNy4zMiIgY3k9IjcuOTkiIHI9IjEuMTQiLz4mI3hhOwk8Y2lyY2xlIGNsYXNzPSJzdDIiIGN4PSI3LjIzIiBjeT0iMTIiIHI9IjEuMTQiLz4mI3hhOzwvc3ZnPg==;" vertex="1" parent="1">
          <mxGeometry x="480" y="480" width="31" height="42" as="geometry" />
        </mxCell>
        <mxCell id="RSZpopW0nC8yCMwTYU6M-30" value="Dataprep by Trifacta" style="sketch=0;html=1;verticalAlign=top;labelPosition=center;verticalLabelPosition=bottom;align=center;spacingTop=-6;fontSize=11;fontStyle=1;fontColor=#999999;shape=image;aspect=fixed;imageAspect=0;image=data:image/svg+xml,PHN2ZyB4bWxucz0iaHR0cDovL3d3dy53My5vcmcvMjAwMC9zdmciIHhtbG5zOnY9Imh0dHBzOi8vdmVjdGEuaW8vbmFubyIgd2lkdGg9IjE4LjI3OTk5ODc3OTI5Njg3NSIgaGVpZ2h0PSIyMCIgdmlld0JveD0iMS4yNDYyOTA4MDM4OTEyNzAxZS04IDAgMTguMjc5OTk4Nzc5Mjk2ODc1IDIwIj4mI3hhOwk8c3R5bGUgdHlwZT0idGV4dC9jc3MiPiYjeGE7CS5zdDB7ZmlsbDojNjY5ZGY2O2ZpbGwtcnVsZTpldmVub2RkfSYjeGE7CS5zdDF7ZmlsbDojNDI4NWY0O30mI3hhOwkuc3Qye2ZpbGwtcnVsZTpldmVub2RkfSYjeGE7CTwvc3R5bGU+JiN4YTsJPHBhdGggY2xhc3M9InN0MCIgZD0iTTcuNjMgOWEuOTEuOTEgMCAxIDEtLjY0My4yNjdBLjkxLjkxIDAgMCAxIDcuNjMgOXptMC0uOGExLjcxIDEuNzEgMCAxIDAgMS43IDEuNzEgMS43IDEuNyAwIDAgMC0xLjctMS43MXpNMS43MiA5YS45MS45MSAwIDEgMS0uNjQzLjI2N0EuOTEuOTEgMCAwIDEgMS43MiA5em0wLS44YTEuNzEgMS43MSAwIDEgMCAxLjcgMS43MSAxLjcgMS43IDAgMCAwLTEuNy0xLjcxem0zLjA0IDYuMTFhLjkxLjkxIDAgMSAxIDAgMS44Mi45MS45MSAwIDEgMSAwLTEuODJ6bTAtLjc5YTEuNzEgMS43MSAwIDEgMCAxLjIuNSAxLjcgMS43IDAgMCAwLTEuMi0uNXptMC05LjczYS45MS45MSAwIDAgMS0uMDQgMS44MTkuOTEuOTEgMCAwIDEtLjktLjkwOS45Mi45MiAwIDAgMSAuOTQtLjkxem0wLS44YTEuNzEgMS43MSAwIDEgMCAxLjIuNUExLjcgMS43IDAgMCAwIDQuNzYgM3oiLz4mI3hhOwk8ZyBjbGFzcz0ic3QxIj4mI3hhOwkJPHBhdGggZD0iTTcuODEgMGgxLjY4djIwSDcuODF6Ii8+JiN4YTsJCTxwYXRoIGNsYXNzPSJzdDIiIGQ9Ik0xMy40IDIuODdIOC44OWEuMzcuMzcgMCAwIDAtLjMuNHYyLjgyYS4zNi4zNiAwIDAgMCAuMy4zOWg0LjUxYS4zNi4zNiAwIDAgMCAuMzEtLjM5VjMuMjhhLjM3LjM3IDAgMCAwLS4zMS0uNDF6bTQuMzIgNS4yOUg5LjRjLS4zMSAwLS41Ni4xOC0uNTYuMzl2Mi44MmMwIC4yMi4yNS40LjU2LjRoOC4zMmMuMzEgMCAuNTYtLjE5LjU2LS40VjguNTVjMC0uMjItLjI1LS4zOS0uNTYtLjM5em0tNS45MSA1LjI4SDguMjhjLS4xMyAwLS4yMy4xOC0uMjMuMzl2Mi44MmMwIC4yMi4xLjM5LjIzLjM5aDMuNTNjLjEzIDAgLjI0LS4xOC4yNC0uMzl2LTIuODJjLS4wMS0uMjItLjExLS4zOS0uMjQtLjM5eiIvPiYjeGE7CTwvZz4mI3hhOzwvc3ZnPg==;" vertex="1" parent="1">
          <mxGeometry x="40" y="564" width="38" height="42" as="geometry" />
        </mxCell>
        <mxCell id="RSZpopW0nC8yCMwTYU6M-31" value="Dataproc" style="sketch=0;html=1;verticalAlign=top;labelPosition=center;verticalLabelPosition=bottom;align=center;spacingTop=-6;fontSize=11;fontStyle=1;fontColor=#999999;shape=image;aspect=fixed;imageAspect=0;image=data:image/svg+xml,PHN2ZyB4bWxucz0iaHR0cDovL3d3dy53My5vcmcvMjAwMC9zdmciIHhtbG5zOnY9Imh0dHBzOi8vdmVjdGEuaW8vbmFubyIgd2lkdGg9IjE5LjM2MzAxMjMxMzg0Mjc3MyIgaGVpZ2h0PSIxNy45NzU1MjY4MDk2OTIzODMiIHZpZXdCb3g9IjAuMDAwNTYwMDI1NjI2MzI3ODQyNSAwLjYxOTYyOTc0MDcxNTAyNjkgMTkuMzYzMDEyMzEzODQyNzczIDE3Ljk3NTUyNjgwOTY5MjM4MyI+JiN4YTsJPHN0eWxlIHR5cGU9InRleHQvY3NzIj4mI3hhOwkuc3Qwe2ZpbGwtcnVsZTpldmVub2RkO30mI3hhOwkuc3Qxe2ZpbGw6I2FlY2JmYTt9JiN4YTsJLnN0MntmaWxsOiM0Mjg1ZjQ7fSYjeGE7CS5zdDN7ZmlsbDojNjY5ZGY2O30mI3hhOwk8L3N0eWxlPiYjeGE7CTxnIGNsYXNzPSJzdDAgc3QxIj4mI3hhOwkJPHBhdGggZD0iTTQuNjkgMTYuNGwxMC4xOS01Ljg5Ljk3IDEuNjktMTAuMTggNS44OHoiLz4mI3hhOwkJPHBhdGggZD0iTTcuNSA0LjR2MTAuMzVsLTEuODcgMS40MVY0LjR6Ii8+JiN4YTsJCTxwYXRoIGQ9Ik0xNy40OSAxMS4ybC0uOTcgMS42OC04Ljk2LTUuMTktLjI2LTIuMzZ6Ii8+JiN4YTsJPC9nPiYjeGE7CTxwYXRoIGNsYXNzPSJzdDAgc3QyIiBkPSJNMTIuMzkgOC4yNkw3LjMgNS4zM2wuMjYgMi4zNiAxLjUxLjg2YTQgNCAwIDAgMCAzLjMyLS4yOXoiLz4mI3hhOwk8cGF0aCBjbGFzcz0ic3QwIHN0MSIgZD0iTTYuMTMgNi4yOWgwYTMuNzggMy43OCAwIDAgMSA1LjE2NS01LjE2M0EzLjc4IDMuNzggMCAwIDEgOS40IDguMThhMy44IDMuOCAwIDAgMS0zLjI3LTEuODl6TTExIDMuNDlhMS44NCAxLjg0IDAgMCAwLTEuNTktLjkyQTEuODMgMS44MyAwIDAgMCA3LjU3IDQuNGExLjg0IDEuODQgMCAwIDAgMi43OTQgMS43MDZBMS44NCAxLjg0IDAgMCAwIDExLjI0IDQuNGExLjggMS44IDAgMCAwLS4yNC0uOTF6Ii8+JiN4YTsJPHBhdGggY2xhc3M9InN0MCBzdDIiIGQ9Ik01LjYzIDEwLjk0djUuMjJsMS44Ny0xLjQxdi0xLjYzYTMuMjkgMy4yOSAwIDAgMC0xLjg3LTIuMTh6bTUuNyAzLjg3bDQuNTItMi42MS0yLjIxLTEtMS4yNS44YTQuMjMgNC4yMyAwIDAgMC0xLjA2IDIuODZ6Ii8+JiN4YTsJPHBhdGggY2xhc3M9InN0MCBzdDEiIGQ9Ik0uNTEgMTYuN2gwYTMuNzcgMy43NyAwIDAgMSAxLjM4LTUuMTYgMy43MiAzLjcyIDAgMCAxIDIuODYtLjM4QTMuNzggMy43OCAwIDEgMSAuNTEgMTYuN3ptNC44NS0yLjgxQTEuNzkgMS43OSAwIDAgMCA0LjI1IDEzYTEuODMgMS44MyAwIDAgMC0yLjA2IDIuNjloMGMuMzI5LjU2Ni45MzQuOTE0IDEuNTg5LjkxM2ExLjgzIDEuODMgMCAwIDAgMS41ODUtLjkyYy4zMjYtLjU2OC4zMjQtMS4yNjctLjAwNC0xLjgzM3ptNi45NyAyLjQ3aDBhMy43OSAzLjc5IDAgMCAxIDAtMy43NyAzLjc5IDMuNzkgMCAwIDEgNS4xNi0xLjM5IDMuNzggMy43OCAwIDAgMS0xLjg5IDcuMDQ0IDMuNzggMy43OCAwIDAgMS0zLjI3LTEuODg0em00Ljg2LTIuODFhMiAyIDAgMCAwLS42Ny0uNjcgMS44NSAxLjg1IDAgMCAwLTIuNTEuNjggMS44NiAxLjg2IDAgMCAwIDAgMS44MyAxLjgzIDEuODMgMCAwIDAgMi4wNy44NSAxLjgyIDEuODIgMCAwIDAgMS4xMS0uODUgMS44OCAxLjg4IDAgMCAwIDAtMS44NHoiLz4mI3hhOwk8cGF0aCBjbGFzcz0ic3QwIHN0MyIgZD0iTTcuNDkgMTQuMTVsLTIuOCAyLjI1IDIuODYtMS42NWE0LjA3IDQuMDcgMCAwIDAtLjA2LS42ek04LjE1IDhsLS41OS0zLjZ2My4yOWEzLjQ3IDMuNDcgMCAwIDAgLjU5LjI3em01LjE1IDMuNDdsMy4yMiAxLjQxLTIuODYtMS42NGExLjY5IDEuNjkgMCAwIDAtLjM2LjIzeiIvPiYjeGE7PC9zdmc+;" vertex="1" parent="1">
          <mxGeometry x="40" y="400" width="42" height="40" as="geometry" />
        </mxCell>
        <mxCell id="RSZpopW0nC8yCMwTYU6M-32" value="Pub/Sub" style="sketch=0;html=1;verticalAlign=top;labelPosition=center;verticalLabelPosition=bottom;align=center;spacingTop=-6;fontSize=11;fontStyle=1;fontColor=#999999;shape=image;aspect=fixed;imageAspect=0;image=data:image/svg+xml,PHN2ZyB4bWxucz0iaHR0cDovL3d3dy53My5vcmcvMjAwMC9zdmciIHhtbG5zOnY9Imh0dHBzOi8vdmVjdGEuaW8vbmFubyIgd2lkdGg9IjE4LjMxOTk5OTY5NDgyNDIyIiBoZWlnaHQ9IjIwLjAwMDAwMTkwNzM0ODYzMyIgdmlld0JveD0iMCAwIDE4LjMxOTk5OTY5NDgyNDIyIDIwLjAwMDAwMTkwNzM0ODYzMyI+JiN4YTsJPHN0eWxlIHR5cGU9InRleHQvY3NzIj4mI3hhOwkuc3Qwe2ZpbGw6IzY2OWRmNjt9JiN4YTsJLnN0MXtmaWxsOiM0Mjg1ZjQ7fSYjeGE7CS5zdDJ7ZmlsbDojYWVjYmZhO30mI3hhOwk8L3N0eWxlPiYjeGE7CTxkZWZzPiYjeGE7CQk8ZmlsdGVyIGlkPSJBIiB4PSI0LjY0IiB5PSI0LjE5IiB3aWR0aD0iMTQuNzMiIGhlaWdodD0iMTIuNzYiIGZpbHRlclVuaXRzPSJ1c2VyU3BhY2VPblVzZSIgY29sb3ItaW50ZXJwb2xhdGlvbi1maWx0ZXJzPSJzUkdCIj4mI3hhOwkJCTxmZUZsb29kIGZsb29kLWNvbG9yPSIjZmZmIi8+JiN4YTsJCQk8ZmVCbGVuZCBpbj0iU291cmNlR3JhcGhpYyIvPiYjeGE7CQk8L2ZpbHRlcj4mI3hhOwkJPG1hc2sgaWQ9IkIiIHg9IjQuNjQiIHk9IjQuMTkiIHdpZHRoPSIxNC43MyIgaGVpZ2h0PSIxMi43NiIgbWFza1VuaXRzPSJ1c2VyU3BhY2VPblVzZSI+JiN4YTsJCQk8Y2lyY2xlIGN4PSIxMiIgY3k9IjEyLjIzIiByPSIzLjU4IiBmaWx0ZXI9InVybCgjQSkiLz4mI3hhOwkJPC9tYXNrPiYjeGE7CTwvZGVmcz4mI3hhOwk8ZyBjbGFzcz0ic3QwIj4mI3hhOwkJPGNpcmNsZSBjeD0iMTYuMTMiIGN5PSI2LjIxIiByPSIxLjcyIi8+JiN4YTsJCTxjaXJjbGUgY3g9IjIuMTkiIGN5PSI2LjIxIiByPSIxLjcyIi8+JiN4YTsJCTxjaXJjbGUgY3g9IjkuMTYiIGN5PSIxOC4yOCIgcj0iMS43MiIvPiYjeGE7CTwvZz4mI3hhOwk8ZyBtYXNrPSJ1cmwoI0IpIiB0cmFuc2Zvcm09InRyYW5zbGF0ZSgtMi44NCAtMikiPiYjeGE7CQk8cGF0aCB0cmFuc2Zvcm09Im1hdHJpeCguNSAtLjg3IC44NyAuNSAtNC41OSAyMC41MykiIGQ9Ik0xNC42OSAxMC4yMmgxLjU5djguMDRoLTEuNTl6IiBjbGFzcz0ic3QxIi8+JiN4YTsJCTxwYXRoIHRyYW5zZm9ybT0icm90YXRlKDMzMCA4LjUyMyAxNC4yNDQpIiBkPSJNNC40OSAxMy40NWg4LjA0djEuNTlINC40OXoiIGNsYXNzPSJzdDEiLz4mI3hhOwkJPHBhdGggZD0iTTExLjIgNC4xOWgxLjU5djguMDRIMTEuMnoiIGNsYXNzPSJzdDEiLz4mI3hhOwk8L2c+JiN4YTsJPGcgY2xhc3M9InN0MiI+JiN4YTsJCTxjaXJjbGUgY3g9IjkuMTYiIGN5PSIxMC4yMyIgcj0iMi43OCIvPiYjeGE7CQk8Y2lyY2xlIGN4PSIyLjE5IiBjeT0iMTQuMjUiIHI9IjIuMTkiLz4mI3hhOwkJPGNpcmNsZSBjeD0iMTYuMTMiIGN5PSIxNC4yNSIgcj0iMi4xOSIvPiYjeGE7CQk8Y2lyY2xlIGN4PSI5LjE2IiBjeT0iMi4xOSIgcj0iMi4xOSIvPiYjeGE7CTwvZz4mI3hhOzwvc3ZnPg==;" vertex="1" parent="1">
          <mxGeometry x="120" y="398" width="38" height="42" as="geometry" />
        </mxCell>
        <mxCell id="RSZpopW0nC8yCMwTYU6M-33" value="Datastream" style="sketch=0;html=1;verticalAlign=top;labelPosition=center;verticalLabelPosition=bottom;align=center;spacingTop=-6;fontSize=11;fontStyle=1;fontColor=#999999;shape=image;aspect=fixed;imageAspect=0;image=data:image/svg+xml,PHN2ZyB4bWxucz0iaHR0cDovL3d3dy53My5vcmcvMjAwMC9zdmciIGlkPSJzdmczMjM0NyIgdmVyc2lvbj0iMS4xIiB2aWV3Qm94PSIwIDAgMjY1LjgzODA0IDI0NS4zMDU1NCIgaGVpZ2h0PSIyNDUuMzA1NTRtbSIgd2lkdGg9IjI2NS44MzgwNG1tIj4mI3hhOyAgJiN4YTsgIDxkZWZzIGlkPSJkZWZzMzIzNDQiLz4mI3hhOyAgPGcgdHJhbnNmb3JtPSJ0cmFuc2xhdGUoMjYuMDAxOTQ1LC0yNC45MTAzOTEpIiBpZD0ibGF5ZXIxIj4mI3hhOyAgICA8cGF0aCBkPSJtIDQyLjE3OTY4NywzMy45Nzg1MTYgYyAtMC42NDE1MDMsMC4wMTg2IC0xLjI4NjQ4NywwLjAzODggLTEuOTM1MzIzLDAuMDU5OTIgMi4wMTg1ODUsOC44ODg3MiAyLjQ1ODk0MSwxNi40NTc5NjYgLTAuMDk3MzMsMjYuMDYyNzY0IDEyLjI5MTAzNywtMC4zNDA5NzUgMTkuMjU0OTQyLC0wLjQ0NTY3MyAyNi44NzQ0NDksMi45Mzc4NjYgbCAwLjAxOTUzLDAuMDA3OCAwLjAxOTUzLDAuMDA5OCBjIDYuMzEwNzgzLDIuNzc3OTA4IDE0LjMyNzI4NSwxMi42MDI0NyAyMS44NjcxODcsMjYuMTcxODc1IDcuNTM5OTAzLDEzLjU2OTM5OSAxNC43MTAwOCwyOS44NzM2NzkgMjQuMDc4MTMsNDMuNjQwNjE5IGwgMC4yOTEwMiwwLjQyNzczIDAuMzIyMjYsMC40MDIzNSBjIDkuODM1NCwxMi4yMzgxNSAyMy40ODA0MiwyMi43MDczNiA0OS4wODIzOCwyNi45Njg4MSAtMi4wODM5NiwtOS41MDI2NSAtMi4yMTQ2NywtMTYuMjA1NzYgLTAuMDQwOSwtMjYuMjk3OTIgLTE3LjE1OTg5LC0zLjAxOTUgLTIwLjk5MjI3LC03LjMxNTc2IC0yOC40MDg2NCwtMTYuNTMyMjQgQyAxMjcuMDIwNSwxMDcuMDkyODMgMTE5Ljg5NjEzLDkxLjQyODc1MiAxMTEuNjU2MjUsNzYuNTk5NjA5IDEwMy4zMjUyNyw2MS42MDY1MTYgOTMuOTU5MzUxLDQ2LjQ5OTg0MSA3Ny41NTI3MzQsMzkuMjY5NTMxIDY1LjMzNTEzMSwzMy44NDk2MzIgNTQuMzg3OTc1LDMzLjYyNDUwMyA0Mi4xNzk2ODcsMzMuOTc4NTE2IFogTSAyMzkuODM2MSwxNDcuMjkzNSBhIDI3LjU3ODE5NywyNy41NzgxOTcgMCAwIDEgLTI3LjU3ODIsMjcuNTc4MiAyNy41NzgxOTcsMjcuNTc4MTk3IDAgMCAxIC0yNy41NzgxOSwtMjcuNTc4MiAyNy41NzgxOTcsMjcuNTc4MTk3IDAgMCAxIDI3LjU3ODE5LC0yNy41NzgxOSAyNy41NzgxOTcsMjcuNTc4MTk3IDAgMCAxIDI3LjU3ODIsMjcuNTc4MTkgeiBNIDE4LjA0NjY0MSwyNDguMzU3ODggQSAyMS44NTgwNjEsMjEuODU4MDYxIDAgMCAxIC0zLjgxMTQxOTUsMjcwLjIxNTk0IDIxLjg1ODA2MSwyMS44NTgwNjEgMCAwIDEgLTI1LjY2OTQ4LDI0OC4zNTc4OCAyMS44NTgwNjEsMjEuODU4MDYxIDAgMCAxIC0zLjgxMTQxOTUsMjI2LjQ5OTgyIDIxLjg1ODA2MSwyMS44NTgwNjEgMCAwIDEgMTguMDQ2NjQxLDI0OC4zNTc4OCBaIE0gMTcuNzc4MjYzLDQ2Ljc2ODQ1MiBBIDIxLjg1ODA2MSwyMS44NTgwNjEgMCAwIDEgLTQuMDc5Nzk3Nyw2OC42MjY1MTMgMjEuODU4MDYxLDIxLjg1ODA2MSAwIDAgMSAtMjUuOTM3ODU5LDQ2Ljc2ODQ1MiAyMS44NTgwNjEsMjEuODU4MDYxIDAgMCAxIC00LjA3OTc5NzcsMjQuOTEwMzkxIDIxLjg1ODA2MSwyMS44NTgwNjEgMCAwIDEgMTcuNzc4MjYzLDQ2Ljc2ODQ1MiBaIE0gMTcuNzE0MTc2LDE0Ny42NTM3OSBBIDIxLjg1ODA2MSwyMS44NTgwNjEgMCAwIDEgLTQuMTQzODg0NywxNjkuNTExODUgMjEuODU4MDYxLDIxLjg1ODA2MSAwIDAgMSAtMjYuMDAxOTQ1LDE0Ny42NTM3OSAyMS44NTgwNjEsMjEuODU4MDYxIDAgMCAxIC00LjE0Mzg4NDcsMTI1Ljc5NTczIDIxLjg1ODA2MSwyMS44NTgwNjEgMCAwIDEgMTcuNzE0MTc2LDE0Ny42NTM3OSBaIiBzdHlsZT0iY29sb3I6IzAwMDAwMDtvcGFjaXR5OjE7ZmlsbDojMzM1YmJiO2ZpbGwtb3BhY2l0eToxOy1pbmtzY2FwZS1zdHJva2U6bm9uZSIgaWQ9InBhdGgzMjg5NyIvPiYjeGE7ICAgIDxwYXRoIGQ9Im0gMTEyLjk3NzA4LDE2NS4zNDI3IGMgLTUuMDc0Niw3LjY0NjM0IC05LjMyODY3LDE0LjY3MzE5IC0xMi41MTQxOSwyMC45MTkwMiBsIC0wLjEyNSwwLjI0NjA5IC0wLjExNTIzLDAuMjUxOTYgYyAtOS4yMTU2NzYsMjAuMTM4MDEgLTE5LjUyMjQ5MSwzNi41ODk1NiAtMjkuODI4MTI5LDQzLjMwMDc4IC0xMy4xNjMxNTYsNi44NjM1MyAtMTkuODk5MzY4LDUuNTEzMDEgLTMwLjM2NDgxNSw0Ljk2MTA2IDMuMTk2MDQ0LDExLjgwNjMzIDIuNDQ0NTA2LDE5LjExMDMxIDAuMTQyNDQ4LDI2LjA1MzIxIDkuNTc3ODUsMC41MzIzNiAyNC45Mjg4MzksMS4yNzQ0MiA0Mi45NTA4ODMsLTguMzA3MjQgbCAwLjQyNzczNCwtMC4yMjY1NiAwLjQxMDE1NiwtMC4yNTk3NyBDIDEwMi44MjIzLDI0MC4zNjc4IDExMy43ODE1MiwyMTkuNTM4OTEgMTIzLjYyNSwxOTguMDc2MTcgYyAyLjYwNjk3LC01LjExMTQ2IDYuNjc0NTEsLTExLjg1MTUgMTEuNzEsLTE5LjM5NDg0IC05LjA3NDY4LC0zLjA3Nzk1IC0xNi45NDA4MSwtOC42MDk4NiAtMjIuMzU3OTIsLTEzLjMzODYzIHogbSAtNzIuODE4NSwtNC42MTUzOSA0Ni41MTQ0NzMsMC4wMTgxIDguOTkxMTU4LC0xMy4yODE0MiAtOC40MTMyODIsLTEyLjcxODM2IC00Ny4wOTI0MDYsLTAuMDE4MyBjIDIuODEzNDc4LDcuMzYzOTggMi4yMjQ4MjIsMTkuNjM5MTEgNS43ZS01LDI2IHoiIHN0eWxlPSJjb2xvcjojMDAwMDAwO29wYWNpdHk6MTtmaWxsOiM3NjllZjU7ZmlsbC1vcGFjaXR5OjE7LWlua3NjYXBlLXN0cm9rZTpub25lIiBpZD0icGF0aDMyOTAxIi8+JiN4YTsgIDwvZz4mI3hhOzwvc3ZnPg==;" vertex="1" parent="1">
          <mxGeometry x="202" y="398" width="42" height="39" as="geometry" />
        </mxCell>
        <mxCell id="RSZpopW0nC8yCMwTYU6M-34" value="Looker" style="sketch=0;html=1;verticalAlign=top;labelPosition=center;verticalLabelPosition=bottom;align=center;spacingTop=-6;fontSize=11;fontStyle=1;fontColor=#999999;shape=image;aspect=fixed;imageAspect=0;image=data:image/svg+xml,PHN2ZyB4bWxucz0iaHR0cDovL3d3dy53My5vcmcvMjAwMC9zdmciIGlkPSJzdmc4OTgwMSIgdmVyc2lvbj0iMS4xIiB2aWV3Qm94PSIwIDAgMjA4LjA1NjU1IDMzNC42MTMxNiIgaGVpZ2h0PSIzMzQuNjEzMTZtbSIgd2lkdGg9IjIwOC4wNTY1NW1tIj4mI3hhOyAgJiN4YTsgIDxkZWZzIGlkPSJkZWZzODk3OTgiLz4mI3hhOyAgPGcgdHJhbnNmb3JtPSJ0cmFuc2xhdGUoLTQuMjQ2MjUyNCwxNS42NzE5MTEpIiBpZD0ibGF5ZXIxIj4mI3hhOyAgICA8cGF0aCBpZD0icGF0aDkxODAyIiB0cmFuc2Zvcm09InNjYWxlKDAuMjY0NTgzMzMpIiBkPSJtIDQwOS4yMjI2Niw0MTkuMDk5NjEgYyAtMzYuNjA4MTEsMCAtNzIuMDc2NjcsNS4wNzUzIC0xMDUuNzUzOTEsMTQuNTMxMjUgbCA0OS4wMzUxNiwxMjAuMDQxMDIgYyAxOC4yNjE3MiwtMy45Mzg5OSAzNy4yMjE5NiwtNi4wNjgzNiA1Ni43MTg3NSwtNi4wNjgzNiAxNDYuOTM1MTQsMCAyNjQuNjc3NzMsMTE3LjczNDc3IDI2NC42Nzc3MywyNjQuNjY5OTIgMCwxNDYuOTM1MTQgLTExNy43NDI1OSwyNjQuNjY5OTYgLTI2NC42Nzc3MywyNjQuNjY5OTYgLTE0Ni45MzUxNiwwIC0yNjQuNjY5OTEsLTExNy43MzQ4MiAtMjY0LjY2OTkzLC0yNjQuNjY5OTYgMCwtOTkuMTg3NjMgNTMuNjg5ODMsLTE4NS4wMDU5NiAxMzMuNzU1ODYsLTIzMC4zNDc2NiBMIDIyOS42MjY5NSw0NjIuNzUgQyAxMDMuMDI0Nyw1MjguMjI0NzQgMTYuMDQ4ODI3LDY2MC41MDUyMyAxNi4wNDg4MjgsODEyLjI3MzQ0IGMgMi4zZS01LDIxNi4zODM3NiAxNzYuNzkwMDYyLDM5My4xNzM4NiAzOTMuMTczODMyLDM5My4xNzM4NiAyMTYuMzgzNzMsMCAzOTMuMTgxNjQsLTE3Ni43OTAxIDM5My4xODE2NCwtMzkzLjE3Mzg2IDNlLTUsLTIxNi4zODM3OCAtMTc2Ljc5Nzg3LC0zOTMuMTczODMgLTM5My4xODE2NCwtMzkzLjE3MzgzIHoiIHN0eWxlPSJjb2xvcjojMDAwMDAwO29wYWNpdHk6MTtmaWxsOiM1OTg2ZjI7ZmlsbC1vcGFjaXR5OjE7c3Ryb2tlLXdpZHRoOjMuNzc5NTM7c3Ryb2tlLWxpbmVqb2luOnJvdW5kOy1pbmtzY2FwZS1zdHJva2U6bm9uZSIvPiYjeGE7ICAgIDxwYXRoIGQ9Im0gMTg5Ljk0MzM2LDg2LjI1IGMgLTk1LjEzMDMzMSwwIC0xNzMuMTc5Njg4LDc4LjA1NTIyIC0xNzMuMTc5Njg4LDE3My4xODU1NSAtNmUtNiw5NS4xMzAzMyA3OC4wNDkzNTMsMTczLjE3OTY4IDE3My4xNzk2ODgsMTczLjE3OTY4IDkuMDE2MTgsMCAxNy44NzU4LC0wLjcwODMyIDI2LjUzMzIsLTIuMDU4NTkgbCAtMzQuODI4MTIsLTg1LjI2NTYyIGMgLTQ0LjE1NzMsLTQuMDg2NjkgLTc3Ljk1NTA4LC00MC41MDcwNSAtNzcuOTU1MDgsLTg1Ljg1NTQ3IDAsLTQ4LjE1MDM5IDM4LjA5OTYyLC04Ni4yNTU4NiA4Ni4yNSwtODYuMjU1ODYgMTMuMTU5NzcsMCAyNS41NTg4OCwyLjg2MjQ2IDM2LjY0NDUzLDcuOTgyNDIgbCA2NC41NTQ2OSwtNjEuOTE5OTIgQyAyNjIuNjA4MzcsOTguNTMzOTEgMjI3LjYyOTI5LDg2LjI1IDE4OS45NDMzNiw4Ni4yNSBaIG0gMTM4Ljg4ODY3LDcwLjE2MjExIC02My40Mjc3Myw2MC44MzU5NCBjIDYuODc2MzgsMTIuNDI2NzggMTAuNzg5MDYsMjYuNzg4MTUgMTAuNzg5MDYsNDIuMTg3NSAwLDIxLjc2NzEyIC03LjgwNDE1LDQxLjQ2NTQgLTIwLjc4NTE2LDU2LjUzMzIgbCAzNC41MjM0NCw4NC41MTk1MyBjIDQ0LjE3Mzg3LC0zMS40ODc1MSA3My4xOTE0MSwtODMuMDc4OTIgNzMuMTkxNDEsLTE0MS4wNTI3MyAwLC0zOC40ODM1NSAtMTIuNzgyLC03NC4xNjUzMiAtMzQuMjkxMDIsLTEwMy4wMjM0NCB6IiB0cmFuc2Zvcm09InNjYWxlKDAuMjY0NTgzMzMpIiBzdHlsZT0iY29sb3I6IzAwMDAwMDtvcGFjaXR5OjE7ZmlsbDojNmY5OGY0O2ZpbGwtb3BhY2l0eToxO3N0cm9rZS13aWR0aDozLjc3OTUzO3N0cm9rZS1saW5lam9pbjpyb3VuZDstaW5rc2NhcGUtc3Ryb2tlOm5vbmUiIGlkPSJwYXRoOTE3OTgiLz4mI3hhOyAgICA8cGF0aCBpZD0icGF0aDg5OTI4IiB0cmFuc2Zvcm09InNjYWxlKDAuMjY0NTgzMzMpIiBkPSJtIDQwNi4xMzY3MiwtNTkuMjMyNDIyIGMgLTU4LjgxNTQ3LDhlLTYgLTEwNy4xMDM1Miw0OC4yODgwNDUgLTEwNy4xMDM1MiwxMDcuMTAzNTE2IDAsMTguNDk0NDUxIDQuNzgxMDEsMzUuOTQ1MDE3IDEzLjE1NjI1LDUxLjE4MzU5NCBsIDQ0LjMxMjUsLTQyLjUwMzkwNyBjIC0wLjQ3NTY3LC0yLjgyMDc3NSAtMC43NzUzOSwtNS43MDc1NjQgLTAuNzc1MzksLTguNjc5Njg3IDAsLTI4LjE3NjM4IDIyLjIzMzc4LC01MC40MTAxNTI1IDUwLjQxMDE2LC01MC40MTAxNTY1IDI4LjE3NjM4LC00ZS02IDUwLjQxMDE1LDIyLjIzMzc3MDUgNTAuNDEwMTYsNTAuNDEwMTU2NSAwLDI4LjE3NjM4MSAtMjIuMjMzNzgsNTAuNDEyMTEzIC01MC40MTAxNiw1MC40MTIxMDkgLTUuMDY4NjksLTEwZS03IC05LjkzNDE3LC0wLjc0NTYzMSAtMTQuNTIzNDQsLTIuMDg5ODQ0IGwgLTQzLjM2MTMzLDQxLjU5MTgwMSBjIDE2LjczMjIzLDEwLjg0Nzk1IDM2LjYxMTIzLDE3LjE4OTQ1IDU3Ljg4NDc3LDE3LjE4OTQ1IDU4LjgxNTQ5LDEwZS02IDEwNy4xMDM1MSwtNDguMjg4MDQgMTA3LjEwMzUxLC0xMDcuMTAzNTE2IDAsLTU4LjgxNTQ4MyAtNDguMjg4MDIsLTEwNy4xMDM1MjMgLTEwNy4xMDM1MSwtMTA3LjEwMzUxNiB6IiBzdHlsZT0iY29sb3I6IzAwMDAwMDtvcGFjaXR5OjE7ZmlsbDojZDZlM2ZiO2ZpbGwtb3BhY2l0eToxO3N0cm9rZS13aWR0aDozLjc3OTUzO3N0cm9rZS1saW5lam9pbjpyb3VuZDstaW5rc2NhcGUtc3Ryb2tlOm5vbmUiLz4mI3hhOyAgPC9nPiYjeGE7PC9zdmc+;" vertex="1" parent="1">
          <mxGeometry x="280" y="398" width="26" height="42" as="geometry" />
        </mxCell>
        <mxCell id="RSZpopW0nC8yCMwTYU6M-36" value="Google&#xa;Data Studio" style="sketch=0;html=1;verticalAlign=top;labelPosition=center;verticalLabelPosition=bottom;align=center;spacingTop=-6;fontSize=11;fontStyle=1;fontColor=#999999;shape=image;aspect=fixed;imageAspect=0;image=data:image/svg+xml,PHN2ZyB4bWxucz0iaHR0cDovL3d3dy53My5vcmcvMjAwMC9zdmciIGlkPSJzdmcxMDczNDEiIHZlcnNpb249IjEuMSIgdmlld0JveD0iMCAwIDI3NS45ODY2OSAyNTIuNDI5NTMiIGhlaWdodD0iMjUyLjQyOTUzbW0iIHdpZHRoPSIyNzUuOTg2NjltbSI+JiN4YTsgICYjeGE7ICA8ZGVmcyBpZD0iZGVmczEwNzMzOCIvPiYjeGE7ICA8ZyB0cmFuc2Zvcm09InRyYW5zbGF0ZSgzMi40NTE1MzMsLTIwLjk0NjAxKSIgaWQ9ImxheWVyMSI+JiN4YTsgICAgPHBhdGggZD0ibSAxMDEuNjgwMDksMjczLjM3NTU0IGMgLTE2LjQ1MjEyLDAgLTMwLjkxMzQyMiwtMTQuMTc3MzIgLTMwLjkxMzQyMiwtMzQuMjM1OSAwLC0xOS4xNzQ5OSAxNS4xNTE1MjIsLTMzLjY1ODA3IDMzLjUxMzYxMiwtMzMuNjU4MDcgaCAxMDQuODc0NTEgdiA2Ny44OTM5NyB6IE0gLTEuNTM4MTA0NiwxODEuODUzMzYgYyAtMTYuNDUyMTI2NCwwIC0zMC45MTM0Mjg0LC0xNC4xNzczMiAtMzAuOTEzNDI4NCwtMzQuMjM1ODkgMCwtMTkuMTc1IDE1LjE1MTUxOSwtMzMuNjU4MDggMzMuNTEzNjE4NCwtMzMuNjU4MDggSCAxMDUuOTM2NiB2IDY3Ljg5Mzk3IHogTSAxMDEuNjgwMSw4OC44Mzk5OCBjIC0xNi40NTIxMzEsMCAtMzAuOTEzNDMzLC0xNC4xNzczMTcgLTMwLjkxMzQzMywtMzQuMjM1ODk1IDAsLTE5LjE3NDk5NCAxNS4xNTE1MTksLTMzLjY1ODA3NSAzMy41MTM2MjMsLTMzLjY1ODA3NSBIIDIwOS4xNTQ4IHYgNjcuODkzOTcgeiIgc3R5bGU9Im9wYWNpdHk6MTtmaWxsOiM3NjllZjU7ZmlsbC1vcGFjaXR5OjE7c3Ryb2tlOm5vbmU7c3Ryb2tlLXdpZHRoOjAuMjY0NTgzcHg7c3Ryb2tlLWxpbmVjYXA6YnV0dDtzdHJva2UtbGluZWpvaW46bWl0ZXI7c3Ryb2tlLW9wYWNpdHk6MSIgaWQ9InBhdGgxMDc2MTAtMyIvPiYjeGE7ICAgIDxwYXRoIGQ9Im0gMjQzLjUzNTE1LDIzOS40Mjg1NSBjIDAsMTguOTg3NzUgLTE1LjM5MjYxLDMzLjk0Njk5IC0zNC4zODAzNiwzMy45NDY5OSAtMTguOTg3NzQsMCAtMzQuMzgwMzQsLTE0Ljk1OTI0IC0zNC4zODAzNCwtMzMuOTQ2OTkgMCwtMTguOTg3NzQgMTUuMzkyNiwtMzMuOTQ2OTggMzQuMzgwMzQsLTMzLjk0Njk4IDE4Ljk4Nzc1LC0xZS01IDM0LjM4MDM2LDE0Ljk1OTI0IDM0LjM4MDM2LDMzLjk0Njk4IHogTSAxNDAuMzE2OTYsMTQ3LjkwNjM4IGMgMCwxOC45ODc3NCAtMTUuMzkyNjEsMzMuOTQ2OTkgLTM0LjM4MDM2LDMzLjk0Njk4IC0xOC45ODc3NDUsMCAtMzQuMzgwMzU1LC0xNC45NTkyNCAtMzQuMzgwMzU1LC0zMy45NDY5OCAwLC0xOC45ODc3NSAxNS4zOTI2MSwtMzMuOTQ2OTkgMzQuMzgwMzU1LC0zMy45NDY5OSAxOC45ODc3NSwwIDM0LjM4MDM2LDE0Ljk1OTI0IDM0LjM4MDM2LDMzLjk0Njk5IHogTSAyNDMuNTM1MTUsNTQuODkyOTk0IGMgMCwxOC45ODc3NDcgLTE1LjM5MjYxLDMzLjk0Njk5IC0zNC4zODAzNiwzMy45NDY5ODYgLTE4Ljk4Nzc0LC0xMGUtNyAtMzQuMzgwMzQsLTE0Ljk1OTI0MyAtMzQuMzgwMzQsLTMzLjk0Njk4NiAwLC0xOC45ODc3NDMgMTUuMzkyNiwtMzMuOTQ2OTgzIDM0LjM4MDM0LC0zMy45NDY5ODQgMTguOTg3NzUsLTVlLTYgMzQuMzgwMzYsMTQuOTU5MjM3IDM0LjM4MDM2LDMzLjk0Njk4NCB6IiBzdHlsZT0ib3BhY2l0eToxO2ZpbGw6IzQwNzVlNjtmaWxsLW9wYWNpdHk6MTtzdHJva2Utd2lkdGg6MjE7c3Ryb2tlLWxpbmVqb2luOnJvdW5kIiBpZD0icGF0aDEwNzYzNC00Ii8+JiN4YTsgIDwvZz4mI3hhOzwvc3ZnPg==;" vertex="1" parent="1">
          <mxGeometry x="360" y="402" width="42" height="38" as="geometry" />
        </mxCell>
        <mxCell id="RSZpopW0nC8yCMwTYU6M-39" value="Dataform" style="shape=image;verticalLabelPosition=bottom;labelBackgroundColor=none;verticalAlign=top;aspect=fixed;imageAspect=0;image=data:image/png,iVBORw0KGgoAAAANSUhEUgAAAgAAAAIACAYAAAD0eNT6AAAACXBIWXMAAAsSAAALEgHS3X78AAAfTklEQVR4nO3dvW5k57Um4CVDDAgHrTvoPlfQPQDzpuELUPMKmmbC0DypE20lTg8VMqHYV1CtbBJDZE6Mu8fBJAZM4swZwMaBjijbKEN1JE5Qm1ar1T9k7apa+/u+5wEIGZJgvOqA6/3W/vvg+vo6AIC2/Cw7AACwfgoAADRIAQCABikAANAgBQAAGqQAAECDFAAAaJACAAANUgAAoEEKAAA0SAEAgAYpAADQIAUAABqkAABAgxQAAGiQAgAADVIAAKBBCgAANEgBAIAGKQAA0CAFAAAapAAAQIMUAABokAIAAA1SAACgQQoAADRIAQCABikAANAgBQAAGqQAAECDFAAAaJACAAANUgAAoEEKAAA0SAEAgAYpAADQIAUAABqkAABAgxQAAGiQAgAADVIAAKBBCgAANEgBAIAGKQAA0CAFAAAapAAAQIM+zA4w1OR8tp2doSAXO1sbF9khAMj3wfX1dXaGQSbns7L/A3JdRcSL/n9fvP6jLADUSwHgfc7ih1JwGhEvdrY2vk7MA8ASKAAs4jLmZeA05oXgxTv/bQBGRwFgGa4i4nn0pcClA4DxUwBYhZcRcRLzMmA7ADBCCgCrdhnzMnBiMwAwHgoA6/QyIg4j4rkbCQFyKQBkeRbzrcBpdhCAFikAZHsZEYc7WxsnyTkAmqIAMBY39wocujwAsHoKAGNzFfP7BBQBgBVSABgrRQBghXwNkLG6FxGfRMTF5Hy2m5wFoDo2AJTiMiJ2PTUAsBw2AJTifkR8OTmfnU7OZw+ywwCUTgGgNI8j4k+T81mXHQSgZC4BULKXEXHgsgDA3dkAULKHMb8scJgdBKA0NgDU4mXMbxL09UGAW7ABoBYPI+L3k/PZQXYQgBLYAFCjs4h44gVCAG9nA0CNHkfEi8n57FF2EICxUgCo1f2YXxLYzQ4CMEYKALX7fHI+O8kOATA27gGgFe4LAHiFDQCteBwRXiMM0FMAaMnDcHMgQEQoALTnXsw3AUoA0DQFgBbdlIDt7CAAWRQAWnUv5t8R2M0OApBBAaB1nysBQIsUAJiXgO3sEADrpADA3HM3BgItUQBgztMBQFMUAPjBTQl4kB0EYNUUAPixezG/HPBRdhCAVVIA4KceRsRpdgiAVVIA4M0e+oogUDMFAN7uqXcEALVSAODdPvdkAFAjBQDe79RNgUBtPswOsARn2QEK8yjmd7pze/ci4nlEbCfnAFiaD66vr7MzkKA/0T6KiAf9z6P+535eqtH7dGdro8sOAbAMCgA/0heD7Vd+HibGGaP/sbO18SI7BMBQCgDv1L8VbzsinkTEx6lhxuEyIh7tbG18nR0EYAgFgFvrtwNPIuIg2t4MfLaztXGQHQJgCAWAhfSbgYOI2I02byr8xc7Wxml2CIBFKQAM0m8FbopASzcQuhQAFE0BYGn6t+YdRjsbAU8FAMVSAFiqVzYCB9FGEfBUAFAkBYCV6O8ROIz6nxw429na2M4OAXBXCgArNTmfbUfESdR9f8CvdrY2TrJDANyFAsDK9ZcFuoj4dXKUVXFDIFAcHwNi5Xa2Nr7un5v/RURcZedZgfsxv+cBoBg2AKxVvw14HhGPs7Ms2VVEPLAFAEphA8Ba9duA7Yj4LDvLkt0LWwCgIDYApOnfG/B5do4l+5edrY2L7BAA72MDQJr+zvna7gvosgMA3IYNAOkm57NHEXEa9bw4yBYAGD0bANL1b9Lbjno2AV12AID3sQFgNCrbBNgCAKNmA8BoVLYJOMwOAPAuNgCMTv/64C+zcyzBL3a2Nk6zQwC8iQ0Ao9MPzV9l51iCLjsAwNsoAIxS/4hg6S8LetxvMwBGRwFgtPrvB5xl5xioyw4A8CYKAGP3JOZf2yuVLQAwSgoAo9Z/XGc3O8dAJ9kBAF6nADB6/U2Bn2bnGOB+/90DgNHwGCDFmJzPXkTEw+wcC7rc2dp4kB0C4IYNACXZzQ4wgC0AMCoKAMXo3xRY8qOBXXYAgBsKAKXpotxXBd+fnM8OskMARLgHgAL1q/TPs3Ms6CoiHvRPNwCksQGgOP1bAkt9N8C9iLAFANIpAJSq5CF6MDmffZQdAmibAkCRdrY2nke5rwm2BQDSKQCUrMsOMIAtAJBKAaBY/RsCS94CdNkhgHYpAJSuyw4wwK8n57MH2SGANikAFK3wLUBE2QUGKJgCQA1KvqHuqS0AkEEBoHj9K4KfZecYoMsOALRHAaAWXXaAAWwBgLVTAKjCztbGRZS9BTjJDgC0RQGgJl12gAEeT85n29khgHYoAFSjgi1Alx0AaIcCQG0OotzPBdsCAGujAFCV/jO7h9k5BuiyAwBtUACo0WHYAgC8kwJAdSrYApxkBwDqpwBQq5K3APcn57Pd7BBA3RQAqlTBFqDLDgDU7YPr6+vsDLAyk/PZRUTcz86xoF/tbG2cZIcA6mQDQO267AADdNkBgHopAFStP0FfJsdY1P3J+azLDgHUSQGgBV12gAEOJuezj7JDAPVRAKhe4VuAezF/uyHAUikAtKLkIWoLACydAkATdrY2nkfEWXaOBdkCAEunANCSLjvAALYAwFIpADRjZ2vjNMreApT8YiNgZBQAWtNlBxjg6eR89iA7BFCH4t8EuH883c7OkOTiaG/zIjtEiSbns9OIeJydY0HPdrY2drNDAOX7MDvAEnyZHSDJp1H2aTbTbkT8KTvEgp5OzmfdztbGRXYQoGwuAdCcfng+y84xQJcdACifAkCruuwAAzydnM8eZYcAyqYA0KQKtgCeCAAGUQBoWZcdYIDHk/PZdnYIoFwKAM3qtwCfZecYoMsOAJRLAaB1XURcZYdYkC0AsDAFgKbtbG18HWVfT++yAwBlUgBgXgBK3gI8yQ5Bjl/+9u++D8HCFACaV8EWoOTsLKgf/qe//O3fT7KzUCYFAOZK3gLcn5zPdrNDsD43wz8iHkbEUyWARSgAEP/cAnTZOQbosgOwHq8N/xtKAHemAEBvZ2vjMCIus3MsyBagAW8Z/jeUAO5EAYAf67IDDNBlB2B13jP8bygB3JoCAK/Y2do4ibK3AF12CJbvlsP/hhLArSgA8FNddoABDibnM4+GVeSOw/+GEsB7KQDwmsK3APci4iA7BMux4PC/oQTwTgoAvNludoABbAEqMHD431ACeCsFAN5gZ2vjNCLOsnMsyBagcEsa/jeUAN5IAYC367IDDGALUKglD/8bSgA/oQDAW1SwBfCK4MKsaPjfUAL4EQUA3q3LDjDA08n57EF2CG5nxcP/hhLAPykA8A6FbwEiyi4wzVjT8L+hBBARCgDcxm52gAFsAUZuzcP/hhKAAgDvs7O1cRERz7JzDNBlB+DNkob/DSWgcQoA3E6XHWCAp5Pz2XZ2CH4sefjfUAIapgDALdgCsEwjGf43lIBGKQBwe112gAEe2wKMw8iG/w0loEEKANxSvwX4NDvHAF12gNaNdPjfUAIaowDA3RxGxFV2iAXZAiQa+fC/oQQ0RAGAO9jZ2vg6yn7DXpcdoEWFDP8bSkAjFAC4u9K3ALvZIVpS2PC/oQQ0QAGAO7IF4LYKHf43lIDKKQCwmJK3APdtAVav8OF/QwmomAIAC+i3AAfZOQbosgPUrJLhf0MJqJQCAAva2do4iYjL5BiLsgVYkcqG/w0loEIKAAzTZQcYoJuczz7KDlGTSof/DSWgMgoADFD6FiDKvowxKpUP/xtKQEUUABiuyw4wwIEtwNIcRN3D/4YSUAkFAAbqtwAvk2Ms6l7YAizF737z8y7K/mDUXSgBFVAAYDlKHqK2AEvyu9/8fDeUAAqhAMAS7GxtnEbEWXaOBdkCLJESQCkUAFieLjvAAAeT89mD7BC1UAIogQIAS1LBFqDLDlETJYCxUwBgubrsAAM8tQVYLiWAMVMAYIn6LcAX2TkG6LID1EYJYKwUAFi+km+oswVYASWAMVIAYMl2tjYuouxf9l12gBopAYyNAgCr0WUHGODp5Hy2nR2iRkoAY6IAwArYAvA2SgBjoQDA6nTZAQZ4bAuwOkoAY6AAwIr0W4BPs3MMcJgdoGZKANkUAFitw4i4yg6xoIeT89ludoiaKQFkUgBghXa2Nr6Osk/Shz4UtFpKAFkUAFi9krcA96LsAlMEJYAMCgCsWAVbAI8FroESwLopALAeJW8BIiKeuxSwekoA66QAwBr0W4CSXxF8LyJOskO0QAlgXRQAWJOdrY2TiLhMjjHEx5PzWcklphhKAOugAMB6ddkBBvq3yfnsUXaIFigBrJoCAGtUwRYgIuLU/QDroQSwSgoArF+XHWCge6EErI0SwKp8cH19nZ1hkP3jaZedIcnp0d7maXYIFjM5n51GxOPsHAOd7WxtbGeHaEU/GJ9m51iTZ33xYYWKLwBQov65+i+zcyzBs52tjd3sEK1QAlgmlwAgwc7WxmlEnGXnWIKnk/PZSXaIVrgcwDIpAJCnyw6wJErAGikBLIsCAEkq2gJEKAFrpQSwDO4BgEQV3Qtw42VEbPdvPmTF3BPAEDYAkKjfAtR0knsY80cEH2QHaYFNAEMoAJCvyw6wZA8j4oUvCK6HEsCiFABItrO1cRH1/QK/FxFfTs5nXXaQFigBLMI9ADAC/cr8RcwHZ23OIuKJ+wJWzz0B3IUNAIxAvwU4zM6xIo8j4mJyPnuSHaR2NgHchQ0AjET/bv0XEXE/O8sKfRERB33hYUVsArgNGwAYiX5FfpCdY8U+jvkNgl12kJrZBHAbNgAwMpV8KOg2LiOi6z+RzArYBPAuCgCMTOU3BL6JIrBCSgBvowDACPUr8k+yc6yZIrAiSgBvogDASE3OZy9i/lKd1lxFxElEHLpZcHmUAF6nAMBITc5njyLi99k5kp3FvAw89x6B4ZQAXqUAwIhNzmcHEfFv2TlG4iwinkfE6c7WxovsMKVSArihAMDINfRUwF1cRsRpzG+WfNF/VIlbUgKIUABg9PoXBF1EO08FLOplzP+cXkTE1/1fI+YFweWD1ygBKABQgP41upPsHGMz+y7ir9P577Cv/n79k79345t/XMd/f7f2eKP356vrn/xZVUwJeI0CAIVo9NHAiIiYfnsd3/xjPti/mc6H+c3AZxgloF0KABSkhfsBZv1w/+v0Or7627XT+xooAW1SAKAgNX4w6Gbgf/W3+c9f/+F3UgYloD0KABSmfz/AaRR8U+D02+v48zfX8Zera6v8EVEC2qIAQIFKvCnwZuj/x1dO+WOmBLRDAYBCTc5nuxHxeXaOd5l9F/Ef//W9oV8YJaANCgAUbHI+O4yIX2fneN1Xf7ueD/7/8vulVEpA/RQAKNzkfHYSI3ihy+y7iL9883388c/fx/Tb7DQsgxJQNwUAKpBZAmbfRVz+5/dx8Z/fe1yvQkpAvRQAqMS6S8D02+v445+t+VugBNRJAYCKrKMEGPxtUgLqowBAZVZVAm5W/X/88/fL/r+mEEpAXRQAqNCyS8BFP/hd40cJqIcCAJVaRgn46m/X8Yf/+527+vkRJaAOCgBUbNH3BEy/vY7/8/++j7984/cDb6YElE8BgMrd9Y2B1v3clhJQNgUAGjA5n21HxPN4xweEpt9exx/+/Xsf5+FOlIByKQDQiP4rgicR8fD1f+bUzxBKQJkUAGjI5Hz2UcxLwMcR80f7/vDv37nWz2BKQHkUAGjQ5HzWffW360/+1+V3Tv0sjRJQlg+zAwDr9z//939nR4DSPcoOMJQCAA3ZP57+6BIALEtjp/+XEbGdHWKon2UHANZj/3j6KCJOw/BnyVoc/r/7zc+/zg4ylA0ANGD/eLod73kMEBZh+JfLBgAqt3883Y2IL8PwZ8kM/7IpAFCx/eNpF3d4CyDcluFfPpcAoFL7x9OTWMFngcHwr4MNAFTI8GdVDP96KABQGcOfVTH866IAQEUMf1bF8K+PAgCVMPxZFcO/TgoAVMDwZ1UM/3opAFA4w59VMfzrpgBAwfaPp4dh+LMChn/9fA4YCtW/4c9Lflg6w78NCgAUaP94+iQiJtk5qI/h3w4FAArzylf9vNufpTL826IAQEH2j6cfRcSLiLifnYW6GP7tcRMglOV5GP4smeHfJgUACtF/2e9xdg7qYvi3yyUAKMD+8XQ7Ir7MzkFdDP+2KQAwcv11/4tw09/7vIz5n9OLiPi6/2tExIujvU2/9F/zy9/+/STaeYeE4f8GH2YHAN7reRj+r7uM+ZMQL2I+4E9T0xTG8CdCAYBR2z+eHoTr/jfOYl6GTo/2Nl+871/mzQx/brgEACPlef+ImP8CP4yI59b4wxn+vMoGAMbrJNoc/lcx/28/PNrbvMiNUg/Dn9cpADBC/er/YXaONbuMiO5ob/MkO0htDH/exCUAGJn94+mDmN/c1srp3+BfIcOft7EBgPE5iTaGv8G/YoY/76IAwIj0X/mr/a7/q5hf3++yg9TM8Od9XAKAkWjkQz9nEbHr5r7VMvy5DRsAGI+DqHf4X8V88D/PDlI7w5/bsgGAEaj8xr+ziHjiOf7VM/y5CxsAGIcu6hz+n7rWvx6GP3dlAwDJ+tP/n7JzLNlVzE/9p9lBWmD4s4ifZQcAossOsGQvI+KR4b8ehj+LsgGARP37/n+fnWOJXkbEtuv962H4M4R7ACDXYXaAJXp2tLe5mx2iFYY/Q7kEAEn2j6fbUc9Lfwz/NTL8WQYFAPJ02QGWxPBfI8OfZVEAIEFFp3/Df40Mf5ap+HsA9o+nXXaGJKfusi5alx1gCc4M//Ux/Fm24gtARHySHSDRaXYA7q6SD/68jIgn2SFaYfizCi4BwPqVfuf/zUt+/IJeA8OfVVEAYI32j6e7Uf4Hf7Z9zW89DH9WSQGA9eqyAwz0r0d7my+yQ7TA8GfVFABYkwpO/18c7W2WfvmiCIY/66AAwBrsH08/irJP/1cRsZsdogWGP+uiAMB6HETZp/9dN/2tnuHPOikAsGL96f8gO8cAXxztbT7PDlE7w591UwBg9Q4i4l52iAVZ/a+B4U8GBQBWqILTf2f1v1qGP1kUAFitkk//L931v1qGP5kUAFiR/ePpgyj79F9y9tEz/MmmAMDqdFHu6f/Mx6ZWx/BnDBQAWIH+9F/yL/guO0CtDH/GQgGA1eiyAwzwhdP/ahj+jIkCAEtWwenftf8VMPwZGwUAlq/LDjDAM1/6Wz7DnzFSAGCJ9o+n21H2L/ouO0BtDH/GSgGA5eqyAwzg9L9khj9jpgDAkvSn/8fZOQbosgPUxPBn7BQAWJ4uO8AAnzr9L4/hTwkUAFiCwk//VxHhlb9LYvhTCgUAlqPLDjDAoQ/+LIfhT0kUABho/3i6G07/zfvlb/9+GIY/BVEAYLguO8AATv/LcxLzQlU7w78SCgAM0J/+72fnWJDT/xL97jc/fxER21F3CTD8K6IAwDBddoABDpz+l6vyEmD4V0YBgAUVfvq/PNrbPMkOUaNKS4DhXyEFABawfzz9KMo+/XfZAWpWWQkw/CulAMBiDsLpn3eopAQY/hVTAOCO+tN/yZ/M7bIDtKLwEmD4V04BgLs7iIh72SEW9NLpf70KLQGGfwMUALiDCk7/JWcvVmElwPBvhAIAd1Py6f/saG/zNDtEqwopAYZ/QxQAuKX94+mDiPgkO8cAXXaA1o28BBj+jVEA4Pa67AADOP2PxEhLgOHfIAUAbqE//Zf8oZcuOwA/GFkJMPwbpQDA7XTZAQb4wul/fEZSAgz/hikA8B4VnP7d+T9SySXA8G+cAgDvV/IX854d7W1eZIfg7ZJKgOGPAgDvsn883Y6Ij7NzDNBlB+D91lwCDH8iQgGA9+myAwzg9F+QNZUAw59/UgDgLfrT/+PsHAu6irLLS5NWXAIMf35EAYC367IDDHDo9F+mFZUAw5+fUADgDSo4/Zd842LzllwCDH/eSAGANyt5gB4e7W36ZV+4JZUAw5+3UgDgNfvH092IeJidY0FO/xUZWAIMf95JAYCf6rIDDOD0X5kFS4Dhz3spAPCK/vR/PzvHgi7D6b9KdywBhj+3ogDAj3XZAQbonP7rdcsSYPhzawoA9Eo//R/tbZ5kh2C13lMCDH/uRAGAiNg/nn4UZa/Pu+wArMdbSoDhz50pADB3EBH3skMsyOm/Ma+VAMOfhSgANK8//Zf8ydwuOwDr15eAR2H4s6APswPACJR8+j9z+m/X737z84vsDJTLBoCmOf0DrVIAaF3pp//T7BBAmRQAmrV/PH0QEZ9k5xigyw4AlEsBoGVddoABnP6BQRQAmtSf/p9m5xigyw4AlE0BoFVddoABnjn9A0MpADTH6R+gjvcA/CI7QJKL7AAFO8kOMMCzo73Ni+wQQPk+uL6+zs4Aa7N/PN2OiC+zcwzwLwoAsAwuAdCaLjvAAE7/wNIoADSjP/0/zs6xoKsou7wAI6MA0JIuO8AAh07/wDIpADShgtP/YXYIoC4KAK04yQ4wwOHR3qbPvQJLpQBQvf3j6W5E3M/OsSCnf2AlFABa0GUHGMDpH1gJ7wGgav3p//PsHAu6PNrbfJAdAqiTDQC167IDDNBlBwDqpQBQrf3j6UGUe+3/8mhv8yQ7BFAvBYAq7R9PP4qyT9BddgCgbgoAtTqIiHvZIRbk9A+snAJAdfrT/0F2jgFKzg4UQgGgRiWf/s+O9jafZ4cA6qcAUJUKTv9ddgCgDQoAtemi7NP/aXYIoA0KANXYP54+iIhfZ+cYoMsOALRDAaAmXXaAAZz+gbVSAKhCf/p/mp1jgJLvWwAKpABQiy47wADPjvY2X2SHANqiAFC8Ck7/XXYAoD0KADU4yQ4wwLOjvc2L7BBAexQAirZ/PN2OiMfZOQbosgMAbVIAKF2XHWAAp38gjQJAsQo//V+FO/+BRAoAJeuyAwxweLS3+XV2CKBdCgBF2j+ePomyT/+H2SGAtikAlKrkAer0D6RTACjO/vF0NyLuZ+dYkNM/MAoKAEXpP/db8gB1+gdGQQGgNF2U+7nfy6O9zS47BECEAkBB9o+nj8LnfgGWQgGgJCfZAQa4PNrbPMkOAXBDAaAI+8fTLiIeZucYoMsOAPCqD66vr7MzwDv1b/z7MjvHAJdHe5sPskMAvMoGgFHr7/o/yc4xkFf+AqOjADB2J1HuM/8REWdHe5vPs0MAvE4BYLT2j6eHEfFxdo6BuuwAAG/iHgBGqX/b3+fZOQY6O9rb3M4OAfAmNgCMTv+8f+nDP8LpHxgxBYBR6Yf/aXaOJTg72ts8zQ4B8DYKAKPxyvAv9VW/r9rNDgDwLgoAo1DZ8H92tLd5kR0C4F0UANJVNvwjXPsHCqAAkKp/y99p1DP8nf6BIigApOkf9fsy6hn+EU7/QCEUAFL0L/mp4VG/V33m9A+U4sPsALSlf7f/84h4nJ1lya7C6R8oiA0Aa9Nf77+I+oZ/RMTh0d7m19khAG7LBoCV60/9XUT8OjnKqlxGxGF2CIC7UABYqf7UfxJlf9HvfTqnf6A0PgbESvSn/sOIeJqdZcV88Acokg0AS9UP/oP+p6bH+97mIDsAwCIUAJamf67/MNoY/BERnx7tbb7IDgGwCAWAQV458e9G3df5X+fGP6BoCgAL2T+ePogfBn8rJ/5X7brxDyiZAsCt9af9JzEf+jU+y39bnx3tbZ5mhwAYQgHgnfqT/nbMB//HqWHG4TK88Q+ogALAj/Sn/O1Xfh4mxhmjJ1b/QA0UgEb1g/5RRDzofx71Py3dyHdX7voHqlH8i4D2j6en2RkK8yjavGlvKC/8AapSwwag5ZvRWI+rmN8DAVANXwOE93PdH6iOAgDv9q8e+QNqpADA2z072tv0tj+gSgoAvNnLo73N3ewQAKuiAMBPvYz5OxAAqqUAwI9dhff8Aw1QAOAHVxGx7WU/QAsUAJgz/IGmKAAwt2v4Ay1RACDiV0d7m8+zQwCskwJA6351tLd5kh0CYN1q+BYALOLmbn8nf6BJCgAtcsMf0DyXAGiN4Q8QCgBteRkRjwx/AAWAdpzF/OR/kR0EYAzcA0ALnvmwD8CP2QBQu18Z/gA/ZQNArdzsB/AONgDU6CwiHhj+AG9nA0Bt/vVob/MwOwTA2CkA1OJl+KAPwK25BEANPgvX+wHuxAaAkl3G/NR/mh0EoDQKAKX69Ghvs8sOAVAqBYDSnMX81H+RHQSgZAoApbDuB1giBYCxu4qIzqN9AMulADBWVxFxGBGHR3ubX2eHAaiNAsDYGPwAa6AAMBaXEXESBj/AWigAZHsZ86F/kh0EoCUKAFmeRcSJu/oBcigArNPLmF/ff27ND5BLAWDVLiPieczX/BfJWQDoKQCswsuY39B36gM9AOOkALAMVzE/5Z/GfOhfpKYB4L0UABZxGfNh/yKc8gGKpADwPmcRcdH/nEbECzfwAZRPAWjbVcxP8RE/DPl//ljlA9SrhgLwi+wABTHUAYiIiA+ur6+zMwAAa/az7AAAwPopAADQIAUAABqkAABAgxQAAGiQAgAADVIAAKBBCgAANEgBAIAGKQAA0CAFAAAapAAAQIMUAABokAIAAA1SAACgQQoAADRIAQCABikAANAgBQAAGqQAAECDFAAAaJACAAANUgAAoEEKAAA0SAEAgAYpAADQIAUAABqkAABAgxQAAGiQAgAADVIAAKBBCgAANEgBAIAGKQAA0CAFAAAapAAAQIMUAABokAIAAA1SAACgQQoAADRIAQCABikAANAgBQAAGqQAAECDFAAAaJACAAAN+v/0hO1v9T2O+gAAAABJRU5ErkJggg==;fontColor=light-dark(#999999, #ededed);html=1;spacingTop=-6;fontStyle=1;fontSize=11;" vertex="1" parent="1">
          <mxGeometry x="156" y="556" width="50" height="50" as="geometry" />
        </mxCell>
        <mxCell id="-ZOdQKPIgpNNS131K4M5-1" value="Cloud&#xa;Storage" style="sketch=0;html=1;verticalAlign=top;labelPosition=center;verticalLabelPosition=bottom;align=center;spacingTop=-6;fontSize=11;fontStyle=1;fontColor=#999999;shape=image;aspect=fixed;imageAspect=0;image=data:image/svg+xml,PHN2ZyB4bWxucz0iaHR0cDovL3d3dy53My5vcmcvMjAwMC9zdmciIHhtbG5zOnY9Imh0dHBzOi8vdmVjdGEuaW8vbmFubyIgd2lkdGg9IjIwIiBoZWlnaHQ9IjE2IiB2aWV3Qm94PSIwIDAgMjAgMTYiPiYjeGE7CTxzdHlsZSB0eXBlPSJ0ZXh0L2NzcyI+JiN4YTsJLnN0MHtmaWxsOiM0Mjg1ZjQ7fSYjeGE7CS5zdDF7ZmlsbDojNjY5ZGY2O30mI3hhOwkuc3Qye2ZpbGw6I2FlY2JmYTt9JiN4YTsJLnN0M3tmaWxsOiNmZmY7fSYjeGE7CTwvc3R5bGU+JiN4YTsJPHBhdGggY2xhc3M9InN0MiIgZD0iTTAgMGgyMHY3SDB6Ii8+JiN4YTsJPHBhdGggY2xhc3M9InN0MSIgZD0iTTE4IDBoMnY3aC0yeiIvPiYjeGE7CTxwYXRoIGNsYXNzPSJzdDAiIGQ9Ik0xOCA3bDItN2gtMnoiLz4mI3hhOwk8cGF0aCBjbGFzcz0ic3QxIiBkPSJNMCAwaDJ2N0gweiIvPiYjeGE7CTxnIGNsYXNzPSJzdDMiPiYjeGE7CQk8cGF0aCBkPSJNNCAzaDZ2MUg0eiIvPiYjeGE7CQk8cmVjdCB4PSIxMyIgeT0iMiIgd2lkdGg9IjMiIGhlaWdodD0iMyIgcng9IjEuNSIvPiYjeGE7CTwvZz4mI3hhOwk8cGF0aCBjbGFzcz0ic3QyIiBkPSJNMCA5aDIwdjdIMHoiLz4mI3hhOwk8cGF0aCBjbGFzcz0ic3QxIiBkPSJNMTggOWgydjdoLTJ6Ii8+JiN4YTsJPHBhdGggY2xhc3M9InN0MCIgZD0iTTE4IDE2bDItN2gtMnoiLz4mI3hhOwk8cGF0aCBjbGFzcz0ic3QxIiBkPSJNMCA5aDJ2N0gweiIvPiYjeGE7CTxnIGNsYXNzPSJzdDMiPiYjeGE7CQk8cGF0aCBkPSJNNCAxMmg2djFINHoiLz4mI3hhOwkJPHJlY3QgeD0iMTMiIHk9IjExIiB3aWR0aD0iMyIgaGVpZ2h0PSIzIiByeD0iMS41Ii8+JiN4YTsJPC9nPiYjeGE7PC9zdmc+;" vertex="1" parent="1">
          <mxGeometry x="250" y="564" width="42" height="34" as="geometry" />
        </mxCell>
      </root>
    </mxGraphModel>
  </diagram>
  <diagram id="rbWIwhFLxD-qBuzQwJ6h" name="Architecture-Bigquery-Dataform-Composer">
    <mxGraphModel dx="1181" dy="686" grid="0" gridSize="10" guides="1" tooltips="1" connect="1" arrows="1" fold="1" page="1" pageScale="1" pageWidth="827" pageHeight="1169" math="0" shadow="0">
      <root>
        <mxCell id="0" />
        <mxCell id="1" parent="0" />
        <mxCell id="wvHN0B2mU-6-lQxxzvEV-2" value="" style="rounded=0;whiteSpace=wrap;html=1;strokeColor=light-dark(#4285f4, #ededed);" parent="1" vertex="1">
          <mxGeometry x="40" y="678" width="680" height="80" as="geometry" />
        </mxCell>
        <mxCell id="E2KZnU7wXPEwBcaBg1pS-1" value="" style="rounded=0;whiteSpace=wrap;html=1;strokeColor=light-dark(#4285f4, #ededed);" parent="1" vertex="1">
          <mxGeometry x="200" y="520" width="520" height="120" as="geometry" />
        </mxCell>
        <mxCell id="HDt5qQ447RyKZo5QMaGn-1" value="BigQuery" style="sketch=0;html=1;verticalAlign=top;labelPosition=center;verticalLabelPosition=bottom;align=center;spacingTop=-6;fontSize=11;fontStyle=1;fontColor=#999999;shape=image;aspect=fixed;imageAspect=0;image=data:image/svg+xml,PHN2ZyB4bWxucz0iaHR0cDovL3d3dy53My5vcmcvMjAwMC9zdmciIHhtbG5zOnY9Imh0dHBzOi8vdmVjdGEuaW8vbmFubyIgd2lkdGg9IjIwLjAwMTA0NTIyNzA1MDc4IiBoZWlnaHQ9IjIwLjAwMTA0NTIyNzA1MDc4IiBmaWxsLXJ1bGU9ImV2ZW5vZGQiIHZpZXdCb3g9IjAgMCAyMC4wMDEwNDUyMjcwNTA3OCAyMC4wMDEwNDUyMjcwNTA3OCI+JiN4YTsJPHN0eWxlIHR5cGU9InRleHQvY3NzIj4mI3hhOwkuc3Qwe2ZpbGw6I2FlY2JmYTt9JiN4YTsJLnN0MXtmaWxsOiM2NjlkZjY7fSYjeGE7CS5zdDJ7ZmlsbDojNDI4NWY0O30mI3hhOwk8L3N0eWxlPiYjeGE7CTxwYXRoIGNsYXNzPSJzdDAiIGQ9Ik00LjczIDguODN2Mi42M2E0LjkxIDQuOTEgMCAwIDAgMS43MSAxLjc0VjguODN6Ii8+JiN4YTsJPHBhdGggY2xhc3M9InN0MSIgZD0iTTcuODkgNi40MXY3LjUzQTcuNjIgNy42MiAwIDAgMCA5IDE0YTggOCAwIDAgMCAxIDBWNi40MXoiLz4mI3hhOwk8cGF0aCBjbGFzcz0ic3QwIiBkPSJNMTEuNjQgOS44NnYzLjI5YTUgNSAwIDAgMCAxLjctMS44MlY5Ljg2eiIvPiYjeGE7CTxwYXRoIGNsYXNzPSJzdDIiIGQ9Ik0xNS43NCAxNC4zMmwtMS40MiAxLjQyYS40Mi40MiAwIDAgMCAwIC42bDMuNTQgMy41NGEuNDIuNDIgMCAwIDAgLjU5IDBsMS40My0xLjQzYS40Mi40MiAwIDAgMCAwLS41OWwtMy41NC0zLjU0YS40Mi40MiAwIDAgMC0uNiAwIi8+JiN4YTsJPHBhdGggY2xhc3M9InN0MSIgZD0iTTkgMGE5IDkgMCAxIDAgMCAxOEE5IDkgMCAxIDAgOSAwbTAgMTUuNjlhNi42OCA2LjY4IDAgMCAxIC4wMDctMTMuMzYgNi42OCA2LjY4IDAgMCAxIDQuNzI3IDExLjQwM0E2LjY4IDYuNjggMCAwIDEgOSAxNS42OSIvPiYjeGE7PC9zdmc+;" parent="1" vertex="1">
          <mxGeometry x="650" y="550" width="42" height="42" as="geometry" />
        </mxCell>
        <mxCell id="HDt5qQ447RyKZo5QMaGn-2" value="" style="rounded=0;whiteSpace=wrap;html=1;strokeColor=light-dark(#4285f4, #ededed);" parent="1" vertex="1">
          <mxGeometry x="360" y="360" width="360" height="120" as="geometry" />
        </mxCell>
        <mxCell id="8D-roK8uWGWnyNG4y7UZ-1" value="Dataform" style="shape=image;verticalLabelPosition=bottom;labelBackgroundColor=none;verticalAlign=top;aspect=fixed;imageAspect=0;image=data:image/png,iVBORw0KGgoAAAANSUhEUgAAAgAAAAIACAYAAAD0eNT6AAAACXBIWXMAAAsSAAALEgHS3X78AAAfTklEQVR4nO3dvW5k57Um4CVDDAgHrTvoPlfQPQDzpuELUPMKmmbC0DypE20lTg8VMqHYV1CtbBJDZE6Mu8fBJAZM4swZwMaBjijbKEN1JE5Qm1ar1T9k7apa+/u+5wEIGZJgvOqA6/3W/vvg+vo6AIC2/Cw7AACwfgoAADRIAQCABikAANAgBQAAGqQAAECDFAAAaJACAAANUgAAoEEKAAA0SAEAgAYpAADQIAUAABqkAABAgxQAAGiQAgAADVIAAKBBCgAANEgBAIAGKQAA0CAFAAAapAAAQIMUAABokAIAAA1SAACgQQoAADRIAQCABikAANAgBQAAGqQAAECDFAAAaJACAAANUgAAoEEKAAA0SAEAgAYpAADQIAUAABqkAABAgxQAAGiQAgAADVIAAKBBCgAANEgBAIAGKQAA0CAFAAAapAAAQIM+zA4w1OR8tp2doSAXO1sbF9khAMj3wfX1dXaGQSbns7L/A3JdRcSL/n9fvP6jLADUSwHgfc7ih1JwGhEvdrY2vk7MA8ASKAAs4jLmZeA05oXgxTv/bQBGRwFgGa4i4nn0pcClA4DxUwBYhZcRcRLzMmA7ADBCCgCrdhnzMnBiMwAwHgoA6/QyIg4j4rkbCQFyKQBkeRbzrcBpdhCAFikAZHsZEYc7WxsnyTkAmqIAMBY39wocujwAsHoKAGNzFfP7BBQBgBVSABgrRQBghXwNkLG6FxGfRMTF5Hy2m5wFoDo2AJTiMiJ2PTUAsBw2AJTifkR8OTmfnU7OZw+ywwCUTgGgNI8j4k+T81mXHQSgZC4BULKXEXHgsgDA3dkAULKHMb8scJgdBKA0NgDU4mXMbxL09UGAW7ABoBYPI+L3k/PZQXYQgBLYAFCjs4h44gVCAG9nA0CNHkfEi8n57FF2EICxUgCo1f2YXxLYzQ4CMEYKALX7fHI+O8kOATA27gGgFe4LAHiFDQCteBwRXiMM0FMAaMnDcHMgQEQoALTnXsw3AUoA0DQFgBbdlIDt7CAAWRQAWnUv5t8R2M0OApBBAaB1nysBQIsUAJiXgO3sEADrpADA3HM3BgItUQBgztMBQFMUAPjBTQl4kB0EYNUUAPixezG/HPBRdhCAVVIA4KceRsRpdgiAVVIA4M0e+oogUDMFAN7uqXcEALVSAODdPvdkAFAjBQDe79RNgUBtPswOsARn2QEK8yjmd7pze/ci4nlEbCfnAFiaD66vr7MzkKA/0T6KiAf9z6P+535eqtH7dGdro8sOAbAMCgA/0heD7Vd+HibGGaP/sbO18SI7BMBQCgDv1L8VbzsinkTEx6lhxuEyIh7tbG18nR0EYAgFgFvrtwNPIuIg2t4MfLaztXGQHQJgCAWAhfSbgYOI2I02byr8xc7Wxml2CIBFKQAM0m8FbopASzcQuhQAFE0BYGn6t+YdRjsbAU8FAMVSAFiqVzYCB9FGEfBUAFAkBYCV6O8ROIz6nxw429na2M4OAXBXCgArNTmfbUfESdR9f8CvdrY2TrJDANyFAsDK9ZcFuoj4dXKUVXFDIFAcHwNi5Xa2Nr7un5v/RURcZedZgfsxv+cBoBg2AKxVvw14HhGPs7Ms2VVEPLAFAEphA8Ba9duA7Yj4LDvLkt0LWwCgIDYApOnfG/B5do4l+5edrY2L7BAA72MDQJr+zvna7gvosgMA3IYNAOkm57NHEXEa9bw4yBYAGD0bANL1b9Lbjno2AV12AID3sQFgNCrbBNgCAKNmA8BoVLYJOMwOAPAuNgCMTv/64C+zcyzBL3a2Nk6zQwC8iQ0Ao9MPzV9l51iCLjsAwNsoAIxS/4hg6S8LetxvMwBGRwFgtPrvB5xl5xioyw4A8CYKAGP3JOZf2yuVLQAwSgoAo9Z/XGc3O8dAJ9kBAF6nADB6/U2Bn2bnGOB+/90DgNHwGCDFmJzPXkTEw+wcC7rc2dp4kB0C4IYNACXZzQ4wgC0AMCoKAMXo3xRY8qOBXXYAgBsKAKXpotxXBd+fnM8OskMARLgHgAL1q/TPs3Ms6CoiHvRPNwCksQGgOP1bAkt9N8C9iLAFANIpAJSq5CF6MDmffZQdAmibAkCRdrY2nke5rwm2BQDSKQCUrMsOMIAtAJBKAaBY/RsCS94CdNkhgHYpAJSuyw4wwK8n57MH2SGANikAFK3wLUBE2QUGKJgCQA1KvqHuqS0AkEEBoHj9K4KfZecYoMsOALRHAaAWXXaAAWwBgLVTAKjCztbGRZS9BTjJDgC0RQGgJl12gAEeT85n29khgHYoAFSjgi1Alx0AaIcCQG0OotzPBdsCAGujAFCV/jO7h9k5BuiyAwBtUACo0WHYAgC8kwJAdSrYApxkBwDqpwBQq5K3APcn57Pd7BBA3RQAqlTBFqDLDgDU7YPr6+vsDLAyk/PZRUTcz86xoF/tbG2cZIcA6mQDQO267AADdNkBgHopAFStP0FfJsdY1P3J+azLDgHUSQGgBV12gAEOJuezj7JDAPVRAKhe4VuAezF/uyHAUikAtKLkIWoLACydAkATdrY2nkfEWXaOBdkCAEunANCSLjvAALYAwFIpADRjZ2vjNMreApT8YiNgZBQAWtNlBxjg6eR89iA7BFCH4t8EuH883c7OkOTiaG/zIjtEiSbns9OIeJydY0HPdrY2drNDAOX7MDvAEnyZHSDJp1H2aTbTbkT8KTvEgp5OzmfdztbGRXYQoGwuAdCcfng+y84xQJcdACifAkCruuwAAzydnM8eZYcAyqYA0KQKtgCeCAAGUQBoWZcdYIDHk/PZdnYIoFwKAM3qtwCfZecYoMsOAJRLAaB1XURcZYdYkC0AsDAFgKbtbG18HWVfT++yAwBlUgBgXgBK3gI8yQ5Bjl/+9u++D8HCFACaV8EWoOTsLKgf/qe//O3fT7KzUCYFAOZK3gLcn5zPdrNDsD43wz8iHkbEUyWARSgAEP/cAnTZOQbosgOwHq8N/xtKAHemAEBvZ2vjMCIus3MsyBagAW8Z/jeUAO5EAYAf67IDDNBlB2B13jP8bygB3JoCAK/Y2do4ibK3AF12CJbvlsP/hhLArSgA8FNddoABDibnM4+GVeSOw/+GEsB7KQDwmsK3APci4iA7BMux4PC/oQTwTgoAvNludoABbAEqMHD431ACeCsFAN5gZ2vjNCLOsnMsyBagcEsa/jeUAN5IAYC367IDDGALUKglD/8bSgA/oQDAW1SwBfCK4MKsaPjfUAL4EQUA3q3LDjDA08n57EF2CG5nxcP/hhLAPykA8A6FbwEiyi4wzVjT8L+hBBARCgDcxm52gAFsAUZuzcP/hhKAAgDvs7O1cRERz7JzDNBlB+DNkob/DSWgcQoA3E6XHWCAp5Pz2XZ2CH4sefjfUAIapgDALdgCsEwjGf43lIBGKQBwe112gAEe2wKMw8iG/w0loEEKANxSvwX4NDvHAF12gNaNdPjfUAIaowDA3RxGxFV2iAXZAiQa+fC/oQQ0RAGAO9jZ2vg6yn7DXpcdoEWFDP8bSkAjFAC4u9K3ALvZIVpS2PC/oQQ0QAGAO7IF4LYKHf43lIDKKQCwmJK3APdtAVav8OF/QwmomAIAC+i3AAfZOQbosgPUrJLhf0MJqJQCAAva2do4iYjL5BiLsgVYkcqG/w0loEIKAAzTZQcYoJuczz7KDlGTSof/DSWgMgoADFD6FiDKvowxKpUP/xtKQEUUABiuyw4wwIEtwNIcRN3D/4YSUAkFAAbqtwAvk2Ms6l7YAizF737z8y7K/mDUXSgBFVAAYDlKHqK2AEvyu9/8fDeUAAqhAMAS7GxtnEbEWXaOBdkCLJESQCkUAFieLjvAAAeT89mD7BC1UAIogQIAS1LBFqDLDlETJYCxUwBgubrsAAM8tQVYLiWAMVMAYIn6LcAX2TkG6LID1EYJYKwUAFi+km+oswVYASWAMVIAYMl2tjYuouxf9l12gBopAYyNAgCr0WUHGODp5Hy2nR2iRkoAY6IAwArYAvA2SgBjoQDA6nTZAQZ4bAuwOkoAY6AAwIr0W4BPs3MMcJgdoGZKANkUAFitw4i4yg6xoIeT89ludoiaKQFkUgBghXa2Nr6Osk/Shz4UtFpKAFkUAFi9krcA96LsAlMEJYAMCgCsWAVbAI8FroESwLopALAeJW8BIiKeuxSwekoA66QAwBr0W4CSXxF8LyJOskO0QAlgXRQAWJOdrY2TiLhMjjHEx5PzWcklphhKAOugAMB6ddkBBvq3yfnsUXaIFigBrJoCAGtUwRYgIuLU/QDroQSwSgoArF+XHWCge6EErI0SwKp8cH19nZ1hkP3jaZedIcnp0d7maXYIFjM5n51GxOPsHAOd7WxtbGeHaEU/GJ9m51iTZ33xYYWKLwBQov65+i+zcyzBs52tjd3sEK1QAlgmlwAgwc7WxmlEnGXnWIKnk/PZSXaIVrgcwDIpAJCnyw6wJErAGikBLIsCAEkq2gJEKAFrpQSwDO4BgEQV3Qtw42VEbPdvPmTF3BPAEDYAkKjfAtR0knsY80cEH2QHaYFNAEMoAJCvyw6wZA8j4oUvCK6HEsCiFABItrO1cRH1/QK/FxFfTs5nXXaQFigBLMI9ADAC/cr8RcwHZ23OIuKJ+wJWzz0B3IUNAIxAvwU4zM6xIo8j4mJyPnuSHaR2NgHchQ0AjET/bv0XEXE/O8sKfRERB33hYUVsArgNGwAYiX5FfpCdY8U+jvkNgl12kJrZBHAbNgAwMpV8KOg2LiOi6z+RzArYBPAuCgCMTOU3BL6JIrBCSgBvowDACPUr8k+yc6yZIrAiSgBvogDASE3OZy9i/lKd1lxFxElEHLpZcHmUAF6nAMBITc5njyLi99k5kp3FvAw89x6B4ZQAXqUAwIhNzmcHEfFv2TlG4iwinkfE6c7WxovsMKVSArihAMDINfRUwF1cRsRpzG+WfNF/VIlbUgKIUABg9PoXBF1EO08FLOplzP+cXkTE1/1fI+YFweWD1ygBKABQgP41upPsHGMz+y7ir9P577Cv/n79k79345t/XMd/f7f2eKP356vrn/xZVUwJeI0CAIVo9NHAiIiYfnsd3/xjPti/mc6H+c3AZxgloF0KABSkhfsBZv1w/+v0Or7627XT+xooAW1SAKAgNX4w6Gbgf/W3+c9f/+F3UgYloD0KABSmfz/AaRR8U+D02+v48zfX8Zera6v8EVEC2qIAQIFKvCnwZuj/x1dO+WOmBLRDAYBCTc5nuxHxeXaOd5l9F/Ef//W9oV8YJaANCgAUbHI+O4yIX2fneN1Xf7ueD/7/8vulVEpA/RQAKNzkfHYSI3ihy+y7iL9883388c/fx/Tb7DQsgxJQNwUAKpBZAmbfRVz+5/dx8Z/fe1yvQkpAvRQAqMS6S8D02+v445+t+VugBNRJAYCKrKMEGPxtUgLqowBAZVZVAm5W/X/88/fL/r+mEEpAXRQAqNCyS8BFP/hd40cJqIcCAJVaRgn46m/X8Yf/+527+vkRJaAOCgBUbNH3BEy/vY7/8/++j7984/cDb6YElE8BgMrd9Y2B1v3clhJQNgUAGjA5n21HxPN4xweEpt9exx/+/Xsf5+FOlIByKQDQiP4rgicR8fD1f+bUzxBKQJkUAGjI5Hz2UcxLwMcR80f7/vDv37nWz2BKQHkUAGjQ5HzWffW360/+1+V3Tv0sjRJQlg+zAwDr9z//939nR4DSPcoOMJQCAA3ZP57+6BIALEtjp/+XEbGdHWKon2UHANZj/3j6KCJOw/BnyVoc/r/7zc+/zg4ylA0ANGD/eLod73kMEBZh+JfLBgAqt3883Y2IL8PwZ8kM/7IpAFCx/eNpF3d4CyDcluFfPpcAoFL7x9OTWMFngcHwr4MNAFTI8GdVDP96KABQGcOfVTH866IAQEUMf1bF8K+PAgCVMPxZFcO/TgoAVMDwZ1UM/3opAFA4w59VMfzrpgBAwfaPp4dh+LMChn/9fA4YCtW/4c9Lflg6w78NCgAUaP94+iQiJtk5qI/h3w4FAArzylf9vNufpTL826IAQEH2j6cfRcSLiLifnYW6GP7tcRMglOV5GP4smeHfJgUACtF/2e9xdg7qYvi3yyUAKMD+8XQ7Ir7MzkFdDP+2KQAwcv11/4tw09/7vIz5n9OLiPi6/2tExIujvU2/9F/zy9/+/STaeYeE4f8GH2YHAN7reRj+r7uM+ZMQL2I+4E9T0xTG8CdCAYBR2z+eHoTr/jfOYl6GTo/2Nl+871/mzQx/brgEACPlef+ImP8CP4yI59b4wxn+vMoGAMbrJNoc/lcx/28/PNrbvMiNUg/Dn9cpADBC/er/YXaONbuMiO5ob/MkO0htDH/exCUAGJn94+mDmN/c1srp3+BfIcOft7EBgPE5iTaGv8G/YoY/76IAwIj0X/mr/a7/q5hf3++yg9TM8Od9XAKAkWjkQz9nEbHr5r7VMvy5DRsAGI+DqHf4X8V88D/PDlI7w5/bsgGAEaj8xr+ziHjiOf7VM/y5CxsAGIcu6hz+n7rWvx6GP3dlAwDJ+tP/n7JzLNlVzE/9p9lBWmD4s4ifZQcAossOsGQvI+KR4b8ehj+LsgGARP37/n+fnWOJXkbEtuv962H4M4R7ACDXYXaAJXp2tLe5mx2iFYY/Q7kEAEn2j6fbUc9Lfwz/NTL8WQYFAPJ02QGWxPBfI8OfZVEAIEFFp3/Df40Mf5ap+HsA9o+nXXaGJKfusi5alx1gCc4M//Ux/Fm24gtARHySHSDRaXYA7q6SD/68jIgn2SFaYfizCi4BwPqVfuf/zUt+/IJeA8OfVVEAYI32j6e7Uf4Hf7Z9zW89DH9WSQGA9eqyAwz0r0d7my+yQ7TA8GfVFABYkwpO/18c7W2WfvmiCIY/66AAwBrsH08/irJP/1cRsZsdogWGP+uiAMB6HETZp/9dN/2tnuHPOikAsGL96f8gO8cAXxztbT7PDlE7w591UwBg9Q4i4l52iAVZ/a+B4U8GBQBWqILTf2f1v1qGP1kUAFitkk//L931v1qGP5kUAFiR/ePpgyj79F9y9tEz/MmmAMDqdFHu6f/Mx6ZWx/BnDBQAWIH+9F/yL/guO0CtDH/GQgGA1eiyAwzwhdP/ahj+jIkCAEtWwenftf8VMPwZGwUAlq/LDjDAM1/6Wz7DnzFSAGCJ9o+n21H2L/ouO0BtDH/GSgGA5eqyAwzg9L9khj9jpgDAkvSn/8fZOQbosgPUxPBn7BQAWJ4uO8AAnzr9L4/hTwkUAFiCwk//VxHhlb9LYvhTCgUAlqPLDjDAoQ/+LIfhT0kUABho/3i6G07/zfvlb/9+GIY/BVEAYLguO8AATv/LcxLzQlU7w78SCgAM0J/+72fnWJDT/xL97jc/fxER21F3CTD8K6IAwDBddoABDpz+l6vyEmD4V0YBgAUVfvq/PNrbPMkOUaNKS4DhXyEFABawfzz9KMo+/XfZAWpWWQkw/CulAMBiDsLpn3eopAQY/hVTAOCO+tN/yZ/M7bIDtKLwEmD4V04BgLs7iIh72SEW9NLpf70KLQGGfwMUALiDCk7/JWcvVmElwPBvhAIAd1Py6f/saG/zNDtEqwopAYZ/QxQAuKX94+mDiPgkO8cAXXaA1o28BBj+jVEA4Pa67AADOP2PxEhLgOHfIAUAbqE//Zf8oZcuOwA/GFkJMPwbpQDA7XTZAQb4wul/fEZSAgz/hikA8B4VnP7d+T9SySXA8G+cAgDvV/IX854d7W1eZIfg7ZJKgOGPAgDvsn883Y6Ij7NzDNBlB+D91lwCDH8iQgGA9+myAwzg9F+QNZUAw59/UgDgLfrT/+PsHAu6irLLS5NWXAIMf35EAYC367IDDHDo9F+mFZUAw5+fUADgDSo4/Zd842LzllwCDH/eSAGANyt5gB4e7W36ZV+4JZUAw5+3UgDgNfvH092IeJidY0FO/xUZWAIMf95JAYCf6rIDDOD0X5kFS4Dhz3spAPCK/vR/PzvHgi7D6b9KdywBhj+3ogDAj3XZAQbonP7rdcsSYPhzawoA9Eo//R/tbZ5kh2C13lMCDH/uRAGAiNg/nn4UZa/Pu+wArMdbSoDhz50pADB3EBH3skMsyOm/Ma+VAMOfhSgANK8//Zf8ydwuOwDr15eAR2H4s6APswPACJR8+j9z+m/X737z84vsDJTLBoCmOf0DrVIAaF3pp//T7BBAmRQAmrV/PH0QEZ9k5xigyw4AlEsBoGVddoABnP6BQRQAmtSf/p9m5xigyw4AlE0BoFVddoABnjn9A0MpADTH6R+gjvcA/CI7QJKL7AAFO8kOMMCzo73Ni+wQQPk+uL6+zs4Aa7N/PN2OiC+zcwzwLwoAsAwuAdCaLjvAAE7/wNIoADSjP/0/zs6xoKsou7wAI6MA0JIuO8AAh07/wDIpADShgtP/YXYIoC4KAK04yQ4wwOHR3qbPvQJLpQBQvf3j6W5E3M/OsSCnf2AlFABa0GUHGMDpH1gJ7wGgav3p//PsHAu6PNrbfJAdAqiTDQC167IDDNBlBwDqpQBQrf3j6UGUe+3/8mhv8yQ7BFAvBYAq7R9PP4qyT9BddgCgbgoAtTqIiHvZIRbk9A+snAJAdfrT/0F2jgFKzg4UQgGgRiWf/s+O9jafZ4cA6qcAUJUKTv9ddgCgDQoAtemi7NP/aXYIoA0KANXYP54+iIhfZ+cYoMsOALRDAaAmXXaAAZz+gbVSAKhCf/p/mp1jgJLvWwAKpABQiy47wADPjvY2X2SHANqiAFC8Ck7/XXYAoD0KADU4yQ4wwLOjvc2L7BBAexQAirZ/PN2OiMfZOQbosgMAbVIAKF2XHWAAp38gjQJAsQo//V+FO/+BRAoAJeuyAwxweLS3+XV2CKBdCgBF2j+ePomyT/+H2SGAtikAlKrkAer0D6RTACjO/vF0NyLuZ+dYkNM/MAoKAEXpP/db8gB1+gdGQQGgNF2U+7nfy6O9zS47BECEAkBB9o+nj8LnfgGWQgGgJCfZAQa4PNrbPMkOAXBDAaAI+8fTLiIeZucYoMsOAPCqD66vr7MzwDv1b/z7MjvHAJdHe5sPskMAvMoGgFHr7/o/yc4xkFf+AqOjADB2J1HuM/8REWdHe5vPs0MAvE4BYLT2j6eHEfFxdo6BuuwAAG/iHgBGqX/b3+fZOQY6O9rb3M4OAfAmNgCMTv+8f+nDP8LpHxgxBYBR6Yf/aXaOJTg72ts8zQ4B8DYKAKPxyvAv9VW/r9rNDgDwLgoAo1DZ8H92tLd5kR0C4F0UANJVNvwjXPsHCqAAkKp/y99p1DP8nf6BIigApOkf9fsy6hn+EU7/QCEUAFL0L/mp4VG/V33m9A+U4sPsALSlf7f/84h4nJ1lya7C6R8oiA0Aa9Nf77+I+oZ/RMTh0d7m19khAG7LBoCV60/9XUT8OjnKqlxGxGF2CIC7UABYqf7UfxJlf9HvfTqnf6A0PgbESvSn/sOIeJqdZcV88Acokg0AS9UP/oP+p6bH+97mIDsAwCIUAJamf67/MNoY/BERnx7tbb7IDgGwCAWAQV458e9G3df5X+fGP6BoCgAL2T+ePogfBn8rJ/5X7brxDyiZAsCt9af9JzEf+jU+y39bnx3tbZ5mhwAYQgHgnfqT/nbMB//HqWHG4TK88Q+ogALAj/Sn/O1Xfh4mxhmjJ1b/QA0UgEb1g/5RRDzofx71Py3dyHdX7voHqlH8i4D2j6en2RkK8yjavGlvKC/8AapSwwag5ZvRWI+rmN8DAVANXwOE93PdH6iOAgDv9q8e+QNqpADA2z072tv0tj+gSgoAvNnLo73N3ewQAKuiAMBPvYz5OxAAqqUAwI9dhff8Aw1QAOAHVxGx7WU/QAsUAJgz/IGmKAAwt2v4Ay1RACDiV0d7m8+zQwCskwJA6351tLd5kh0CYN1q+BYALOLmbn8nf6BJCgAtcsMf0DyXAGiN4Q8QCgBteRkRjwx/AAWAdpzF/OR/kR0EYAzcA0ALnvmwD8CP2QBQu18Z/gA/ZQNArdzsB/AONgDU6CwiHhj+AG9nA0Bt/vVob/MwOwTA2CkA1OJl+KAPwK25BEANPgvX+wHuxAaAkl3G/NR/mh0EoDQKAKX69Ghvs8sOAVAqBYDSnMX81H+RHQSgZAoApbDuB1giBYCxu4qIzqN9AMulADBWVxFxGBGHR3ubX2eHAaiNAsDYGPwAa6AAMBaXEXESBj/AWigAZHsZ86F/kh0EoCUKAFmeRcSJu/oBcigArNPLmF/ff27ND5BLAWDVLiPieczX/BfJWQDoKQCswsuY39B36gM9AOOkALAMVzE/5Z/GfOhfpKYB4L0UABZxGfNh/yKc8gGKpADwPmcRcdH/nEbECzfwAZRPAWjbVcxP8RE/DPl//ljlA9SrhgLwi+wABTHUAYiIiA+ur6+zMwAAa/az7AAAwPopAADQIAUAABqkAABAgxQAAGiQAgAADVIAAKBBCgAANEgBAIAGKQAA0CAFAAAapAAAQIMUAABokAIAAA1SAACgQQoAADRIAQCABikAANAgBQAAGqQAAECDFAAAaJACAAANUgAAoEEKAAA0SAEAgAYpAADQIAUAABqkAABAgxQAAGiQAgAADVIAAKBBCgAANEgBAIAGKQAA0CAFAAAapAAAQIMUAABokAIAAA1SAACgQQoAADRIAQCABikAANAgBQAAGqQAAECDFAAAaJACAAAN+v/0hO1v9T2O+gAAAABJRU5ErkJggg==;fontColor=light-dark(#999999, #ededed);html=1;spacingTop=-6;fontStyle=1;fontSize=11;" parent="1" vertex="1">
          <mxGeometry x="650" y="390" width="50" height="50" as="geometry" />
        </mxCell>
        <mxCell id="8D-roK8uWGWnyNG4y7UZ-2" value="" style="rounded=0;whiteSpace=wrap;html=1;strokeColor=light-dark(#4285f4, #ededed);" parent="1" vertex="1">
          <mxGeometry x="40" y="200" width="680" height="120" as="geometry" />
        </mxCell>
        <mxCell id="JvcV0fQGcTPAXjq8FmyC-1" value="Cloud&amp;nbsp;Composer" style="sketch=0;html=1;verticalAlign=top;labelPosition=center;verticalLabelPosition=bottom;align=center;spacingTop=-6;fontSize=11;fontStyle=1;fontColor=#999999;shape=image;aspect=fixed;imageAspect=0;image=data:image/svg+xml,PHN2ZyB4bWxucz0iaHR0cDovL3d3dy53My5vcmcvMjAwMC9zdmciIHhtbG5zOnY9Imh0dHBzOi8vdmVjdGEuaW8vbmFubyIgd2lkdGg9IjE0LjY0MDAwMDM0MzMyMjc1NCIgaGVpZ2h0PSIyMCIgdmlld0JveD0iMCAwIDE0LjY0MDAwMDM0MzMyMjc1NCAyMCI+JiN4YTsJPHN0eWxlIHR5cGU9InRleHQvY3NzIj4mI3hhOwkuc3Qwe2ZpbGw6I2FlY2JmYTt9JiN4YTsJLnN0MXtmaWxsOiM0Mjg1ZjQ7fSYjeGE7CTwvc3R5bGU+JiN4YTsJPHBhdGggY2xhc3M9InN0MCIgZD0iTTAgMGgxNC42M3YzLjk0aC01LjN2NS4zM0g1LjM1VjMuOTZIMHoiLz4mI3hhOwk8cGF0aCBjbGFzcz0ic3QxIiBkPSJNMy45NSAxMC42N2g1LjM0VjIwSDUuMzV2LTUuMzVIMFY1LjM3aDMuOTV6TTE0LjY0IDIwSDEwLjdWNS4zNmgzLjk0eiIvPiYjeGE7CTxwYXRoIGNsYXNzPSJzdDAiIGQ9Ik0wIDE2LjA2aDMuOTJWMjBIMHoiLz4mI3hhOzwvc3ZnPg==;" parent="1" vertex="1">
          <mxGeometry x="656" y="229" width="32" height="42" as="geometry" />
        </mxCell>
        <mxCell id="wvHN0B2mU-6-lQxxzvEV-1" value="Cloud&amp;nbsp;Storage" style="sketch=0;html=1;verticalAlign=top;labelPosition=center;verticalLabelPosition=bottom;align=center;spacingTop=-6;fontSize=11;fontStyle=1;fontColor=#999999;shape=image;aspect=fixed;imageAspect=0;image=data:image/svg+xml,PHN2ZyB4bWxucz0iaHR0cDovL3d3dy53My5vcmcvMjAwMC9zdmciIHhtbG5zOnY9Imh0dHBzOi8vdmVjdGEuaW8vbmFubyIgd2lkdGg9IjIwIiBoZWlnaHQ9IjE2IiB2aWV3Qm94PSIwIDAgMjAgMTYiPiYjeGE7CTxzdHlsZSB0eXBlPSJ0ZXh0L2NzcyI+JiN4YTsJLnN0MHtmaWxsOiM0Mjg1ZjQ7fSYjeGE7CS5zdDF7ZmlsbDojNjY5ZGY2O30mI3hhOwkuc3Qye2ZpbGw6I2FlY2JmYTt9JiN4YTsJLnN0M3tmaWxsOiNmZmY7fSYjeGE7CTwvc3R5bGU+JiN4YTsJPHBhdGggY2xhc3M9InN0MiIgZD0iTTAgMGgyMHY3SDB6Ii8+JiN4YTsJPHBhdGggY2xhc3M9InN0MSIgZD0iTTE4IDBoMnY3aC0yeiIvPiYjeGE7CTxwYXRoIGNsYXNzPSJzdDAiIGQ9Ik0xOCA3bDItN2gtMnoiLz4mI3hhOwk8cGF0aCBjbGFzcz0ic3QxIiBkPSJNMCAwaDJ2N0gweiIvPiYjeGE7CTxnIGNsYXNzPSJzdDMiPiYjeGE7CQk8cGF0aCBkPSJNNCAzaDZ2MUg0eiIvPiYjeGE7CQk8cmVjdCB4PSIxMyIgeT0iMiIgd2lkdGg9IjMiIGhlaWdodD0iMyIgcng9IjEuNSIvPiYjeGE7CTwvZz4mI3hhOwk8cGF0aCBjbGFzcz0ic3QyIiBkPSJNMCA5aDIwdjdIMHoiLz4mI3hhOwk8cGF0aCBjbGFzcz0ic3QxIiBkPSJNMTggOWgydjdoLTJ6Ii8+JiN4YTsJPHBhdGggY2xhc3M9InN0MCIgZD0iTTE4IDE2bDItN2gtMnoiLz4mI3hhOwk8cGF0aCBjbGFzcz0ic3QxIiBkPSJNMCA5aDJ2N0gweiIvPiYjeGE7CTxnIGNsYXNzPSJzdDMiPiYjeGE7CQk8cGF0aCBkPSJNNCAxMmg2djFINHoiLz4mI3hhOwkJPHJlY3QgeD0iMTMiIHk9IjExIiB3aWR0aD0iMyIgaGVpZ2h0PSIzIiByeD0iMS41Ii8+JiN4YTsJPC9nPiYjeGE7PC9zdmc+;" parent="1" vertex="1">
          <mxGeometry x="655" y="696" width="42" height="34" as="geometry" />
        </mxCell>
        <mxCell id="wvHN0B2mU-6-lQxxzvEV-3" value="&lt;h1 style=&quot;margin-top: 0px; margin-bottom: 0px; margin-left: 0px;&quot;&gt;&lt;font style=&quot;font-size: 17px;&quot;&gt;Stockage&lt;/font&gt;&lt;/h1&gt;&lt;p style=&quot;margin-top: 0px; margin-left: 0px;&quot;&gt;&amp;nbsp; - Couche RAW/Files.&lt;/p&gt;" style="text;html=1;whiteSpace=wrap;overflow=hidden;rounded=0;" parent="1" vertex="1">
          <mxGeometry x="50" y="670" width="400" height="65" as="geometry" />
        </mxCell>
        <mxCell id="wvHN0B2mU-6-lQxxzvEV-4" value="&lt;h1 style=&quot;margin-top: 0px; margin-bottom: 0px; margin-left: 0px;&quot;&gt;&lt;font style=&quot;font-size: 17px;&quot;&gt;Stockage&lt;/font&gt;&lt;/h1&gt;&lt;p style=&quot;margin-top: 0px; margin-left: 0px; margin-bottom: 0px;&quot;&gt;&amp;nbsp; - Couches Couches Bronze, Silver, Gold/ODS,DWH, DTM&lt;/p&gt;&lt;h1 style=&quot;margin-top: 0px; margin-bottom: 0px; margin-left: 0px;&quot;&gt;&lt;font style=&quot;font-size: 17px;&quot;&gt;Traitement&lt;/font&gt;&lt;/h1&gt;&lt;p style=&quot;margin-top: 0px; margin-left: 0px; margin-bottom: 0px;&quot;&gt;&amp;nbsp; - SQL : totalité des traitements&lt;/p&gt;&lt;p style=&quot;margin-top: 0px; margin-left: 0px; margin-bottom: 0px;&quot;&gt;&amp;nbsp; - Hors SQL : peut être parfois efficace mais engendre un vendor lock-in&lt;/p&gt;" style="text;html=1;whiteSpace=wrap;overflow=hidden;rounded=0;" parent="1" vertex="1">
          <mxGeometry x="206" y="520" width="400" height="120" as="geometry" />
        </mxCell>
        <mxCell id="wvHN0B2mU-6-lQxxzvEV-5" value="&lt;h1 style=&quot;margin-top: 0px; margin-bottom: 0px; margin-left: 0px;&quot;&gt;&lt;font style=&quot;font-size: 17px;&quot;&gt;Orchestration&lt;/font&gt;&lt;/h1&gt;&lt;p style=&quot;margin-top: 0px; margin-left: 0px; margin-bottom: 0px;&quot;&gt;&amp;nbsp; - Workflow local à Dataform.&lt;/p&gt;&lt;p style=&quot;margin-top: 0px; margin-left: 0px; margin-bottom: 0px;&quot;&gt;&amp;nbsp; -&amp;nbsp;&lt;span style=&quot;background-color: transparent;&quot;&gt;Encapsulation de requêtes BigQuery&amp;nbsp;&lt;/span&gt;&lt;/p&gt;&lt;h1 style=&quot;margin-top: 0px; margin-bottom: 0px; margin-left: 0px;&quot;&gt;&lt;font style=&quot;font-size: 17px;&quot;&gt;Lignage et observabilité&lt;/font&gt;&lt;/h1&gt;&lt;p style=&quot;margin-top: 0px; margin-left: 0px; margin-bottom: 0px;&quot;&gt;&amp;nbsp; - Interface graphique de visualisation&lt;span style=&quot;background-color: transparent; color: light-dark(rgb(0, 0, 0), rgb(255, 255, 255));&quot;&gt;.&lt;/span&gt;&lt;/p&gt;" style="text;html=1;whiteSpace=wrap;overflow=hidden;rounded=0;" parent="1" vertex="1">
          <mxGeometry x="366" y="360" width="240" height="120" as="geometry" />
        </mxCell>
        <mxCell id="wvHN0B2mU-6-lQxxzvEV-6" value="&lt;h1 style=&quot;margin-top: 0px; margin-bottom: 0px; margin-left: 0px;&quot;&gt;&lt;font style=&quot;font-size: 17px;&quot;&gt;Ordonnancement&lt;/font&gt;&lt;/h1&gt;&lt;p style=&quot;margin-top: 0px; margin-left: 0px; margin-bottom: 0px;&quot;&gt;&amp;nbsp; - Workflow global faisant intervenir plusieurs services&lt;/p&gt;&lt;p style=&quot;margin-top: 0px; margin-left: 0px; margin-bottom: 0px;&quot;&gt;&amp;nbsp; -&amp;nbsp;&lt;span style=&quot;background-color: transparent;&quot;&gt;Encapsulation de requêtes BigQuery&lt;/span&gt;&lt;/p&gt;&lt;h1 style=&quot;margin-top: 0px; margin-bottom: 0px; margin-left: 0px;&quot;&gt;&lt;font style=&quot;font-size: 17px;&quot;&gt;Traitement&lt;/font&gt;&lt;/h1&gt;&lt;p style=&quot;margin-top: 0px; margin-left: 0px; margin-bottom: 0px;&quot;&gt;&amp;nbsp; - Hors SQL : Permet d&#39;éviter un vendor lock-in mais consomme de la ressource hors BigQuery&lt;/p&gt;" style="text;html=1;whiteSpace=wrap;overflow=hidden;rounded=0;" parent="1" vertex="1">
          <mxGeometry x="50" y="190" width="400" height="120" as="geometry" />
        </mxCell>
        <mxCell id="wvHN0B2mU-6-lQxxzvEV-7" value="" style="endArrow=classic;html=1;rounded=0;exitX=0.88;exitY=0.998;exitDx=0;exitDy=0;exitPerimeter=0;entryX=0.774;entryY=0.017;entryDx=0;entryDy=0;entryPerimeter=0;strokeColor=light-dark(#4285f4, #ededed);" parent="1" source="8D-roK8uWGWnyNG4y7UZ-2" target="HDt5qQ447RyKZo5QMaGn-2" edge="1">
          <mxGeometry width="50" height="50" relative="1" as="geometry">
            <mxPoint x="330" y="520" as="sourcePoint" />
            <mxPoint x="380" y="470" as="targetPoint" />
          </mxGeometry>
        </mxCell>
        <mxCell id="wvHN0B2mU-6-lQxxzvEV-8" value="Lancer un workflow" style="edgeLabel;html=1;align=center;verticalAlign=middle;resizable=0;points=[];" parent="wvHN0B2mU-6-lQxxzvEV-7" vertex="1" connectable="0">
          <mxGeometry x="-0.0248" y="3" relative="1" as="geometry">
            <mxPoint as="offset" />
          </mxGeometry>
        </mxCell>
        <mxCell id="wvHN0B2mU-6-lQxxzvEV-9" value="" style="endArrow=classic;html=1;rounded=0;exitX=0.845;exitY=1.01;exitDx=0;exitDy=0;exitPerimeter=0;strokeColor=light-dark(#4285f4, #ededed);entryX=0.844;entryY=0;entryDx=0;entryDy=0;entryPerimeter=0;" parent="1" target="E2KZnU7wXPEwBcaBg1pS-1" edge="1">
          <mxGeometry width="50" height="50" relative="1" as="geometry">
            <mxPoint x="639" y="479.8" as="sourcePoint" />
            <mxPoint x="639" y="510" as="targetPoint" />
          </mxGeometry>
        </mxCell>
        <mxCell id="wvHN0B2mU-6-lQxxzvEV-10" value="Lancer une requête" style="edgeLabel;html=1;align=center;verticalAlign=middle;resizable=0;points=[];" parent="wvHN0B2mU-6-lQxxzvEV-9" vertex="1" connectable="0">
          <mxGeometry x="-0.0248" y="3" relative="1" as="geometry">
            <mxPoint as="offset" />
          </mxGeometry>
        </mxCell>
        <mxCell id="wvHN0B2mU-6-lQxxzvEV-11" value="" style="endArrow=classic;html=1;rounded=0;exitX=0.845;exitY=1.01;exitDx=0;exitDy=0;exitPerimeter=0;strokeColor=light-dark(#4285f4, #ededed);entryX=0.881;entryY=-0.008;entryDx=0;entryDy=0;entryPerimeter=0;" parent="1" edge="1">
          <mxGeometry width="50" height="50" relative="1" as="geometry">
            <mxPoint x="276" y="640" as="sourcePoint" />
            <mxPoint x="276.08000000000015" y="677.3600000000001" as="targetPoint" />
          </mxGeometry>
        </mxCell>
        <mxCell id="wvHN0B2mU-6-lQxxzvEV-12" value="Ingérer un fichier" style="edgeLabel;html=1;align=center;verticalAlign=middle;resizable=0;points=[];" parent="wvHN0B2mU-6-lQxxzvEV-11" vertex="1" connectable="0">
          <mxGeometry x="-0.0248" y="3" relative="1" as="geometry">
            <mxPoint as="offset" />
          </mxGeometry>
        </mxCell>
        <mxCell id="wvHN0B2mU-6-lQxxzvEV-13" value="" style="endArrow=classic;html=1;rounded=0;exitX=0;exitY=1;exitDx=0;exitDy=0;entryX=0;entryY=0;entryDx=0;entryDy=0;strokeColor=light-dark(#4285f4, #ededed);" parent="1" edge="1">
          <mxGeometry width="50" height="50" relative="1" as="geometry">
            <mxPoint x="280" y="320" as="sourcePoint" />
            <mxPoint x="279.99999999999955" y="520" as="targetPoint" />
          </mxGeometry>
        </mxCell>
        <mxCell id="wvHN0B2mU-6-lQxxzvEV-14" value="Lancer une requête" style="edgeLabel;html=1;align=center;verticalAlign=middle;resizable=0;points=[];" parent="wvHN0B2mU-6-lQxxzvEV-13" vertex="1" connectable="0">
          <mxGeometry x="-0.0248" y="3" relative="1" as="geometry">
            <mxPoint as="offset" />
          </mxGeometry>
        </mxCell>
        <mxCell id="wvHN0B2mU-6-lQxxzvEV-15" value="" style="endArrow=classic;html=1;rounded=0;exitX=0;exitY=1;exitDx=0;exitDy=0;entryX=0.075;entryY=0.154;entryDx=0;entryDy=0;strokeColor=light-dark(#4285f4, #ededed);entryPerimeter=0;" parent="1" target="wvHN0B2mU-6-lQxxzvEV-3" edge="1">
          <mxGeometry width="50" height="50" relative="1" as="geometry">
            <mxPoint x="80" y="320" as="sourcePoint" />
            <mxPoint x="79.99999999999955" y="520" as="targetPoint" />
          </mxGeometry>
        </mxCell>
        <mxCell id="wvHN0B2mU-6-lQxxzvEV-16" value="Lire un fichier" style="edgeLabel;html=1;align=center;verticalAlign=middle;resizable=0;points=[];" parent="wvHN0B2mU-6-lQxxzvEV-15" vertex="1" connectable="0">
          <mxGeometry x="-0.0248" y="3" relative="1" as="geometry">
            <mxPoint as="offset" />
          </mxGeometry>
        </mxCell>
        <mxCell id="NexrNAKhiSDGvYHPv7gv-1" value="Événements + Log + Notification" style="shape=cylinder3;whiteSpace=wrap;html=1;fixedSize=1;size=6.114654541015625;textDirection=vertical-lr;boundedLbl=1;backgroundOutline=1;rotation=-90;fontColor=light-dark(#000000,#EDEDED);strokeColor=light-dark(#4285f4, #ededed);" parent="1" vertex="1">
          <mxGeometry x="338.87" y="-225.79" width="81.17" height="690" as="geometry" />
        </mxCell>
        <mxCell id="NexrNAKhiSDGvYHPv7gv-2" value="Pub/Sub" style="sketch=0;html=1;verticalAlign=top;labelPosition=center;verticalLabelPosition=bottom;align=center;spacingTop=-6;fontSize=11;fontStyle=1;fontColor=#999999;shape=image;aspect=fixed;imageAspect=0;image=data:image/svg+xml,PHN2ZyB4bWxucz0iaHR0cDovL3d3dy53My5vcmcvMjAwMC9zdmciIHhtbG5zOnY9Imh0dHBzOi8vdmVjdGEuaW8vbmFubyIgd2lkdGg9IjE4LjMxOTk5OTY5NDgyNDIyIiBoZWlnaHQ9IjIwLjAwMDAwMTkwNzM0ODYzMyIgdmlld0JveD0iMCAwIDE4LjMxOTk5OTY5NDgyNDIyIDIwLjAwMDAwMTkwNzM0ODYzMyI+JiN4YTsJPHN0eWxlIHR5cGU9InRleHQvY3NzIj4mI3hhOwkuc3Qwe2ZpbGw6IzY2OWRmNjt9JiN4YTsJLnN0MXtmaWxsOiM0Mjg1ZjQ7fSYjeGE7CS5zdDJ7ZmlsbDojYWVjYmZhO30mI3hhOwk8L3N0eWxlPiYjeGE7CTxkZWZzPiYjeGE7CQk8ZmlsdGVyIGlkPSJBIiB4PSI0LjY0IiB5PSI0LjE5IiB3aWR0aD0iMTQuNzMiIGhlaWdodD0iMTIuNzYiIGZpbHRlclVuaXRzPSJ1c2VyU3BhY2VPblVzZSIgY29sb3ItaW50ZXJwb2xhdGlvbi1maWx0ZXJzPSJzUkdCIj4mI3hhOwkJCTxmZUZsb29kIGZsb29kLWNvbG9yPSIjZmZmIi8+JiN4YTsJCQk8ZmVCbGVuZCBpbj0iU291cmNlR3JhcGhpYyIvPiYjeGE7CQk8L2ZpbHRlcj4mI3hhOwkJPG1hc2sgaWQ9IkIiIHg9IjQuNjQiIHk9IjQuMTkiIHdpZHRoPSIxNC43MyIgaGVpZ2h0PSIxMi43NiIgbWFza1VuaXRzPSJ1c2VyU3BhY2VPblVzZSI+JiN4YTsJCQk8Y2lyY2xlIGN4PSIxMiIgY3k9IjEyLjIzIiByPSIzLjU4IiBmaWx0ZXI9InVybCgjQSkiLz4mI3hhOwkJPC9tYXNrPiYjeGE7CTwvZGVmcz4mI3hhOwk8ZyBjbGFzcz0ic3QwIj4mI3hhOwkJPGNpcmNsZSBjeD0iMTYuMTMiIGN5PSI2LjIxIiByPSIxLjcyIi8+JiN4YTsJCTxjaXJjbGUgY3g9IjIuMTkiIGN5PSI2LjIxIiByPSIxLjcyIi8+JiN4YTsJCTxjaXJjbGUgY3g9IjkuMTYiIGN5PSIxOC4yOCIgcj0iMS43MiIvPiYjeGE7CTwvZz4mI3hhOwk8ZyBtYXNrPSJ1cmwoI0IpIiB0cmFuc2Zvcm09InRyYW5zbGF0ZSgtMi44NCAtMikiPiYjeGE7CQk8cGF0aCB0cmFuc2Zvcm09Im1hdHJpeCguNSAtLjg3IC44NyAuNSAtNC41OSAyMC41MykiIGQ9Ik0xNC42OSAxMC4yMmgxLjU5djguMDRoLTEuNTl6IiBjbGFzcz0ic3QxIi8+JiN4YTsJCTxwYXRoIHRyYW5zZm9ybT0icm90YXRlKDMzMCA4LjUyMyAxNC4yNDQpIiBkPSJNNC40OSAxMy40NWg4LjA0djEuNTlINC40OXoiIGNsYXNzPSJzdDEiLz4mI3hhOwkJPHBhdGggZD0iTTExLjIgNC4xOWgxLjU5djguMDRIMTEuMnoiIGNsYXNzPSJzdDEiLz4mI3hhOwk8L2c+JiN4YTsJPGcgY2xhc3M9InN0MiI+JiN4YTsJCTxjaXJjbGUgY3g9IjkuMTYiIGN5PSIxMC4yMyIgcj0iMi43OCIvPiYjeGE7CQk8Y2lyY2xlIGN4PSIyLjE5IiBjeT0iMTQuMjUiIHI9IjIuMTkiLz4mI3hhOwkJPGNpcmNsZSBjeD0iMTYuMTMiIGN5PSIxNC4yNSIgcj0iMi4xOSIvPiYjeGE7CQk8Y2lyY2xlIGN4PSI5LjE2IiBjeT0iMi4xOSIgcj0iMi4xOSIvPiYjeGE7CTwvZz4mI3hhOzwvc3ZnPg==;" parent="1" vertex="1">
          <mxGeometry x="650" y="90.00000000000009" width="38" height="42" as="geometry" />
        </mxCell>
        <mxCell id="NexrNAKhiSDGvYHPv7gv-3" value="" style="endArrow=classic;html=1;rounded=0;exitX=0.75;exitY=0;exitDx=0;exitDy=0;entryX=0;entryY=0;entryDx=0;entryDy=514.4426727294922;strokeColor=light-dark(#4285f4, #ededed);entryPerimeter=0;" parent="1" source="8D-roK8uWGWnyNG4y7UZ-2" target="NexrNAKhiSDGvYHPv7gv-1" edge="1">
          <mxGeometry width="50" height="50" relative="1" as="geometry">
            <mxPoint x="880" y="330" as="sourcePoint" />
            <mxPoint x="879.9999999999995" y="530" as="targetPoint" />
          </mxGeometry>
        </mxCell>
        <mxCell id="NexrNAKhiSDGvYHPv7gv-4" value="Logs applicatives" style="edgeLabel;html=1;align=center;verticalAlign=middle;resizable=0;points=[];" parent="NexrNAKhiSDGvYHPv7gv-3" vertex="1" connectable="0">
          <mxGeometry x="-0.0248" y="3" relative="1" as="geometry">
            <mxPoint as="offset" />
          </mxGeometry>
        </mxCell>
        <mxCell id="NexrNAKhiSDGvYHPv7gv-5" value="" style="endArrow=classic;html=1;rounded=0;exitX=0;exitY=0;exitDx=0;exitDy=175.5573272705078;entryX=0.25;entryY=0;entryDx=0;entryDy=0;strokeColor=light-dark(#4285f4, #ededed);exitPerimeter=0;" parent="1" source="NexrNAKhiSDGvYHPv7gv-1" target="8D-roK8uWGWnyNG4y7UZ-2" edge="1">
          <mxGeometry width="50" height="50" relative="1" as="geometry">
            <mxPoint x="841.1" y="250.21" as="sourcePoint" />
            <mxPoint x="840.1" y="210.21" as="targetPoint" />
          </mxGeometry>
        </mxCell>
        <mxCell id="NexrNAKhiSDGvYHPv7gv-6" value="&lt;span style=&quot;font-size: 12px; text-wrap-mode: wrap; background-color: rgb(236, 236, 236);&quot;&gt;É&lt;/span&gt;vènements" style="edgeLabel;html=1;align=center;verticalAlign=middle;resizable=0;points=[];" parent="NexrNAKhiSDGvYHPv7gv-5" vertex="1" connectable="0">
          <mxGeometry x="-0.0248" y="3" relative="1" as="geometry">
            <mxPoint as="offset" />
          </mxGeometry>
        </mxCell>
      </root>
    </mxGraphModel>
  </diagram>
  <diagram id="zWL4sPdxPGMx1YnQXHcu" name="Exemple de workflow">
    <mxGraphModel dx="2893" dy="1201" grid="0" gridSize="10" guides="1" tooltips="1" connect="1" arrows="1" fold="1" page="1" pageScale="1" pageWidth="827" pageHeight="1169" math="0" shadow="0">
      <root>
        <mxCell id="0" />
        <mxCell id="1" parent="0" />
        <mxCell id="k7553etfNbpzjwleOUmd-1" value="" style="rounded=0;whiteSpace=wrap;html=1;strokeColor=light-dark(#4285f4, #ededed);" parent="1" vertex="1">
          <mxGeometry x="-360" y="597" width="1000" height="80" as="geometry" />
        </mxCell>
        <mxCell id="k7553etfNbpzjwleOUmd-2" value="" style="rounded=0;whiteSpace=wrap;html=1;strokeColor=light-dark(#4285f4, #ededed);" parent="1" vertex="1">
          <mxGeometry x="37" y="440" width="603" height="120" as="geometry" />
        </mxCell>
        <mxCell id="k7553etfNbpzjwleOUmd-3" value="BigQuery" style="sketch=0;html=1;verticalAlign=top;labelPosition=center;verticalLabelPosition=bottom;align=center;spacingTop=-6;fontSize=11;fontStyle=1;fontColor=#999999;shape=image;aspect=fixed;imageAspect=0;image=data:image/svg+xml,PHN2ZyB4bWxucz0iaHR0cDovL3d3dy53My5vcmcvMjAwMC9zdmciIHhtbG5zOnY9Imh0dHBzOi8vdmVjdGEuaW8vbmFubyIgd2lkdGg9IjIwLjAwMTA0NTIyNzA1MDc4IiBoZWlnaHQ9IjIwLjAwMTA0NTIyNzA1MDc4IiBmaWxsLXJ1bGU9ImV2ZW5vZGQiIHZpZXdCb3g9IjAgMCAyMC4wMDEwNDUyMjcwNTA3OCAyMC4wMDEwNDUyMjcwNTA3OCI+JiN4YTsJPHN0eWxlIHR5cGU9InRleHQvY3NzIj4mI3hhOwkuc3Qwe2ZpbGw6I2FlY2JmYTt9JiN4YTsJLnN0MXtmaWxsOiM2NjlkZjY7fSYjeGE7CS5zdDJ7ZmlsbDojNDI4NWY0O30mI3hhOwk8L3N0eWxlPiYjeGE7CTxwYXRoIGNsYXNzPSJzdDAiIGQ9Ik00LjczIDguODN2Mi42M2E0LjkxIDQuOTEgMCAwIDAgMS43MSAxLjc0VjguODN6Ii8+JiN4YTsJPHBhdGggY2xhc3M9InN0MSIgZD0iTTcuODkgNi40MXY3LjUzQTcuNjIgNy42MiAwIDAgMCA5IDE0YTggOCAwIDAgMCAxIDBWNi40MXoiLz4mI3hhOwk8cGF0aCBjbGFzcz0ic3QwIiBkPSJNMTEuNjQgOS44NnYzLjI5YTUgNSAwIDAgMCAxLjctMS44MlY5Ljg2eiIvPiYjeGE7CTxwYXRoIGNsYXNzPSJzdDIiIGQ9Ik0xNS43NCAxNC4zMmwtMS40MiAxLjQyYS40Mi40MiAwIDAgMCAwIC42bDMuNTQgMy41NGEuNDIuNDIgMCAwIDAgLjU5IDBsMS40My0xLjQzYS40Mi40MiAwIDAgMCAwLS41OWwtMy41NC0zLjU0YS40Mi40MiAwIDAgMC0uNiAwIi8+JiN4YTsJPHBhdGggY2xhc3M9InN0MSIgZD0iTTkgMGE5IDkgMCAxIDAgMCAxOEE5IDkgMCAxIDAgOSAwbTAgMTUuNjlhNi42OCA2LjY4IDAgMCAxIC4wMDctMTMuMzYgNi42OCA2LjY4IDAgMCAxIDQuNzI3IDExLjQwM0E2LjY4IDYuNjggMCAwIDEgOSAxNS42OSIvPiYjeGE7PC9zdmc+;" parent="1" vertex="1">
          <mxGeometry x="548" y="470" width="42" height="42" as="geometry" />
        </mxCell>
        <mxCell id="k7553etfNbpzjwleOUmd-4" value="" style="rounded=0;whiteSpace=wrap;html=1;strokeColor=light-dark(#4285f4, #ededed);" parent="1" vertex="1">
          <mxGeometry x="197" y="280" width="443" height="120" as="geometry" />
        </mxCell>
        <mxCell id="k7553etfNbpzjwleOUmd-5" value="Dataform" style="shape=image;verticalLabelPosition=bottom;labelBackgroundColor=none;verticalAlign=top;aspect=fixed;imageAspect=0;image=data:image/png,iVBORw0KGgoAAAANSUhEUgAAAgAAAAIACAYAAAD0eNT6AAAACXBIWXMAAAsSAAALEgHS3X78AAAfTklEQVR4nO3dvW5k57Um4CVDDAgHrTvoPlfQPQDzpuELUPMKmmbC0DypE20lTg8VMqHYV1CtbBJDZE6Mu8fBJAZM4swZwMaBjijbKEN1JE5Qm1ar1T9k7apa+/u+5wEIGZJgvOqA6/3W/vvg+vo6AIC2/Cw7AACwfgoAADRIAQCABikAANAgBQAAGqQAAECDFAAAaJACAAANUgAAoEEKAAA0SAEAgAYpAADQIAUAABqkAABAgxQAAGiQAgAADVIAAKBBCgAANEgBAIAGKQAA0CAFAAAapAAAQIMUAABokAIAAA1SAACgQQoAADRIAQCABikAANAgBQAAGqQAAECDFAAAaJACAAANUgAAoEEKAAA0SAEAgAYpAADQIAUAABqkAABAgxQAAGiQAgAADVIAAKBBCgAANEgBAIAGKQAA0CAFAAAapAAAQIM+zA4w1OR8tp2doSAXO1sbF9khAMj3wfX1dXaGQSbns7L/A3JdRcSL/n9fvP6jLADUSwHgfc7ih1JwGhEvdrY2vk7MA8ASKAAs4jLmZeA05oXgxTv/bQBGRwFgGa4i4nn0pcClA4DxUwBYhZcRcRLzMmA7ADBCCgCrdhnzMnBiMwAwHgoA6/QyIg4j4rkbCQFyKQBkeRbzrcBpdhCAFikAZHsZEYc7WxsnyTkAmqIAMBY39wocujwAsHoKAGNzFfP7BBQBgBVSABgrRQBghXwNkLG6FxGfRMTF5Hy2m5wFoDo2AJTiMiJ2PTUAsBw2AJTifkR8OTmfnU7OZw+ywwCUTgGgNI8j4k+T81mXHQSgZC4BULKXEXHgsgDA3dkAULKHMb8scJgdBKA0NgDU4mXMbxL09UGAW7ABoBYPI+L3k/PZQXYQgBLYAFCjs4h44gVCAG9nA0CNHkfEi8n57FF2EICxUgCo1f2YXxLYzQ4CMEYKALX7fHI+O8kOATA27gGgFe4LAHiFDQCteBwRXiMM0FMAaMnDcHMgQEQoALTnXsw3AUoA0DQFgBbdlIDt7CAAWRQAWnUv5t8R2M0OApBBAaB1nysBQIsUAJiXgO3sEADrpADA3HM3BgItUQBgztMBQFMUAPjBTQl4kB0EYNUUAPixezG/HPBRdhCAVVIA4KceRsRpdgiAVVIA4M0e+oogUDMFAN7uqXcEALVSAODdPvdkAFAjBQDe79RNgUBtPswOsARn2QEK8yjmd7pze/ci4nlEbCfnAFiaD66vr7MzkKA/0T6KiAf9z6P+535eqtH7dGdro8sOAbAMCgA/0heD7Vd+HibGGaP/sbO18SI7BMBQCgDv1L8VbzsinkTEx6lhxuEyIh7tbG18nR0EYAgFgFvrtwNPIuIg2t4MfLaztXGQHQJgCAWAhfSbgYOI2I02byr8xc7Wxml2CIBFKQAM0m8FbopASzcQuhQAFE0BYGn6t+YdRjsbAU8FAMVSAFiqVzYCB9FGEfBUAFAkBYCV6O8ROIz6nxw429na2M4OAXBXCgArNTmfbUfESdR9f8CvdrY2TrJDANyFAsDK9ZcFuoj4dXKUVXFDIFAcHwNi5Xa2Nr7un5v/RURcZedZgfsxv+cBoBg2AKxVvw14HhGPs7Ms2VVEPLAFAEphA8Ba9duA7Yj4LDvLkt0LWwCgIDYApOnfG/B5do4l+5edrY2L7BAA72MDQJr+zvna7gvosgMA3IYNAOkm57NHEXEa9bw4yBYAGD0bANL1b9Lbjno2AV12AID3sQFgNCrbBNgCAKNmA8BoVLYJOMwOAPAuNgCMTv/64C+zcyzBL3a2Nk6zQwC8iQ0Ao9MPzV9l51iCLjsAwNsoAIxS/4hg6S8LetxvMwBGRwFgtPrvB5xl5xioyw4A8CYKAGP3JOZf2yuVLQAwSgoAo9Z/XGc3O8dAJ9kBAF6nADB6/U2Bn2bnGOB+/90DgNHwGCDFmJzPXkTEw+wcC7rc2dp4kB0C4IYNACXZzQ4wgC0AMCoKAMXo3xRY8qOBXXYAgBsKAKXpotxXBd+fnM8OskMARLgHgAL1q/TPs3Ms6CoiHvRPNwCksQGgOP1bAkt9N8C9iLAFANIpAJSq5CF6MDmffZQdAmibAkCRdrY2nke5rwm2BQDSKQCUrMsOMIAtAJBKAaBY/RsCS94CdNkhgHYpAJSuyw4wwK8n57MH2SGANikAFK3wLUBE2QUGKJgCQA1KvqHuqS0AkEEBoHj9K4KfZecYoMsOALRHAaAWXXaAAWwBgLVTAKjCztbGRZS9BTjJDgC0RQGgJl12gAEeT85n29khgHYoAFSjgi1Alx0AaIcCQG0OotzPBdsCAGujAFCV/jO7h9k5BuiyAwBtUACo0WHYAgC8kwJAdSrYApxkBwDqpwBQq5K3APcn57Pd7BBA3RQAqlTBFqDLDgDU7YPr6+vsDLAyk/PZRUTcz86xoF/tbG2cZIcA6mQDQO267AADdNkBgHopAFStP0FfJsdY1P3J+azLDgHUSQGgBV12gAEOJuezj7JDAPVRAKhe4VuAezF/uyHAUikAtKLkIWoLACydAkATdrY2nkfEWXaOBdkCAEunANCSLjvAALYAwFIpADRjZ2vjNMreApT8YiNgZBQAWtNlBxjg6eR89iA7BFCH4t8EuH883c7OkOTiaG/zIjtEiSbns9OIeJydY0HPdrY2drNDAOX7MDvAEnyZHSDJp1H2aTbTbkT8KTvEgp5OzmfdztbGRXYQoGwuAdCcfng+y84xQJcdACifAkCruuwAAzydnM8eZYcAyqYA0KQKtgCeCAAGUQBoWZcdYIDHk/PZdnYIoFwKAM3qtwCfZecYoMsOAJRLAaB1XURcZYdYkC0AsDAFgKbtbG18HWVfT++yAwBlUgBgXgBK3gI8yQ5Bjl/+9u++D8HCFACaV8EWoOTsLKgf/qe//O3fT7KzUCYFAOZK3gLcn5zPdrNDsD43wz8iHkbEUyWARSgAEP/cAnTZOQbosgOwHq8N/xtKAHemAEBvZ2vjMCIus3MsyBagAW8Z/jeUAO5EAYAf67IDDNBlB2B13jP8bygB3JoCAK/Y2do4ibK3AF12CJbvlsP/hhLArSgA8FNddoABDibnM4+GVeSOw/+GEsB7KQDwmsK3APci4iA7BMux4PC/oQTwTgoAvNludoABbAEqMHD431ACeCsFAN5gZ2vjNCLOsnMsyBagcEsa/jeUAN5IAYC367IDDGALUKglD/8bSgA/oQDAW1SwBfCK4MKsaPjfUAL4EQUA3q3LDjDA08n57EF2CG5nxcP/hhLAPykA8A6FbwEiyi4wzVjT8L+hBBARCgDcxm52gAFsAUZuzcP/hhKAAgDvs7O1cRERz7JzDNBlB+DNkob/DSWgcQoA3E6XHWCAp5Pz2XZ2CH4sefjfUAIapgDALdgCsEwjGf43lIBGKQBwe112gAEe2wKMw8iG/w0loEEKANxSvwX4NDvHAF12gNaNdPjfUAIaowDA3RxGxFV2iAXZAiQa+fC/oQQ0RAGAO9jZ2vg6yn7DXpcdoEWFDP8bSkAjFAC4u9K3ALvZIVpS2PC/oQQ0QAGAO7IF4LYKHf43lIDKKQCwmJK3APdtAVav8OF/QwmomAIAC+i3AAfZOQbosgPUrJLhf0MJqJQCAAva2do4iYjL5BiLsgVYkcqG/w0loEIKAAzTZQcYoJuczz7KDlGTSof/DSWgMgoADFD6FiDKvowxKpUP/xtKQEUUABiuyw4wwIEtwNIcRN3D/4YSUAkFAAbqtwAvk2Ms6l7YAizF737z8y7K/mDUXSgBFVAAYDlKHqK2AEvyu9/8fDeUAAqhAMAS7GxtnEbEWXaOBdkCLJESQCkUAFieLjvAAAeT89mD7BC1UAIogQIAS1LBFqDLDlETJYCxUwBgubrsAAM8tQVYLiWAMVMAYIn6LcAX2TkG6LID1EYJYKwUAFi+km+oswVYASWAMVIAYMl2tjYuouxf9l12gBopAYyNAgCr0WUHGODp5Hy2nR2iRkoAY6IAwArYAvA2SgBjoQDA6nTZAQZ4bAuwOkoAY6AAwIr0W4BPs3MMcJgdoGZKANkUAFitw4i4yg6xoIeT89ludoiaKQFkUgBghXa2Nr6Osk/Shz4UtFpKAFkUAFi9krcA96LsAlMEJYAMCgCsWAVbAI8FroESwLopALAeJW8BIiKeuxSwekoA66QAwBr0W4CSXxF8LyJOskO0QAlgXRQAWJOdrY2TiLhMjjHEx5PzWcklphhKAOugAMB6ddkBBvq3yfnsUXaIFigBrJoCAGtUwRYgIuLU/QDroQSwSgoArF+XHWCge6EErI0SwKp8cH19nZ1hkP3jaZedIcnp0d7maXYIFjM5n51GxOPsHAOd7WxtbGeHaEU/GJ9m51iTZ33xYYWKLwBQov65+i+zcyzBs52tjd3sEK1QAlgmlwAgwc7WxmlEnGXnWIKnk/PZSXaIVrgcwDIpAJCnyw6wJErAGikBLIsCAEkq2gJEKAFrpQSwDO4BgEQV3Qtw42VEbPdvPmTF3BPAEDYAkKjfAtR0knsY80cEH2QHaYFNAEMoAJCvyw6wZA8j4oUvCK6HEsCiFABItrO1cRH1/QK/FxFfTs5nXXaQFigBLMI9ADAC/cr8RcwHZ23OIuKJ+wJWzz0B3IUNAIxAvwU4zM6xIo8j4mJyPnuSHaR2NgHchQ0AjET/bv0XEXE/O8sKfRERB33hYUVsArgNGwAYiX5FfpCdY8U+jvkNgl12kJrZBHAbNgAwMpV8KOg2LiOi6z+RzArYBPAuCgCMTOU3BL6JIrBCSgBvowDACPUr8k+yc6yZIrAiSgBvogDASE3OZy9i/lKd1lxFxElEHLpZcHmUAF6nAMBITc5njyLi99k5kp3FvAw89x6B4ZQAXqUAwIhNzmcHEfFv2TlG4iwinkfE6c7WxovsMKVSArihAMDINfRUwF1cRsRpzG+WfNF/VIlbUgKIUABg9PoXBF1EO08FLOplzP+cXkTE1/1fI+YFweWD1ygBKABQgP41upPsHGMz+y7ir9P577Cv/n79k79345t/XMd/f7f2eKP356vrn/xZVUwJeI0CAIVo9NHAiIiYfnsd3/xjPti/mc6H+c3AZxgloF0KABSkhfsBZv1w/+v0Or7627XT+xooAW1SAKAgNX4w6Gbgf/W3+c9f/+F3UgYloD0KABSmfz/AaRR8U+D02+v48zfX8Zera6v8EVEC2qIAQIFKvCnwZuj/x1dO+WOmBLRDAYBCTc5nuxHxeXaOd5l9F/Ef//W9oV8YJaANCgAUbHI+O4yIX2fneN1Xf7ueD/7/8vulVEpA/RQAKNzkfHYSI3ihy+y7iL9883388c/fx/Tb7DQsgxJQNwUAKpBZAmbfRVz+5/dx8Z/fe1yvQkpAvRQAqMS6S8D02+v445+t+VugBNRJAYCKrKMEGPxtUgLqowBAZVZVAm5W/X/88/fL/r+mEEpAXRQAqNCyS8BFP/hd40cJqIcCAJVaRgn46m/X8Yf/+527+vkRJaAOCgBUbNH3BEy/vY7/8/++j7984/cDb6YElE8BgMrd9Y2B1v3clhJQNgUAGjA5n21HxPN4xweEpt9exx/+/Xsf5+FOlIByKQDQiP4rgicR8fD1f+bUzxBKQJkUAGjI5Hz2UcxLwMcR80f7/vDv37nWz2BKQHkUAGjQ5HzWffW360/+1+V3Tv0sjRJQlg+zAwDr9z//939nR4DSPcoOMJQCAA3ZP57+6BIALEtjp/+XEbGdHWKon2UHANZj/3j6KCJOw/BnyVoc/r/7zc+/zg4ylA0ANGD/eLod73kMEBZh+JfLBgAqt3883Y2IL8PwZ8kM/7IpAFCx/eNpF3d4CyDcluFfPpcAoFL7x9OTWMFngcHwr4MNAFTI8GdVDP96KABQGcOfVTH866IAQEUMf1bF8K+PAgCVMPxZFcO/TgoAVMDwZ1UM/3opAFA4w59VMfzrpgBAwfaPp4dh+LMChn/9fA4YCtW/4c9Lflg6w78NCgAUaP94+iQiJtk5qI/h3w4FAArzylf9vNufpTL826IAQEH2j6cfRcSLiLifnYW6GP7tcRMglOV5GP4smeHfJgUACtF/2e9xdg7qYvi3yyUAKMD+8XQ7Ir7MzkFdDP+2KQAwcv11/4tw09/7vIz5n9OLiPi6/2tExIujvU2/9F/zy9/+/STaeYeE4f8GH2YHAN7reRj+r7uM+ZMQL2I+4E9T0xTG8CdCAYBR2z+eHoTr/jfOYl6GTo/2Nl+871/mzQx/brgEACPlef+ImP8CP4yI59b4wxn+vMoGAMbrJNoc/lcx/28/PNrbvMiNUg/Dn9cpADBC/er/YXaONbuMiO5ob/MkO0htDH/exCUAGJn94+mDmN/c1srp3+BfIcOft7EBgPE5iTaGv8G/YoY/76IAwIj0X/mr/a7/q5hf3++yg9TM8Od9XAKAkWjkQz9nEbHr5r7VMvy5DRsAGI+DqHf4X8V88D/PDlI7w5/bsgGAEaj8xr+ziHjiOf7VM/y5CxsAGIcu6hz+n7rWvx6GP3dlAwDJ+tP/n7JzLNlVzE/9p9lBWmD4s4ifZQcAossOsGQvI+KR4b8ehj+LsgGARP37/n+fnWOJXkbEtuv962H4M4R7ACDXYXaAJXp2tLe5mx2iFYY/Q7kEAEn2j6fbUc9Lfwz/NTL8WQYFAPJ02QGWxPBfI8OfZVEAIEFFp3/Df40Mf5ap+HsA9o+nXXaGJKfusi5alx1gCc4M//Ux/Fm24gtARHySHSDRaXYA7q6SD/68jIgn2SFaYfizCi4BwPqVfuf/zUt+/IJeA8OfVVEAYI32j6e7Uf4Hf7Z9zW89DH9WSQGA9eqyAwz0r0d7my+yQ7TA8GfVFABYkwpO/18c7W2WfvmiCIY/66AAwBrsH08/irJP/1cRsZsdogWGP+uiAMB6HETZp/9dN/2tnuHPOikAsGL96f8gO8cAXxztbT7PDlE7w591UwBg9Q4i4l52iAVZ/a+B4U8GBQBWqILTf2f1v1qGP1kUAFitkk//L931v1qGP5kUAFiR/ePpgyj79F9y9tEz/MmmAMDqdFHu6f/Mx6ZWx/BnDBQAWIH+9F/yL/guO0CtDH/GQgGA1eiyAwzwhdP/ahj+jIkCAEtWwenftf8VMPwZGwUAlq/LDjDAM1/6Wz7DnzFSAGCJ9o+n21H2L/ouO0BtDH/GSgGA5eqyAwzg9L9khj9jpgDAkvSn/8fZOQbosgPUxPBn7BQAWJ4uO8AAnzr9L4/hTwkUAFiCwk//VxHhlb9LYvhTCgUAlqPLDjDAoQ/+LIfhT0kUABho/3i6G07/zfvlb/9+GIY/BVEAYLguO8AATv/LcxLzQlU7w78SCgAM0J/+72fnWJDT/xL97jc/fxER21F3CTD8K6IAwDBddoABDpz+l6vyEmD4V0YBgAUVfvq/PNrbPMkOUaNKS4DhXyEFABawfzz9KMo+/XfZAWpWWQkw/CulAMBiDsLpn3eopAQY/hVTAOCO+tN/yZ/M7bIDtKLwEmD4V04BgLs7iIh72SEW9NLpf70KLQGGfwMUALiDCk7/JWcvVmElwPBvhAIAd1Py6f/saG/zNDtEqwopAYZ/QxQAuKX94+mDiPgkO8cAXXaA1o28BBj+jVEA4Pa67AADOP2PxEhLgOHfIAUAbqE//Zf8oZcuOwA/GFkJMPwbpQDA7XTZAQb4wul/fEZSAgz/hikA8B4VnP7d+T9SySXA8G+cAgDvV/IX854d7W1eZIfg7ZJKgOGPAgDvsn883Y6Ij7NzDNBlB+D91lwCDH8iQgGA9+myAwzg9F+QNZUAw59/UgDgLfrT/+PsHAu6irLLS5NWXAIMf35EAYC367IDDHDo9F+mFZUAw5+fUADgDSo4/Zd842LzllwCDH/eSAGANyt5gB4e7W36ZV+4JZUAw5+3UgDgNfvH092IeJidY0FO/xUZWAIMf95JAYCf6rIDDOD0X5kFS4Dhz3spAPCK/vR/PzvHgi7D6b9KdywBhj+3ogDAj3XZAQbonP7rdcsSYPhzawoA9Eo//R/tbZ5kh2C13lMCDH/uRAGAiNg/nn4UZa/Pu+wArMdbSoDhz50pADB3EBH3skMsyOm/Ma+VAMOfhSgANK8//Zf8ydwuOwDr15eAR2H4s6APswPACJR8+j9z+m/X737z84vsDJTLBoCmOf0DrVIAaF3pp//T7BBAmRQAmrV/PH0QEZ9k5xigyw4AlEsBoGVddoABnP6BQRQAmtSf/p9m5xigyw4AlE0BoFVddoABnjn9A0MpADTH6R+gjvcA/CI7QJKL7AAFO8kOMMCzo73Ni+wQQPk+uL6+zs4Aa7N/PN2OiC+zcwzwLwoAsAwuAdCaLjvAAE7/wNIoADSjP/0/zs6xoKsou7wAI6MA0JIuO8AAh07/wDIpADShgtP/YXYIoC4KAK04yQ4wwOHR3qbPvQJLpQBQvf3j6W5E3M/OsSCnf2AlFABa0GUHGMDpH1gJ7wGgav3p//PsHAu6PNrbfJAdAqiTDQC167IDDNBlBwDqpQBQrf3j6UGUe+3/8mhv8yQ7BFAvBYAq7R9PP4qyT9BddgCgbgoAtTqIiHvZIRbk9A+snAJAdfrT/0F2jgFKzg4UQgGgRiWf/s+O9jafZ4cA6qcAUJUKTv9ddgCgDQoAtemi7NP/aXYIoA0KANXYP54+iIhfZ+cYoMsOALRDAaAmXXaAAZz+gbVSAKhCf/p/mp1jgJLvWwAKpABQiy47wADPjvY2X2SHANqiAFC8Ck7/XXYAoD0KADU4yQ4wwLOjvc2L7BBAexQAirZ/PN2OiMfZOQbosgMAbVIAKF2XHWAAp38gjQJAsQo//V+FO/+BRAoAJeuyAwxweLS3+XV2CKBdCgBF2j+ePomyT/+H2SGAtikAlKrkAer0D6RTACjO/vF0NyLuZ+dYkNM/MAoKAEXpP/db8gB1+gdGQQGgNF2U+7nfy6O9zS47BECEAkBB9o+nj8LnfgGWQgGgJCfZAQa4PNrbPMkOAXBDAaAI+8fTLiIeZucYoMsOAPCqD66vr7MzwDv1b/z7MjvHAJdHe5sPskMAvMoGgFHr7/o/yc4xkFf+AqOjADB2J1HuM/8REWdHe5vPs0MAvE4BYLT2j6eHEfFxdo6BuuwAAG/iHgBGqX/b3+fZOQY6O9rb3M4OAfAmNgCMTv+8f+nDP8LpHxgxBYBR6Yf/aXaOJTg72ts8zQ4B8DYKAKPxyvAv9VW/r9rNDgDwLgoAo1DZ8H92tLd5kR0C4F0UANJVNvwjXPsHCqAAkKp/y99p1DP8nf6BIigApOkf9fsy6hn+EU7/QCEUAFL0L/mp4VG/V33m9A+U4sPsALSlf7f/84h4nJ1lya7C6R8oiA0Aa9Nf77+I+oZ/RMTh0d7m19khAG7LBoCV60/9XUT8OjnKqlxGxGF2CIC7UABYqf7UfxJlf9HvfTqnf6A0PgbESvSn/sOIeJqdZcV88Acokg0AS9UP/oP+p6bH+97mIDsAwCIUAJamf67/MNoY/BERnx7tbb7IDgGwCAWAQV458e9G3df5X+fGP6BoCgAL2T+ePogfBn8rJ/5X7brxDyiZAsCt9af9JzEf+jU+y39bnx3tbZ5mhwAYQgHgnfqT/nbMB//HqWHG4TK88Q+ogALAj/Sn/O1Xfh4mxhmjJ1b/QA0UgEb1g/5RRDzofx71Py3dyHdX7voHqlH8i4D2j6en2RkK8yjavGlvKC/8AapSwwag5ZvRWI+rmN8DAVANXwOE93PdH6iOAgDv9q8e+QNqpADA2z072tv0tj+gSgoAvNnLo73N3ewQAKuiAMBPvYz5OxAAqqUAwI9dhff8Aw1QAOAHVxGx7WU/QAsUAJgz/IGmKAAwt2v4Ay1RACDiV0d7m8+zQwCskwJA6351tLd5kh0CYN1q+BYALOLmbn8nf6BJCgAtcsMf0DyXAGiN4Q8QCgBteRkRjwx/AAWAdpzF/OR/kR0EYAzcA0ALnvmwD8CP2QBQu18Z/gA/ZQNArdzsB/AONgDU6CwiHhj+AG9nA0Bt/vVob/MwOwTA2CkA1OJl+KAPwK25BEANPgvX+wHuxAaAkl3G/NR/mh0EoDQKAKX69Ghvs8sOAVAqBYDSnMX81H+RHQSgZAoApbDuB1giBYCxu4qIzqN9AMulADBWVxFxGBGHR3ubX2eHAaiNAsDYGPwAa6AAMBaXEXESBj/AWigAZHsZ86F/kh0EoCUKAFmeRcSJu/oBcigArNPLmF/ff27ND5BLAWDVLiPieczX/BfJWQDoKQCswsuY39B36gM9AOOkALAMVzE/5Z/GfOhfpKYB4L0UABZxGfNh/yKc8gGKpADwPmcRcdH/nEbECzfwAZRPAWjbVcxP8RE/DPl//ljlA9SrhgLwi+wABTHUAYiIiA+ur6+zMwAAa/az7AAAwPopAADQIAUAABqkAABAgxQAAGiQAgAADVIAAKBBCgAANEgBAIAGKQAA0CAFAAAapAAAQIMUAABokAIAAA1SAACgQQoAADRIAQCABikAANAgBQAAGqQAAECDFAAAaJACAAANUgAAoEEKAAA0SAEAgAYpAADQIAUAABqkAABAgxQAAGiQAgAADVIAAKBBCgAANEgBAIAGKQAA0CAFAAAapAAAQIMUAABokAIAAA1SAACgQQoAADRIAQCABikAANAgBQAAGqQAAECDFAAAaJACAAAN+v/0hO1v9T2O+gAAAABJRU5ErkJggg==;fontColor=light-dark(#999999, #ededed);html=1;spacingTop=-6;fontStyle=1;fontSize=11;" parent="1" vertex="1">
          <mxGeometry x="548" y="310" width="50" height="50" as="geometry" />
        </mxCell>
        <mxCell id="k7553etfNbpzjwleOUmd-6" value="" style="rounded=0;whiteSpace=wrap;html=1;strokeColor=light-dark(#4285f4, #ededed);fillColor=default;" parent="1" vertex="1">
          <mxGeometry x="-363" y="120" width="1003" height="120" as="geometry" />
        </mxCell>
        <mxCell id="k7553etfNbpzjwleOUmd-7" value="Cloud&amp;nbsp;Composer" style="sketch=0;html=1;verticalAlign=top;labelPosition=center;verticalLabelPosition=bottom;align=center;spacingTop=-6;fontSize=11;fontStyle=1;fontColor=#999999;shape=image;aspect=fixed;imageAspect=0;image=data:image/svg+xml,PHN2ZyB4bWxucz0iaHR0cDovL3d3dy53My5vcmcvMjAwMC9zdmciIHhtbG5zOnY9Imh0dHBzOi8vdmVjdGEuaW8vbmFubyIgd2lkdGg9IjE0LjY0MDAwMDM0MzMyMjc1NCIgaGVpZ2h0PSIyMCIgdmlld0JveD0iMCAwIDE0LjY0MDAwMDM0MzMyMjc1NCAyMCI+JiN4YTsJPHN0eWxlIHR5cGU9InRleHQvY3NzIj4mI3hhOwkuc3Qwe2ZpbGw6I2FlY2JmYTt9JiN4YTsJLnN0MXtmaWxsOiM0Mjg1ZjQ7fSYjeGE7CTwvc3R5bGU+JiN4YTsJPHBhdGggY2xhc3M9InN0MCIgZD0iTTAgMGgxNC42M3YzLjk0aC01LjN2NS4zM0g1LjM1VjMuOTZIMHoiLz4mI3hhOwk8cGF0aCBjbGFzcz0ic3QxIiBkPSJNMy45NSAxMC42N2g1LjM0VjIwSDUuMzV2LTUuMzVIMFY1LjM3aDMuOTV6TTE0LjY0IDIwSDEwLjdWNS4zNmgzLjk0eiIvPiYjeGE7CTxwYXRoIGNsYXNzPSJzdDAiIGQ9Ik0wIDE2LjA2aDMuOTJWMjBIMHoiLz4mI3hhOzwvc3ZnPg==;" parent="1" vertex="1">
          <mxGeometry x="553" y="154" width="32" height="42" as="geometry" />
        </mxCell>
        <mxCell id="k7553etfNbpzjwleOUmd-8" value="Cloud&amp;nbsp;Storage" style="sketch=0;html=1;verticalAlign=top;labelPosition=center;verticalLabelPosition=bottom;align=center;spacingTop=-6;fontSize=11;fontStyle=1;fontColor=#999999;shape=image;aspect=fixed;imageAspect=0;image=data:image/svg+xml,PHN2ZyB4bWxucz0iaHR0cDovL3d3dy53My5vcmcvMjAwMC9zdmciIHhtbG5zOnY9Imh0dHBzOi8vdmVjdGEuaW8vbmFubyIgd2lkdGg9IjIwIiBoZWlnaHQ9IjE2IiB2aWV3Qm94PSIwIDAgMjAgMTYiPiYjeGE7CTxzdHlsZSB0eXBlPSJ0ZXh0L2NzcyI+JiN4YTsJLnN0MHtmaWxsOiM0Mjg1ZjQ7fSYjeGE7CS5zdDF7ZmlsbDojNjY5ZGY2O30mI3hhOwkuc3Qye2ZpbGw6I2FlY2JmYTt9JiN4YTsJLnN0M3tmaWxsOiNmZmY7fSYjeGE7CTwvc3R5bGU+JiN4YTsJPHBhdGggY2xhc3M9InN0MiIgZD0iTTAgMGgyMHY3SDB6Ii8+JiN4YTsJPHBhdGggY2xhc3M9InN0MSIgZD0iTTE4IDBoMnY3aC0yeiIvPiYjeGE7CTxwYXRoIGNsYXNzPSJzdDAiIGQ9Ik0xOCA3bDItN2gtMnoiLz4mI3hhOwk8cGF0aCBjbGFzcz0ic3QxIiBkPSJNMCAwaDJ2N0gweiIvPiYjeGE7CTxnIGNsYXNzPSJzdDMiPiYjeGE7CQk8cGF0aCBkPSJNNCAzaDZ2MUg0eiIvPiYjeGE7CQk8cmVjdCB4PSIxMyIgeT0iMiIgd2lkdGg9IjMiIGhlaWdodD0iMyIgcng9IjEuNSIvPiYjeGE7CTwvZz4mI3hhOwk8cGF0aCBjbGFzcz0ic3QyIiBkPSJNMCA5aDIwdjdIMHoiLz4mI3hhOwk8cGF0aCBjbGFzcz0ic3QxIiBkPSJNMTggOWgydjdoLTJ6Ii8+JiN4YTsJPHBhdGggY2xhc3M9InN0MCIgZD0iTTE4IDE2bDItN2gtMnoiLz4mI3hhOwk8cGF0aCBjbGFzcz0ic3QxIiBkPSJNMCA5aDJ2N0gweiIvPiYjeGE7CTxnIGNsYXNzPSJzdDMiPiYjeGE7CQk8cGF0aCBkPSJNNCAxMmg2djFINHoiLz4mI3hhOwkJPHJlY3QgeD0iMTMiIHk9IjExIiB3aWR0aD0iMyIgaGVpZ2h0PSIzIiByeD0iMS41Ii8+JiN4YTsJPC9nPiYjeGE7PC9zdmc+;" parent="1" vertex="1">
          <mxGeometry x="556" y="616" width="42" height="34" as="geometry" />
        </mxCell>
        <mxCell id="k7553etfNbpzjwleOUmd-12" style="edgeStyle=orthogonalEdgeStyle;rounded=0;orthogonalLoop=1;jettySize=auto;html=1;entryX=0;entryY=0.5;entryDx=0;entryDy=0;strokeColor=light-dark(#4285f4, #ededed);" parent="1" target="k7553etfNbpzjwleOUmd-10" edge="1">
          <mxGeometry relative="1" as="geometry">
            <mxPoint x="-303" y="175" as="sourcePoint" />
          </mxGeometry>
        </mxCell>
        <mxCell id="k7553etfNbpzjwleOUmd-9" value="Début" style="ellipse;whiteSpace=wrap;html=1;aspect=fixed;strokeColor=light-dark(#4285f4, #ededed);fontColor=light-dark(#000000,#EDEDED);" parent="1" vertex="1">
          <mxGeometry x="-342" y="146" width="58" height="58" as="geometry" />
        </mxCell>
        <mxCell id="k7553etfNbpzjwleOUmd-17" style="edgeStyle=orthogonalEdgeStyle;rounded=0;orthogonalLoop=1;jettySize=auto;html=1;strokeColor=light-dark(#4285f4, #ededed);align=center;verticalAlign=middle;fontFamily=Helvetica;fontSize=11;fontColor=light-dark(#787878, #ededed);labelBackgroundColor=default;endArrow=classic;" parent="1" source="k7553etfNbpzjwleOUmd-10" target="k7553etfNbpzjwleOUmd-13" edge="1">
          <mxGeometry relative="1" as="geometry" />
        </mxCell>
        <mxCell id="k7553etfNbpzjwleOUmd-10" value="Vérifier que les fichiers sont disponibles" style="rounded=1;whiteSpace=wrap;html=1;strokeColor=light-dark(#4285f4, #ededed);fontColor=light-dark(#000000,#EDEDED);" parent="1" vertex="1">
          <mxGeometry x="-243" y="145" width="120" height="60" as="geometry" />
        </mxCell>
        <mxCell id="k7553etfNbpzjwleOUmd-11" value="" style="endArrow=classic;html=1;rounded=0;exitX=0.5;exitY=1;exitDx=0;exitDy=0;entryX=0.173;entryY=-0.023;entryDx=0;entryDy=0;entryPerimeter=0;strokeColor=light-dark(#4285f4, #ededed);" parent="1" source="k7553etfNbpzjwleOUmd-10" edge="1">
          <mxGeometry width="50" height="50" relative="1" as="geometry">
            <mxPoint x="-43" y="360" as="sourcePoint" />
            <mxPoint x="-183.07999999999993" y="595.1600000000001" as="targetPoint" />
          </mxGeometry>
        </mxCell>
        <mxCell id="k7553etfNbpzjwleOUmd-24" style="edgeStyle=orthogonalEdgeStyle;rounded=0;orthogonalLoop=1;jettySize=auto;html=1;entryX=0;entryY=0.5;entryDx=0;entryDy=0;strokeColor=light-dark(#4285f4, #ededed);align=center;verticalAlign=middle;fontFamily=Helvetica;fontSize=11;fontColor=light-dark(#787878, #ededed);labelBackgroundColor=default;endArrow=classic;" parent="1" source="k7553etfNbpzjwleOUmd-13" target="k7553etfNbpzjwleOUmd-22" edge="1">
          <mxGeometry relative="1" as="geometry" />
        </mxCell>
        <mxCell id="k7553etfNbpzjwleOUmd-13" value="Vérifier la qualité des fichiers (en-tête, séparateur ... )" style="rounded=1;whiteSpace=wrap;html=1;strokeColor=light-dark(#4285f4, #ededed);fontColor=light-dark(#000000,#EDEDED);" parent="1" vertex="1">
          <mxGeometry x="-83" y="145" width="120" height="60" as="geometry" />
        </mxCell>
        <mxCell id="k7553etfNbpzjwleOUmd-16" value="" style="endArrow=classic;html=1;rounded=0;exitX=0.5;exitY=1;exitDx=0;exitDy=0;entryX=0.327;entryY=0.025;entryDx=0;entryDy=0;entryPerimeter=0;strokeColor=light-dark(#4285f4, #ededed);" parent="1" source="k7553etfNbpzjwleOUmd-13" edge="1">
          <mxGeometry width="50" height="50" relative="1" as="geometry">
            <mxPoint x="-162.84" y="131.76" as="sourcePoint" />
            <mxPoint x="-22.920000000000073" y="599" as="targetPoint" />
          </mxGeometry>
        </mxCell>
        <mxCell id="k7553etfNbpzjwleOUmd-18" value="Log + Notification" style="shape=cylinder3;whiteSpace=wrap;html=1;fixedSize=1;size=6.114654541015625;textDirection=vertical-lr;boundedLbl=1;backgroundOutline=1;rotation=-90;fontColor=light-dark(#000000,#EDEDED);strokeColor=light-dark(#4285f4, #ededed);" parent="1" vertex="1">
          <mxGeometry x="110.73" y="-449.01" width="61.25" height="996.79" as="geometry" />
        </mxCell>
        <mxCell id="k7553etfNbpzjwleOUmd-26" style="edgeStyle=orthogonalEdgeStyle;rounded=0;orthogonalLoop=1;jettySize=auto;html=1;entryX=0.5;entryY=0;entryDx=0;entryDy=0;strokeColor=light-dark(#4285f4, #ededed);align=center;verticalAlign=middle;fontFamily=Helvetica;fontSize=11;fontColor=light-dark(#787878, #ededed);labelBackgroundColor=default;endArrow=classic;" parent="1" source="k7553etfNbpzjwleOUmd-22" target="k7553etfNbpzjwleOUmd-25" edge="1">
          <mxGeometry relative="1" as="geometry" />
        </mxCell>
        <mxCell id="k7553etfNbpzjwleOUmd-27" value="Pushdown" style="edgeLabel;html=1;align=center;verticalAlign=middle;resizable=0;points=[];fontColor=light-dark(#000000,#EDEDED);rounded=0;strokeColor=light-dark(#4285f4, #ededed);fontFamily=Helvetica;fontSize=11;labelBackgroundColor=default;" parent="k7553etfNbpzjwleOUmd-26" vertex="1" connectable="0">
          <mxGeometry x="-0.2915" y="1" relative="1" as="geometry">
            <mxPoint y="-1" as="offset" />
          </mxGeometry>
        </mxCell>
        <mxCell id="k7553etfNbpzjwleOUmd-30" style="edgeStyle=orthogonalEdgeStyle;rounded=0;orthogonalLoop=1;jettySize=auto;html=1;entryX=0;entryY=0.5;entryDx=0;entryDy=0;strokeColor=light-dark(#4285f4, #ededed);align=center;verticalAlign=middle;fontFamily=Helvetica;fontSize=11;fontColor=light-dark(#787878, #ededed);labelBackgroundColor=default;endArrow=classic;" parent="1" source="k7553etfNbpzjwleOUmd-22" target="k7553etfNbpzjwleOUmd-29" edge="1">
          <mxGeometry relative="1" as="geometry" />
        </mxCell>
        <mxCell id="k7553etfNbpzjwleOUmd-22" value="Ingérer les fichiers&lt;div&gt;(Bronze)&lt;/div&gt;" style="rounded=1;whiteSpace=wrap;html=1;strokeColor=light-dark(#4285f4, #ededed);fontColor=light-dark(#000000,#EDEDED);" parent="1" vertex="1">
          <mxGeometry x="77" y="145" width="120" height="60" as="geometry" />
        </mxCell>
        <mxCell id="k7553etfNbpzjwleOUmd-25" value="Requête d&#39;ingestion" style="rounded=1;whiteSpace=wrap;html=1;strokeColor=light-dark(#4285f4, #ededed);fontColor=light-dark(#000000,#EDEDED);" parent="1" vertex="1">
          <mxGeometry x="77" y="470" width="120" height="60" as="geometry" />
        </mxCell>
        <mxCell id="k7553etfNbpzjwleOUmd-28" style="edgeStyle=orthogonalEdgeStyle;rounded=0;orthogonalLoop=1;jettySize=auto;html=1;strokeColor=light-dark(#4285f4, #ededed);align=center;verticalAlign=middle;fontFamily=Helvetica;fontSize=11;fontColor=light-dark(#787878, #ededed);labelBackgroundColor=default;endArrow=classic;entryX=0.48;entryY=-0.011;entryDx=0;entryDy=0;entryPerimeter=0;" parent="1" source="k7553etfNbpzjwleOUmd-25" edge="1">
          <mxGeometry relative="1" as="geometry">
            <mxPoint x="136.19999999999982" y="596.1199999999999" as="targetPoint" />
          </mxGeometry>
        </mxCell>
        <mxCell id="k7553etfNbpzjwleOUmd-32" style="edgeStyle=orthogonalEdgeStyle;rounded=0;orthogonalLoop=1;jettySize=auto;html=1;entryX=0.5;entryY=0;entryDx=0;entryDy=0;strokeColor=light-dark(#4285f4, #ededed);align=center;verticalAlign=middle;fontFamily=Helvetica;fontSize=11;fontColor=light-dark(#787878, #ededed);labelBackgroundColor=default;endArrow=classic;" parent="1" source="k7553etfNbpzjwleOUmd-29" target="k7553etfNbpzjwleOUmd-31" edge="1">
          <mxGeometry relative="1" as="geometry" />
        </mxCell>
        <mxCell id="Y_p6u9elBjnGrWHkQ41O-1" value="Lance le workflow" style="edgeLabel;html=1;align=center;verticalAlign=middle;resizable=0;points=[];fontColor=light-dark(#000000,#EDEDED);rounded=0;strokeColor=light-dark(#4285f4, #ededed);fontFamily=Helvetica;fontSize=11;labelBackgroundColor=default;" parent="k7553etfNbpzjwleOUmd-32" vertex="1" connectable="0">
          <mxGeometry x="0.0903" y="1" relative="1" as="geometry">
            <mxPoint y="-1" as="offset" />
          </mxGeometry>
        </mxCell>
        <mxCell id="Y_p6u9elBjnGrWHkQ41O-4" style="edgeStyle=orthogonalEdgeStyle;rounded=0;orthogonalLoop=1;jettySize=auto;html=1;strokeColor=light-dark(#4285f4, #ededed);align=center;verticalAlign=middle;fontFamily=Helvetica;fontSize=11;fontColor=light-dark(#787878, #ededed);labelBackgroundColor=default;endArrow=classic;" parent="1" source="k7553etfNbpzjwleOUmd-29" target="9hK5cOsf-ARH1ENFRsVz-9" edge="1">
          <mxGeometry relative="1" as="geometry" />
        </mxCell>
        <mxCell id="k7553etfNbpzjwleOUmd-29" value="Nettoyage des données&lt;div&gt;(Silver)&lt;/div&gt;" style="rounded=1;whiteSpace=wrap;html=1;strokeColor=light-dark(#4285f4, #ededed);fontColor=light-dark(#000000,#EDEDED);" parent="1" vertex="1">
          <mxGeometry x="237" y="145" width="120" height="60" as="geometry" />
        </mxCell>
        <mxCell id="k7553etfNbpzjwleOUmd-34" style="edgeStyle=orthogonalEdgeStyle;rounded=0;orthogonalLoop=1;jettySize=auto;html=1;strokeColor=light-dark(#4285f4, #ededed);" parent="1" source="k7553etfNbpzjwleOUmd-31" target="k7553etfNbpzjwleOUmd-33" edge="1">
          <mxGeometry relative="1" as="geometry" />
        </mxCell>
        <mxCell id="Y_p6u9elBjnGrWHkQ41O-2" value="Pushdown" style="edgeLabel;html=1;align=center;verticalAlign=middle;resizable=0;points=[];fontColor=light-dark(#000000,#EDEDED);" parent="k7553etfNbpzjwleOUmd-34" vertex="1" connectable="0">
          <mxGeometry x="0.0247" y="1" relative="1" as="geometry">
            <mxPoint y="-1" as="offset" />
          </mxGeometry>
        </mxCell>
        <mxCell id="k7553etfNbpzjwleOUmd-31" value="Workflow&amp;nbsp;DQ" style="rounded=1;whiteSpace=wrap;html=1;strokeColor=light-dark(#4285f4, #ededed);fontColor=light-dark(#000000,#EDEDED);" parent="1" vertex="1">
          <mxGeometry x="237" y="310" width="120" height="60" as="geometry" />
        </mxCell>
        <mxCell id="k7553etfNbpzjwleOUmd-33" value="Requêtes DQ" style="rounded=1;whiteSpace=wrap;html=1;strokeColor=light-dark(#4285f4, #ededed);fontColor=light-dark(#000000,#EDEDED);" parent="1" vertex="1">
          <mxGeometry x="237" y="470" width="120" height="60" as="geometry" />
        </mxCell>
        <mxCell id="9hK5cOsf-ARH1ENFRsVz-1" value="Pub/Sub" style="sketch=0;html=1;verticalAlign=top;labelPosition=center;verticalLabelPosition=bottom;align=center;spacingTop=-6;fontSize=11;fontStyle=1;fontColor=#999999;shape=image;aspect=fixed;imageAspect=0;image=data:image/svg+xml,PHN2ZyB4bWxucz0iaHR0cDovL3d3dy53My5vcmcvMjAwMC9zdmciIHhtbG5zOnY9Imh0dHBzOi8vdmVjdGEuaW8vbmFubyIgd2lkdGg9IjE4LjMxOTk5OTY5NDgyNDIyIiBoZWlnaHQ9IjIwLjAwMDAwMTkwNzM0ODYzMyIgdmlld0JveD0iMCAwIDE4LjMxOTk5OTY5NDgyNDIyIDIwLjAwMDAwMTkwNzM0ODYzMyI+JiN4YTsJPHN0eWxlIHR5cGU9InRleHQvY3NzIj4mI3hhOwkuc3Qwe2ZpbGw6IzY2OWRmNjt9JiN4YTsJLnN0MXtmaWxsOiM0Mjg1ZjQ7fSYjeGE7CS5zdDJ7ZmlsbDojYWVjYmZhO30mI3hhOwk8L3N0eWxlPiYjeGE7CTxkZWZzPiYjeGE7CQk8ZmlsdGVyIGlkPSJBIiB4PSI0LjY0IiB5PSI0LjE5IiB3aWR0aD0iMTQuNzMiIGhlaWdodD0iMTIuNzYiIGZpbHRlclVuaXRzPSJ1c2VyU3BhY2VPblVzZSIgY29sb3ItaW50ZXJwb2xhdGlvbi1maWx0ZXJzPSJzUkdCIj4mI3hhOwkJCTxmZUZsb29kIGZsb29kLWNvbG9yPSIjZmZmIi8+JiN4YTsJCQk8ZmVCbGVuZCBpbj0iU291cmNlR3JhcGhpYyIvPiYjeGE7CQk8L2ZpbHRlcj4mI3hhOwkJPG1hc2sgaWQ9IkIiIHg9IjQuNjQiIHk9IjQuMTkiIHdpZHRoPSIxNC43MyIgaGVpZ2h0PSIxMi43NiIgbWFza1VuaXRzPSJ1c2VyU3BhY2VPblVzZSI+JiN4YTsJCQk8Y2lyY2xlIGN4PSIxMiIgY3k9IjEyLjIzIiByPSIzLjU4IiBmaWx0ZXI9InVybCgjQSkiLz4mI3hhOwkJPC9tYXNrPiYjeGE7CTwvZGVmcz4mI3hhOwk8ZyBjbGFzcz0ic3QwIj4mI3hhOwkJPGNpcmNsZSBjeD0iMTYuMTMiIGN5PSI2LjIxIiByPSIxLjcyIi8+JiN4YTsJCTxjaXJjbGUgY3g9IjIuMTkiIGN5PSI2LjIxIiByPSIxLjcyIi8+JiN4YTsJCTxjaXJjbGUgY3g9IjkuMTYiIGN5PSIxOC4yOCIgcj0iMS43MiIvPiYjeGE7CTwvZz4mI3hhOwk8ZyBtYXNrPSJ1cmwoI0IpIiB0cmFuc2Zvcm09InRyYW5zbGF0ZSgtMi44NCAtMikiPiYjeGE7CQk8cGF0aCB0cmFuc2Zvcm09Im1hdHJpeCguNSAtLjg3IC44NyAuNSAtNC41OSAyMC41MykiIGQ9Ik0xNC42OSAxMC4yMmgxLjU5djguMDRoLTEuNTl6IiBjbGFzcz0ic3QxIi8+JiN4YTsJCTxwYXRoIHRyYW5zZm9ybT0icm90YXRlKDMzMCA4LjUyMyAxNC4yNDQpIiBkPSJNNC40OSAxMy40NWg4LjA0djEuNTlINC40OXoiIGNsYXNzPSJzdDEiLz4mI3hhOwkJPHBhdGggZD0iTTExLjIgNC4xOWgxLjU5djguMDRIMTEuMnoiIGNsYXNzPSJzdDEiLz4mI3hhOwk8L2c+JiN4YTsJPGcgY2xhc3M9InN0MiI+JiN4YTsJCTxjaXJjbGUgY3g9IjkuMTYiIGN5PSIxMC4yMyIgcj0iMi43OCIvPiYjeGE7CQk8Y2lyY2xlIGN4PSIyLjE5IiBjeT0iMTQuMjUiIHI9IjIuMTkiLz4mI3hhOwkJPGNpcmNsZSBjeD0iMTYuMTMiIGN5PSIxNC4yNSIgcj0iMi4xOSIvPiYjeGE7CQk8Y2lyY2xlIGN4PSI5LjE2IiBjeT0iMi4xOSIgcj0iMi4xOSIvPiYjeGE7CTwvZz4mI3hhOzwvc3ZnPg==;" parent="1" vertex="1">
          <mxGeometry x="550" y="23.380000000000003" width="38" height="42" as="geometry" />
        </mxCell>
        <mxCell id="9hK5cOsf-ARH1ENFRsVz-3" style="edgeStyle=orthogonalEdgeStyle;rounded=0;orthogonalLoop=1;jettySize=auto;html=1;strokeColor=light-dark(#4285f4, #ededed);align=center;verticalAlign=middle;fontFamily=Helvetica;fontSize=11;fontColor=light-dark(#787878, #ededed);labelBackgroundColor=default;endArrow=classic;" parent="1" source="k7553etfNbpzjwleOUmd-10" edge="1">
          <mxGeometry relative="1" as="geometry">
            <mxPoint x="-183" y="84" as="targetPoint" />
          </mxGeometry>
        </mxCell>
        <mxCell id="9hK5cOsf-ARH1ENFRsVz-7" style="edgeStyle=orthogonalEdgeStyle;rounded=0;orthogonalLoop=1;jettySize=auto;html=1;entryX=0.5;entryY=0;entryDx=0;entryDy=0;strokeColor=light-dark(#4285f4, #ededed);align=center;verticalAlign=middle;fontFamily=Helvetica;fontSize=11;fontColor=light-dark(#787878, #ededed);labelBackgroundColor=default;endArrow=classic;" parent="1" source="9hK5cOsf-ARH1ENFRsVz-9" target="9hK5cOsf-ARH1ENFRsVz-12" edge="1">
          <mxGeometry relative="1" as="geometry" />
        </mxCell>
        <mxCell id="9hK5cOsf-ARH1ENFRsVz-8" value="Lance le workflow" style="edgeLabel;html=1;align=center;verticalAlign=middle;resizable=0;points=[];fontColor=light-dark(#000000,#EDEDED);rounded=0;strokeColor=light-dark(#4285f4, #ededed);fontFamily=Helvetica;fontSize=11;labelBackgroundColor=default;" parent="9hK5cOsf-ARH1ENFRsVz-7" vertex="1" connectable="0">
          <mxGeometry x="0.0903" y="1" relative="1" as="geometry">
            <mxPoint y="-1" as="offset" />
          </mxGeometry>
        </mxCell>
        <mxCell id="9hK5cOsf-ARH1ENFRsVz-9" value="Transformations et alimentations du modèle Business&lt;br&gt;&lt;div&gt;(Gold)&lt;/div&gt;" style="rounded=1;whiteSpace=wrap;html=1;strokeColor=light-dark(#4285f4, #ededed);fontColor=light-dark(#000000,#EDEDED);" parent="1" vertex="1">
          <mxGeometry x="397" y="145" width="120" height="60" as="geometry" />
        </mxCell>
        <mxCell id="9hK5cOsf-ARH1ENFRsVz-10" style="edgeStyle=orthogonalEdgeStyle;rounded=0;orthogonalLoop=1;jettySize=auto;html=1;strokeColor=light-dark(#4285f4, #ededed);" parent="1" source="9hK5cOsf-ARH1ENFRsVz-12" target="9hK5cOsf-ARH1ENFRsVz-13" edge="1">
          <mxGeometry relative="1" as="geometry" />
        </mxCell>
        <mxCell id="9hK5cOsf-ARH1ENFRsVz-11" value="Pushdown" style="edgeLabel;html=1;align=center;verticalAlign=middle;resizable=0;points=[];fontColor=light-dark(#000000,#EDEDED);" parent="9hK5cOsf-ARH1ENFRsVz-10" vertex="1" connectable="0">
          <mxGeometry x="0.0247" y="1" relative="1" as="geometry">
            <mxPoint y="-1" as="offset" />
          </mxGeometry>
        </mxCell>
        <mxCell id="9hK5cOsf-ARH1ENFRsVz-12" value="Workflow MOM" style="rounded=1;whiteSpace=wrap;html=1;strokeColor=light-dark(#4285f4, #ededed);fontColor=light-dark(#000000,#EDEDED);" parent="1" vertex="1">
          <mxGeometry x="397" y="310" width="120" height="60" as="geometry" />
        </mxCell>
        <mxCell id="9hK5cOsf-ARH1ENFRsVz-13" value="Requêtes Transfo/Alim" style="rounded=1;whiteSpace=wrap;html=1;strokeColor=light-dark(#4285f4, #ededed);fontColor=light-dark(#000000,#EDEDED);" parent="1" vertex="1">
          <mxGeometry x="397" y="470" width="120" height="60" as="geometry" />
        </mxCell>
        <mxCell id="9hK5cOsf-ARH1ENFRsVz-15" value="" style="endArrow=classic;html=1;rounded=0;exitX=0.5;exitY=0;exitDx=0;exitDy=0;strokeColor=light-dark(#4285f4, #ededed);entryX=-0.042;entryY=0.327;entryDx=0;entryDy=0;entryPerimeter=0;" parent="1" source="k7553etfNbpzjwleOUmd-13" edge="1">
          <mxGeometry width="50" height="50" relative="1" as="geometry">
            <mxPoint x="-132.92000000000002" y="240" as="sourcePoint" />
            <mxPoint x="-22.46154999999999" y="82.58250000000021" as="targetPoint" />
          </mxGeometry>
        </mxCell>
        <mxCell id="9hK5cOsf-ARH1ENFRsVz-17" value="" style="endArrow=classic;html=1;rounded=0;exitX=0.5;exitY=0;exitDx=0;exitDy=0;strokeColor=light-dark(#4285f4, #ededed);entryX=-0.013;entryY=0.293;entryDx=0;entryDy=0;entryPerimeter=0;" parent="1" edge="1">
          <mxGeometry width="50" height="50" relative="1" as="geometry">
            <mxPoint x="137" y="145" as="sourcePoint" />
            <mxPoint x="138" y="81" as="targetPoint" />
          </mxGeometry>
        </mxCell>
        <mxCell id="9hK5cOsf-ARH1ENFRsVz-18" value="" style="endArrow=classic;html=1;rounded=0;exitX=0.5;exitY=0;exitDx=0;exitDy=0;strokeColor=light-dark(#4285f4, #ededed);entryX=-0.013;entryY=0.293;entryDx=0;entryDy=0;entryPerimeter=0;" parent="1" edge="1">
          <mxGeometry width="50" height="50" relative="1" as="geometry">
            <mxPoint x="297" y="145" as="sourcePoint" />
            <mxPoint x="298" y="81" as="targetPoint" />
          </mxGeometry>
        </mxCell>
        <mxCell id="9hK5cOsf-ARH1ENFRsVz-19" value="" style="endArrow=classic;html=1;rounded=0;exitX=0.5;exitY=0;exitDx=0;exitDy=0;strokeColor=light-dark(#4285f4, #ededed);entryX=-0.013;entryY=0.293;entryDx=0;entryDy=0;entryPerimeter=0;" parent="1" edge="1">
          <mxGeometry width="50" height="50" relative="1" as="geometry">
            <mxPoint x="457" y="145" as="sourcePoint" />
            <mxPoint x="458" y="81" as="targetPoint" />
          </mxGeometry>
        </mxCell>
      </root>
    </mxGraphModel>
  </diagram>
</mxfile>
